<svg xmlns="http://www.w3.org/2000/svg" width="900" height="60" viewBox="0 0 900 60"><rect x="0" y="0" width="900" height="60" fill="#000000"/><g transform="translate(26,3.043906571428632)translate(26.49999999999991,26.491807714285624)rotate(0)translate(-26.49999999999991,-26.491807714285624) scale(0.10599999999999965,0.10599999999999965)" opacity="1"><defs class="defs"/><g>
    <polygon fill="#5dc33f" points="104.223,250.001 14.853,160.637 1.149,174.35 74.502,247.724 73.393,248.853 74.502,250.001&#10;&#9;&#9;0,324.531 14.853,339.363 &#9;" class="color c1"/>
    <polygon fill="#5dc33f" points="170.219,250.001 80.809,160.637 67.143,174.35 140.514,247.724 139.368,248.853 140.514,250.001&#10;&#9;&#9;65.975,324.531 80.809,339.363 &#9;" class="color c1"/>
    <polygon fill="#5dc33f" points="236.099,250.001 146.765,160.637 133.099,174.35 206.452,247.724 205.324,248.853 206.452,250.001&#10;&#9;&#9;131.913,324.531 146.765,339.363 &#9;" class="color c1"/>
    <polygon fill="#5dc33f" points="302.073,250.001 212.721,160.637 199.018,174.35 272.427,247.724 271.279,248.853 272.427,250.001&#10;&#9;&#9;197.869,324.531 212.721,339.363 &#9;" class="color c1"/>
    <polygon fill="#5dc33f" points="368.067,250.001 278.677,160.637 265.029,174.35 338.364,247.724 337.255,248.853 338.364,250.001&#10;&#9;&#9;263.825,324.531 278.677,339.363 &#9;" class="color c1"/>
    <polygon fill="#5dc33f" points="434.023,250.001 344.689,160.637 330.967,174.35 404.36,247.724 403.192,248.853 404.36,250.001&#10;&#9;&#9;329.8,324.531 344.689,339.363 &#9;" class="color c1"/>
    <polygon fill="#5dc33f" points="500,250.001 410.645,160.637 396.942,174.35 470.277,247.724 469.148,248.853 470.277,250.001&#10;&#9;&#9;395.795,324.531 410.645,339.363 &#9;" class="color c1"/>
  </g></g><g transform="translate(79.00000000000003,3.043906571428632)translate(26.49999999999991,26.491807714285624)rotate(0)translate(-26.49999999999991,-26.491807714285624) scale(0.10599999999999965,0.10599999999999965)" opacity="1"><defs class="defs"/><g>
    <polygon fill="#5dc33f" points="104.223,250.001 14.853,160.637 1.149,174.35 74.502,247.724 73.393,248.853 74.502,250.001&#10;&#9;&#9;0,324.531 14.853,339.363 &#9;" class="color c1"/>
    <polygon fill="#5dc33f" points="170.219,250.001 80.809,160.637 67.143,174.35 140.514,247.724 139.368,248.853 140.514,250.001&#10;&#9;&#9;65.975,324.531 80.809,339.363 &#9;" class="color c1"/>
    <polygon fill="#5dc33f" points="236.099,250.001 146.765,160.637 133.099,174.35 206.452,247.724 205.324,248.853 206.452,250.001&#10;&#9;&#9;131.913,324.531 146.765,339.363 &#9;" class="color c1"/>
    <polygon fill="#5dc33f" points="302.073,250.001 212.721,160.637 199.018,174.35 272.427,247.724 271.279,248.853 272.427,250.001&#10;&#9;&#9;197.869,324.531 212.721,339.363 &#9;" class="color c1"/>
    <polygon fill="#5dc33f" points="368.067,250.001 278.677,160.637 265.029,174.35 338.364,247.724 337.255,248.853 338.364,250.001&#10;&#9;&#9;263.825,324.531 278.677,339.363 &#9;" class="color c1"/>
    <polygon fill="#5dc33f" points="434.023,250.001 344.689,160.637 330.967,174.35 404.36,247.724 403.192,248.853 404.36,250.001&#10;&#9;&#9;329.8,324.531 344.689,339.363 &#9;" class="color c1"/>
    <polygon fill="#5dc33f" points="500,250.001 410.645,160.637 396.942,174.35 470.277,247.724 469.148,248.853 470.277,250.001&#10;&#9;&#9;395.795,324.531 410.645,339.363 &#9;" class="color c1"/>
  </g></g><g transform="translate(132.00000000000003,3.043906571428632)translate(26.49999999999991,26.491807714285624)rotate(0)translate(-26.49999999999991,-26.491807714285624) scale(0.10599999999999965,0.10599999999999965)" opacity="1"><defs class="defs"/><g>
    <polygon fill="#5dc33f" points="104.223,250.001 14.853,160.637 1.149,174.35 74.502,247.724 73.393,248.853 74.502,250.001&#10;&#9;&#9;0,324.531 14.853,339.363 &#9;" class="color c1"/>
    <polygon fill="#5dc33f" points="170.219,250.001 80.809,160.637 67.143,174.35 140.514,247.724 139.368,248.853 140.514,250.001&#10;&#9;&#9;65.975,324.531 80.809,339.363 &#9;" class="color c1"/>
    <polygon fill="#5dc33f" points="236.099,250.001 146.765,160.637 133.099,174.35 206.452,247.724 205.324,248.853 206.452,250.001&#10;&#9;&#9;131.913,324.531 146.765,339.363 &#9;" class="color c1"/>
    <polygon fill="#5dc33f" points="302.073,250.001 212.721,160.637 199.018,174.35 272.427,247.724 271.279,248.853 272.427,250.001&#10;&#9;&#9;197.869,324.531 212.721,339.363 &#9;" class="color c1"/>
    <polygon fill="#5dc33f" points="368.067,250.001 278.677,160.637 265.029,174.35 338.364,247.724 337.255,248.853 338.364,250.001&#10;&#9;&#9;263.825,324.531 278.677,339.363 &#9;" class="color c1"/>
    <polygon fill="#5dc33f" points="434.023,250.001 344.689,160.637 330.967,174.35 404.36,247.724 403.192,248.853 404.36,250.001&#10;&#9;&#9;329.8,324.531 344.689,339.363 &#9;" class="color c1"/>
    <polygon fill="#5dc33f" points="500,250.001 410.645,160.637 396.942,174.35 470.277,247.724 469.148,248.853 470.277,250.001&#10;&#9;&#9;395.795,324.531 410.645,339.363 &#9;" class="color c1"/>
  </g></g><g transform="translate(184.99999999999997,3.043906571428632)translate(26.49999999999991,26.491807714285624)rotate(0)translate(-26.49999999999991,-26.491807714285624) scale(0.10599999999999965,0.10599999999999965)" opacity="1"><defs class="defs"/><g>
    <polygon fill="#5dc33f" points="104.223,250.001 14.853,160.637 1.149,174.35 74.502,247.724 73.393,248.853 74.502,250.001&#10;&#9;&#9;0,324.531 14.853,339.363 &#9;" class="color c1"/>
    <polygon fill="#5dc33f" points="170.219,250.001 80.809,160.637 67.143,174.35 140.514,247.724 139.368,248.853 140.514,250.001&#10;&#9;&#9;65.975,324.531 80.809,339.363 &#9;" class="color c1"/>
    <polygon fill="#5dc33f" points="236.099,250.001 146.765,160.637 133.099,174.35 206.452,247.724 205.324,248.853 206.452,250.001&#10;&#9;&#9;131.913,324.531 146.765,339.363 &#9;" class="color c1"/>
    <polygon fill="#5dc33f" points="302.073,250.001 212.721,160.637 199.018,174.35 272.427,247.724 271.279,248.853 272.427,250.001&#10;&#9;&#9;197.869,324.531 212.721,339.363 &#9;" class="color c1"/>
    <polygon fill="#5dc33f" points="368.067,250.001 278.677,160.637 265.029,174.35 338.364,247.724 337.255,248.853 338.364,250.001&#10;&#9;&#9;263.825,324.531 278.677,339.363 &#9;" class="color c1"/>
    <polygon fill="#5dc33f" points="434.023,250.001 344.689,160.637 330.967,174.35 404.36,247.724 403.192,248.853 404.36,250.001&#10;&#9;&#9;329.8,324.531 344.689,339.363 &#9;" class="color c1"/>
    <polygon fill="#5dc33f" points="500,250.001 410.645,160.637 396.942,174.35 470.277,247.724 469.148,248.853 470.277,250.001&#10;&#9;&#9;395.795,324.531 410.645,339.363 &#9;" class="color c1"/>
  </g></g><g transform="translate(238.00000000000003,3.043906571428632)translate(26.49999999999991,26.491807714285624)rotate(0)translate(-26.49999999999991,-26.491807714285624) scale(0.10599999999999965,0.10599999999999965)" opacity="1"><defs class="defs"/><g>
    <polygon fill="#5dc33f" points="104.223,250.001 14.853,160.637 1.149,174.35 74.502,247.724 73.393,248.853 74.502,250.001&#10;&#9;&#9;0,324.531 14.853,339.363 &#9;" class="color c1"/>
    <polygon fill="#5dc33f" points="170.219,250.001 80.809,160.637 67.143,174.35 140.514,247.724 139.368,248.853 140.514,250.001&#10;&#9;&#9;65.975,324.531 80.809,339.363 &#9;" class="color c1"/>
    <polygon fill="#5dc33f" points="236.099,250.001 146.765,160.637 133.099,174.35 206.452,247.724 205.324,248.853 206.452,250.001&#10;&#9;&#9;131.913,324.531 146.765,339.363 &#9;" class="color c1"/>
    <polygon fill="#5dc33f" points="302.073,250.001 212.721,160.637 199.018,174.35 272.427,247.724 271.279,248.853 272.427,250.001&#10;&#9;&#9;197.869,324.531 212.721,339.363 &#9;" class="color c1"/>
    <polygon fill="#5dc33f" points="368.067,250.001 278.677,160.637 265.029,174.35 338.364,247.724 337.255,248.853 338.364,250.001&#10;&#9;&#9;263.825,324.531 278.677,339.363 &#9;" class="color c1"/>
    <polygon fill="#5dc33f" points="434.023,250.001 344.689,160.637 330.967,174.35 404.36,247.724 403.192,248.853 404.36,250.001&#10;&#9;&#9;329.8,324.531 344.689,339.363 &#9;" class="color c1"/>
    <polygon fill="#5dc33f" points="500,250.001 410.645,160.637 396.942,174.35 470.277,247.724 469.148,248.853 470.277,250.001&#10;&#9;&#9;395.795,324.531 410.645,339.363 &#9;" class="color c1"/>
  </g></g><g transform="translate(291,3.043906571428632)translate(26.49999999999991,26.491807714285624)rotate(0)translate(-26.49999999999991,-26.491807714285624) scale(0.10599999999999965,0.10599999999999965)" opacity="1"><defs class="defs"/><g>
    <polygon fill="#5dc33f" points="104.223,250.001 14.853,160.637 1.149,174.35 74.502,247.724 73.393,248.853 74.502,250.001&#10;&#9;&#9;0,324.531 14.853,339.363 &#9;" class="color c1"/>
    <polygon fill="#5dc33f" points="170.219,250.001 80.809,160.637 67.143,174.35 140.514,247.724 139.368,248.853 140.514,250.001&#10;&#9;&#9;65.975,324.531 80.809,339.363 &#9;" class="color c1"/>
    <polygon fill="#5dc33f" points="236.099,250.001 146.765,160.637 133.099,174.35 206.452,247.724 205.324,248.853 206.452,250.001&#10;&#9;&#9;131.913,324.531 146.765,339.363 &#9;" class="color c1"/>
    <polygon fill="#5dc33f" points="302.073,250.001 212.721,160.637 199.018,174.35 272.427,247.724 271.279,248.853 272.427,250.001&#10;&#9;&#9;197.869,324.531 212.721,339.363 &#9;" class="color c1"/>
    <polygon fill="#5dc33f" points="368.067,250.001 278.677,160.637 265.029,174.35 338.364,247.724 337.255,248.853 338.364,250.001&#10;&#9;&#9;263.825,324.531 278.677,339.363 &#9;" class="color c1"/>
    <polygon fill="#5dc33f" points="434.023,250.001 344.689,160.637 330.967,174.35 404.36,247.724 403.192,248.853 404.36,250.001&#10;&#9;&#9;329.8,324.531 344.689,339.363 &#9;" class="color c1"/>
    <polygon fill="#5dc33f" points="500,250.001 410.645,160.637 396.942,174.35 470.277,247.724 469.148,248.853 470.277,250.001&#10;&#9;&#9;395.795,324.531 410.645,339.363 &#9;" class="color c1"/>
  </g></g><g transform="translate(344,3.043906571428632)translate(26.49999999999991,26.491807714285624)rotate(0)translate(-26.49999999999991,-26.491807714285624) scale(0.10599999999999965,0.10599999999999965)" opacity="1"><defs class="defs"/><g>
    <polygon fill="#5dc33f" points="104.223,250.001 14.853,160.637 1.149,174.35 74.502,247.724 73.393,248.853 74.502,250.001&#10;&#9;&#9;0,324.531 14.853,339.363 &#9;" class="color c1"/>
    <polygon fill="#5dc33f" points="170.219,250.001 80.809,160.637 67.143,174.35 140.514,247.724 139.368,248.853 140.514,250.001&#10;&#9;&#9;65.975,324.531 80.809,339.363 &#9;" class="color c1"/>
    <polygon fill="#5dc33f" points="236.099,250.001 146.765,160.637 133.099,174.35 206.452,247.724 205.324,248.853 206.452,250.001&#10;&#9;&#9;131.913,324.531 146.765,339.363 &#9;" class="color c1"/>
    <polygon fill="#5dc33f" points="302.073,250.001 212.721,160.637 199.018,174.35 272.427,247.724 271.279,248.853 272.427,250.001&#10;&#9;&#9;197.869,324.531 212.721,339.363 &#9;" class="color c1"/>
    <polygon fill="#5dc33f" points="368.067,250.001 278.677,160.637 265.029,174.35 338.364,247.724 337.255,248.853 338.364,250.001&#10;&#9;&#9;263.825,324.531 278.677,339.363 &#9;" class="color c1"/>
    <polygon fill="#5dc33f" points="434.023,250.001 344.689,160.637 330.967,174.35 404.36,247.724 403.192,248.853 404.36,250.001&#10;&#9;&#9;329.8,324.531 344.689,339.363 &#9;" class="color c1"/>
    <polygon fill="#5dc33f" points="500,250.001 410.645,160.637 396.942,174.35 470.277,247.724 469.148,248.853 470.277,250.001&#10;&#9;&#9;395.795,324.531 410.645,339.363 &#9;" class="color c1"/>
  </g></g><g transform="translate(397,3.043906571428632)translate(26.49999999999991,26.491807714285624)rotate(0)translate(-26.49999999999991,-26.491807714285624) scale(0.10599999999999965,0.10599999999999965)" opacity="1"><defs class="defs"/><g>
    <polygon fill="#5dc33f" points="104.223,250.001 14.853,160.637 1.149,174.35 74.502,247.724 73.393,248.853 74.502,250.001&#10;&#9;&#9;0,324.531 14.853,339.363 &#9;" class="color c1"/>
    <polygon fill="#5dc33f" points="170.219,250.001 80.809,160.637 67.143,174.35 140.514,247.724 139.368,248.853 140.514,250.001&#10;&#9;&#9;65.975,324.531 80.809,339.363 &#9;" class="color c1"/>
    <polygon fill="#5dc33f" points="236.099,250.001 146.765,160.637 133.099,174.35 206.452,247.724 205.324,248.853 206.452,250.001&#10;&#9;&#9;131.913,324.531 146.765,339.363 &#9;" class="color c1"/>
    <polygon fill="#5dc33f" points="302.073,250.001 212.721,160.637 199.018,174.35 272.427,247.724 271.279,248.853 272.427,250.001&#10;&#9;&#9;197.869,324.531 212.721,339.363 &#9;" class="color c1"/>
    <polygon fill="#5dc33f" points="368.067,250.001 278.677,160.637 265.029,174.35 338.364,247.724 337.255,248.853 338.364,250.001&#10;&#9;&#9;263.825,324.531 278.677,339.363 &#9;" class="color c1"/>
    <polygon fill="#5dc33f" points="434.023,250.001 344.689,160.637 330.967,174.35 404.36,247.724 403.192,248.853 404.36,250.001&#10;&#9;&#9;329.8,324.531 344.689,339.363 &#9;" class="color c1"/>
    <polygon fill="#5dc33f" points="500,250.001 410.645,160.637 396.942,174.35 470.277,247.724 469.148,248.853 470.277,250.001&#10;&#9;&#9;395.795,324.531 410.645,339.363 &#9;" class="color c1"/>
  </g></g><g transform="translate(450.0000000000001,3.043906571428632)translate(26.49999999999991,26.491807714285624)rotate(0)translate(-26.49999999999991,-26.491807714285624) scale(0.10599999999999965,0.10599999999999965)" opacity="1"><defs class="defs"/><g>
    <polygon fill="#5dc33f" points="104.223,250.001 14.853,160.637 1.149,174.35 74.502,247.724 73.393,248.853 74.502,250.001&#10;&#9;&#9;0,324.531 14.853,339.363 &#9;" class="color c1"/>
    <polygon fill="#5dc33f" points="170.219,250.001 80.809,160.637 67.143,174.35 140.514,247.724 139.368,248.853 140.514,250.001&#10;&#9;&#9;65.975,324.531 80.809,339.363 &#9;" class="color c1"/>
    <polygon fill="#5dc33f" points="236.099,250.001 146.765,160.637 133.099,174.35 206.452,247.724 205.324,248.853 206.452,250.001&#10;&#9;&#9;131.913,324.531 146.765,339.363 &#9;" class="color c1"/>
    <polygon fill="#5dc33f" points="302.073,250.001 212.721,160.637 199.018,174.35 272.427,247.724 271.279,248.853 272.427,250.001&#10;&#9;&#9;197.869,324.531 212.721,339.363 &#9;" class="color c1"/>
    <polygon fill="#5dc33f" points="368.067,250.001 278.677,160.637 265.029,174.35 338.364,247.724 337.255,248.853 338.364,250.001&#10;&#9;&#9;263.825,324.531 278.677,339.363 &#9;" class="color c1"/>
    <polygon fill="#5dc33f" points="434.023,250.001 344.689,160.637 330.967,174.35 404.36,247.724 403.192,248.853 404.36,250.001&#10;&#9;&#9;329.8,324.531 344.689,339.363 &#9;" class="color c1"/>
    <polygon fill="#5dc33f" points="500,250.001 410.645,160.637 396.942,174.35 470.277,247.724 469.148,248.853 470.277,250.001&#10;&#9;&#9;395.795,324.531 410.645,339.363 &#9;" class="color c1"/>
  </g></g><g transform="translate(503.0000000000009,3.043906571428632)translate(26.49999999999991,26.491807714285624)rotate(0)translate(-26.49999999999991,-26.491807714285624) scale(0.10599999999999965,0.10599999999999965)" opacity="1"><defs class="defs"/><g>
    <polygon fill="#5dc33f" points="104.223,250.001 14.853,160.637 1.149,174.35 74.502,247.724 73.393,248.853 74.502,250.001&#10;&#9;&#9;0,324.531 14.853,339.363 &#9;" class="color c1"/>
    <polygon fill="#5dc33f" points="170.219,250.001 80.809,160.637 67.143,174.35 140.514,247.724 139.368,248.853 140.514,250.001&#10;&#9;&#9;65.975,324.531 80.809,339.363 &#9;" class="color c1"/>
    <polygon fill="#5dc33f" points="236.099,250.001 146.765,160.637 133.099,174.35 206.452,247.724 205.324,248.853 206.452,250.001&#10;&#9;&#9;131.913,324.531 146.765,339.363 &#9;" class="color c1"/>
    <polygon fill="#5dc33f" points="302.073,250.001 212.721,160.637 199.018,174.35 272.427,247.724 271.279,248.853 272.427,250.001&#10;&#9;&#9;197.869,324.531 212.721,339.363 &#9;" class="color c1"/>
    <polygon fill="#5dc33f" points="368.067,250.001 278.677,160.637 265.029,174.35 338.364,247.724 337.255,248.853 338.364,250.001&#10;&#9;&#9;263.825,324.531 278.677,339.363 &#9;" class="color c1"/>
    <polygon fill="#5dc33f" points="434.023,250.001 344.689,160.637 330.967,174.35 404.36,247.724 403.192,248.853 404.36,250.001&#10;&#9;&#9;329.8,324.531 344.689,339.363 &#9;" class="color c1"/>
    <polygon fill="#5dc33f" points="500,250.001 410.645,160.637 396.942,174.35 470.277,247.724 469.148,248.853 470.277,250.001&#10;&#9;&#9;395.795,324.531 410.645,339.363 &#9;" class="color c1"/>
  </g></g><g transform="translate(556,3.043906571428632)translate(26.49999999999991,26.491807714285624)rotate(0)translate(-26.49999999999991,-26.491807714285624) scale(0.10599999999999965,0.10599999999999965)" opacity="1"><defs class="defs"/><g>
    <polygon fill="#5dc33f" points="104.223,250.001 14.853,160.637 1.149,174.35 74.502,247.724 73.393,248.853 74.502,250.001&#10;&#9;&#9;0,324.531 14.853,339.363 &#9;" class="color c1"/>
    <polygon fill="#5dc33f" points="170.219,250.001 80.809,160.637 67.143,174.35 140.514,247.724 139.368,248.853 140.514,250.001&#10;&#9;&#9;65.975,324.531 80.809,339.363 &#9;" class="color c1"/>
    <polygon fill="#5dc33f" points="236.099,250.001 146.765,160.637 133.099,174.35 206.452,247.724 205.324,248.853 206.452,250.001&#10;&#9;&#9;131.913,324.531 146.765,339.363 &#9;" class="color c1"/>
    <polygon fill="#5dc33f" points="302.073,250.001 212.721,160.637 199.018,174.35 272.427,247.724 271.279,248.853 272.427,250.001&#10;&#9;&#9;197.869,324.531 212.721,339.363 &#9;" class="color c1"/>
    <polygon fill="#5dc33f" points="368.067,250.001 278.677,160.637 265.029,174.35 338.364,247.724 337.255,248.853 338.364,250.001&#10;&#9;&#9;263.825,324.531 278.677,339.363 &#9;" class="color c1"/>
    <polygon fill="#5dc33f" points="434.023,250.001 344.689,160.637 330.967,174.35 404.36,247.724 403.192,248.853 404.36,250.001&#10;&#9;&#9;329.8,324.531 344.689,339.363 &#9;" class="color c1"/>
    <polygon fill="#5dc33f" points="500,250.001 410.645,160.637 396.942,174.35 470.277,247.724 469.148,248.853 470.277,250.001&#10;&#9;&#9;395.795,324.531 410.645,339.363 &#9;" class="color c1"/>
  </g></g><g transform="translate(609,3.043906571428632)translate(26.49999999999991,26.491807714285624)rotate(0)translate(-26.49999999999991,-26.491807714285624) scale(0.10599999999999965,0.10599999999999965)" opacity="1"><defs class="defs"/><g>
    <polygon fill="#5dc33f" points="104.223,250.001 14.853,160.637 1.149,174.35 74.502,247.724 73.393,248.853 74.502,250.001&#10;&#9;&#9;0,324.531 14.853,339.363 &#9;" class="color c1"/>
    <polygon fill="#5dc33f" points="170.219,250.001 80.809,160.637 67.143,174.35 140.514,247.724 139.368,248.853 140.514,250.001&#10;&#9;&#9;65.975,324.531 80.809,339.363 &#9;" class="color c1"/>
    <polygon fill="#5dc33f" points="236.099,250.001 146.765,160.637 133.099,174.35 206.452,247.724 205.324,248.853 206.452,250.001&#10;&#9;&#9;131.913,324.531 146.765,339.363 &#9;" class="color c1"/>
    <polygon fill="#5dc33f" points="302.073,250.001 212.721,160.637 199.018,174.35 272.427,247.724 271.279,248.853 272.427,250.001&#10;&#9;&#9;197.869,324.531 212.721,339.363 &#9;" class="color c1"/>
    <polygon fill="#5dc33f" points="368.067,250.001 278.677,160.637 265.029,174.35 338.364,247.724 337.255,248.853 338.364,250.001&#10;&#9;&#9;263.825,324.531 278.677,339.363 &#9;" class="color c1"/>
    <polygon fill="#5dc33f" points="434.023,250.001 344.689,160.637 330.967,174.35 404.36,247.724 403.192,248.853 404.36,250.001&#10;&#9;&#9;329.8,324.531 344.689,339.363 &#9;" class="color c1"/>
    <polygon fill="#5dc33f" points="500,250.001 410.645,160.637 396.942,174.35 470.277,247.724 469.148,248.853 470.277,250.001&#10;&#9;&#9;395.795,324.531 410.645,339.363 &#9;" class="color c1"/>
  </g></g><g transform="translate(662,3.043906571428632)translate(26.49999999999991,26.491807714285624)rotate(0)translate(-26.49999999999991,-26.491807714285624) scale(0.10599999999999965,0.10599999999999965)" opacity="1"><defs class="defs"/><g>
    <polygon fill="#5dc33f" points="104.223,250.001 14.853,160.637 1.149,174.35 74.502,247.724 73.393,248.853 74.502,250.001&#10;&#9;&#9;0,324.531 14.853,339.363 &#9;" class="color c1"/>
    <polygon fill="#5dc33f" points="170.219,250.001 80.809,160.637 67.143,174.35 140.514,247.724 139.368,248.853 140.514,250.001&#10;&#9;&#9;65.975,324.531 80.809,339.363 &#9;" class="color c1"/>
    <polygon fill="#5dc33f" points="236.099,250.001 146.765,160.637 133.099,174.35 206.452,247.724 205.324,248.853 206.452,250.001&#10;&#9;&#9;131.913,324.531 146.765,339.363 &#9;" class="color c1"/>
    <polygon fill="#5dc33f" points="302.073,250.001 212.721,160.637 199.018,174.35 272.427,247.724 271.279,248.853 272.427,250.001&#10;&#9;&#9;197.869,324.531 212.721,339.363 &#9;" class="color c1"/>
    <polygon fill="#5dc33f" points="368.067,250.001 278.677,160.637 265.029,174.35 338.364,247.724 337.255,248.853 338.364,250.001&#10;&#9;&#9;263.825,324.531 278.677,339.363 &#9;" class="color c1"/>
    <polygon fill="#5dc33f" points="434.023,250.001 344.689,160.637 330.967,174.35 404.36,247.724 403.192,248.853 404.36,250.001&#10;&#9;&#9;329.8,324.531 344.689,339.363 &#9;" class="color c1"/>
    <polygon fill="#5dc33f" points="500,250.001 410.645,160.637 396.942,174.35 470.277,247.724 469.148,248.853 470.277,250.001&#10;&#9;&#9;395.795,324.531 410.645,339.363 &#9;" class="color c1"/>
  </g></g><g transform="translate(714.9999999999999,3.043906571428632)translate(26.49999999999991,26.491807714285624)rotate(0)translate(-26.49999999999991,-26.491807714285624) scale(0.10599999999999965,0.10599999999999965)" opacity="1"><defs class="defs"/><g>
    <polygon fill="#5dc33f" points="104.223,250.001 14.853,160.637 1.149,174.35 74.502,247.724 73.393,248.853 74.502,250.001&#10;&#9;&#9;0,324.531 14.853,339.363 &#9;" class="color c1"/>
    <polygon fill="#5dc33f" points="170.219,250.001 80.809,160.637 67.143,174.35 140.514,247.724 139.368,248.853 140.514,250.001&#10;&#9;&#9;65.975,324.531 80.809,339.363 &#9;" class="color c1"/>
    <polygon fill="#5dc33f" points="236.099,250.001 146.765,160.637 133.099,174.35 206.452,247.724 205.324,248.853 206.452,250.001&#10;&#9;&#9;131.913,324.531 146.765,339.363 &#9;" class="color c1"/>
    <polygon fill="#5dc33f" points="302.073,250.001 212.721,160.637 199.018,174.35 272.427,247.724 271.279,248.853 272.427,250.001&#10;&#9;&#9;197.869,324.531 212.721,339.363 &#9;" class="color c1"/>
    <polygon fill="#5dc33f" points="368.067,250.001 278.677,160.637 265.029,174.35 338.364,247.724 337.255,248.853 338.364,250.001&#10;&#9;&#9;263.825,324.531 278.677,339.363 &#9;" class="color c1"/>
    <polygon fill="#5dc33f" points="434.023,250.001 344.689,160.637 330.967,174.35 404.36,247.724 403.192,248.853 404.36,250.001&#10;&#9;&#9;329.8,324.531 344.689,339.363 &#9;" class="color c1"/>
    <polygon fill="#5dc33f" points="500,250.001 410.645,160.637 396.942,174.35 470.277,247.724 469.148,248.853 470.277,250.001&#10;&#9;&#9;395.795,324.531 410.645,339.363 &#9;" class="color c1"/>
  </g></g><g transform="translate(768,3.043906571428632)translate(26.49999999999991,26.491807714285624)rotate(0)translate(-26.49999999999991,-26.491807714285624) scale(0.10599999999999965,0.10599999999999965)" opacity="1"><defs class="defs"/><g>
    <polygon fill="#5dc33f" points="104.223,250.001 14.853,160.637 1.149,174.35 74.502,247.724 73.393,248.853 74.502,250.001&#10;&#9;&#9;0,324.531 14.853,339.363 &#9;" class="color c1"/>
    <polygon fill="#5dc33f" points="170.219,250.001 80.809,160.637 67.143,174.35 140.514,247.724 139.368,248.853 140.514,250.001&#10;&#9;&#9;65.975,324.531 80.809,339.363 &#9;" class="color c1"/>
    <polygon fill="#5dc33f" points="236.099,250.001 146.765,160.637 133.099,174.35 206.452,247.724 205.324,248.853 206.452,250.001&#10;&#9;&#9;131.913,324.531 146.765,339.363 &#9;" class="color c1"/>
    <polygon fill="#5dc33f" points="302.073,250.001 212.721,160.637 199.018,174.35 272.427,247.724 271.279,248.853 272.427,250.001&#10;&#9;&#9;197.869,324.531 212.721,339.363 &#9;" class="color c1"/>
    <polygon fill="#5dc33f" points="368.067,250.001 278.677,160.637 265.029,174.35 338.364,247.724 337.255,248.853 338.364,250.001&#10;&#9;&#9;263.825,324.531 278.677,339.363 &#9;" class="color c1"/>
    <polygon fill="#5dc33f" points="434.023,250.001 344.689,160.637 330.967,174.35 404.36,247.724 403.192,248.853 404.36,250.001&#10;&#9;&#9;329.8,324.531 344.689,339.363 &#9;" class="color c1"/>
    <polygon fill="#5dc33f" points="500,250.001 410.645,160.637 396.942,174.35 470.277,247.724 469.148,248.853 470.277,250.001&#10;&#9;&#9;395.795,324.531 410.645,339.363 &#9;" class="color c1"/>
  </g></g><g transform="translate(821.0000000000001,3.043906571428632)translate(26.49999999999991,26.491807714285624)rotate(0)translate(-26.49999999999991,-26.491807714285624) scale(0.10599999999999965,0.10599999999999965)" opacity="1"><defs class="defs"/><g>
    <polygon fill="#5dc33f" points="104.223,250.001 14.853,160.637 1.149,174.35 74.502,247.724 73.393,248.853 74.502,250.001&#10;&#9;&#9;0,324.531 14.853,339.363 &#9;" class="color c1"/>
    <polygon fill="#5dc33f" points="170.219,250.001 80.809,160.637 67.143,174.35 140.514,247.724 139.368,248.853 140.514,250.001&#10;&#9;&#9;65.975,324.531 80.809,339.363 &#9;" class="color c1"/>
    <polygon fill="#5dc33f" points="236.099,250.001 146.765,160.637 133.099,174.35 206.452,247.724 205.324,248.853 206.452,250.001&#10;&#9;&#9;131.913,324.531 146.765,339.363 &#9;" class="color c1"/>
    <polygon fill="#5dc33f" points="302.073,250.001 212.721,160.637 199.018,174.35 272.427,247.724 271.279,248.853 272.427,250.001&#10;&#9;&#9;197.869,324.531 212.721,339.363 &#9;" class="color c1"/>
    <polygon fill="#5dc33f" points="368.067,250.001 278.677,160.637 265.029,174.35 338.364,247.724 337.255,248.853 338.364,250.001&#10;&#9;&#9;263.825,324.531 278.677,339.363 &#9;" class="color c1"/>
    <polygon fill="#5dc33f" points="434.023,250.001 344.689,160.637 330.967,174.35 404.36,247.724 403.192,248.853 404.36,250.001&#10;&#9;&#9;329.8,324.531 344.689,339.363 &#9;" class="color c1"/>
    <polygon fill="#5dc33f" points="500,250.001 410.645,160.637 396.942,174.35 470.277,247.724 469.148,248.853 470.277,250.001&#10;&#9;&#9;395.795,324.531 410.645,339.363 &#9;" class="color c1"/>
  </g></g></svg>