<svg xmlns="http://www.w3.org/2000/svg" width="100" height="100" viewBox="0 0 100 100"><g transform="translate(14.856516976998508,21.81637429001793)translate(35.112814895940254,28.0902519167522)rotate(0)translate(-35.112814895940254,-28.0902519167522) scale(0.7392171557040054,0.7392171557040054)" opacity="1"><defs class="defs"><linearGradient id="linearGradient4b38ac5d50e9f445eddb8441307aae8b" class="linearGradient1" gradientTransform="translate(0.5,0.5) rotate(180) translate(-0.5,-0.5)" x1="50%" y1="0%" x2="50%" y2="100%"><stop id="stop1" offset="0%" class="linearGradientColor1" stop-color="#db00ff"/><stop id="stop2" offset="100%" class="linearGradientColor2" stop-color="#00924C"/></linearGradient></defs><path transform="translate(-2.5,-12)" d="M31,88v-9.5h9.5v9.5zM59.5,88v-9.5h9.5v9.5zM21.5,21.5v-9.5h9.5v9.5zM88,50v-9.5h-9.5v-9.5h-9.5v-9.5h-9.5v9.5h-19v-9.5h-9.5v9.5h-9.5v9.5h-9.5v9.5h-9.5v28.5h9.5v-9.5h9.5v9.5h9.5v-9.5h38v9.5h9.5v-9.5h9.5v9.5h9.5v-9.5v0v-19zM40.5,50h-9.5v-9.5h9.5zM69,50h-9.5v-9.5h9.5zM69,21.5v-9.5h9.5v9.5z" fill="url(#linearGradient4b38ac5d50e9f445eddb8441307aae8b)" class="fill c1"/></g></svg>