<svg xmlns="http://www.w3.org/2000/svg" width="300" height="100" viewBox="0 0 300 100"><g transform="translate(36.26897586222738,6.98155184148029)translate(113.62500762939453,44)rotate(0)translate(-113.62500762939453,-44)" opacity="1"><filter id="shadow_0" x="-44" y="-44" width="227.25001525878906" height="88"><feGaussianBlur stdDeviation="16.666666666666664"/><feOffset dx="1" dy="10"/></filter><path transform="translate(6,57.840976216502405)rotate(0)" d="M25.73-9.67L25.04 0L3.06 0L3.06-43.19L14.95-43.19L14.95-9.67L25.73-9.67ZM26.70-16.79L26.70-16.79L26.70-16.79Q26.70-25.94 30.22-30.04L30.22-30.04L30.22-30.04Q33.73-34.15 41.20-34.15L41.20-34.15L41.20-34.15Q48.68-34.15 52.09-30.11L52.09-30.11L52.09-30.11Q55.50-26.08 55.50-16.86L55.50-16.86L55.50-16.86Q55.50-7.65 52.16-3.48L52.16-3.48L52.16-3.48Q48.82 0.70 41.24 0.70L41.24 0.70L41.24 0.70Q33.66 0.70 30.18-3.48L30.18-3.48L30.18-3.48Q26.70-7.65 26.70-16.79ZM43.43-23.37L43.43-23.37L43.43-23.37Q42.98-24.76 41.17-24.76L41.17-24.76L41.17-24.76Q39.36-24.76 38.87-23.37L38.87-23.37L38.87-23.37Q38.39-21.98 38.39-17.52L38.39-17.52L38.39-15.86L38.39-15.86Q38.39-10.92 38.87-9.46L38.87-9.46L38.87-9.46Q39.36-8.00 41.13-8.00L41.13-8.00L41.13-8.00Q42.91-8.00 43.39-9.46L43.39-9.46L43.39-9.46Q43.88-10.92 43.88-15.44L43.88-15.44L43.88-17.46L43.88-17.46Q43.88-21.98 43.43-23.37ZM73.68-23.99L73.68-23.99L73.68-23.99Q71.63-23.99 70.93-22.15L70.93-22.15L70.93-22.15Q70.24-20.31 70.24-16.41L70.24-16.41L70.24-16.41Q70.24-12.52 70.90-10.78L70.90-10.78L70.90-10.78Q71.56-9.04 73.68-9.04L73.68-9.04L73.68-9.04Q75.80-9.04 79.21-9.81L79.21-9.81L80.46-0.90L80.46-0.90Q75.66 0.70 71.91 0.70L71.91 0.70L71.91 0.70Q65.30 0.70 61.93-3.76L61.93-3.76L61.93-3.76Q58.56-8.21 58.56-16.20L58.56-16.20L58.56-16.20Q58.56-24.20 62.03-29.17L62.03-29.17L62.03-29.17Q65.51-34.15 72.12-34.15L72.12-34.15L72.12-34.15Q77.05-34.15 81.02-32.48L81.02-32.48L79.77-22.25L79.77-22.25Q75.73-23.99 73.68-23.99ZM108.21-24.62L108.21-24.62L107.86-10.22L107.86-10.22Q107.86-8.90 108.52-8.45L108.52-8.45L108.52-8.45Q109.18-8.00 110.78-8.00L110.78-8.00L109.74 0.42L109.74 0.42Q105.71 0.70 105.29 0.70L105.29 0.70L105.29 0.70Q100.14 0.70 98.75-2.85L98.75-2.85L98.40-2.85L98.40-2.85Q95.83 0.70 90.48 0.70L90.48 0.70L90.48 0.70Q86.37 0.70 84.18-1.95L84.18-1.95L84.18-1.95Q81.99-4.59 81.99-9.18L81.99-9.18L81.99-9.18Q81.99-14.95 85.57-17.18L85.57-17.18L85.57-17.18Q89.15-19.40 96.87-20.10L96.87-20.10L96.87-21.77L96.87-21.77Q96.87-23.71 94.93-23.71L94.93-23.71L94.93-23.71Q91.59-23.71 84.49-21.70L84.49-21.70L82.76-31.85L82.76-31.85Q91.66-34.15 97.57-34.15L97.57-34.15L97.57-34.15Q103.48-34.15 105.84-31.85L105.84-31.85L105.84-31.85Q108.21-29.56 108.21-24.62ZM94.79-7.44L94.79-7.44L94.79-7.44Q97.36-7.44 97.36-10.15L97.36-10.15L97.36-13.56L97.36-13.56Q94.79-13.21 93.71-12.48L93.71-12.48L93.71-12.48Q92.63-11.75 92.63-10.01L92.63-10.01L92.63-10.01Q92.63-7.44 94.79-7.44ZM132.55-9.18L132.20 0.07L132.20 0.07Q127.05 0.70 123.26 0.70L123.26 0.70L123.26 0.70Q119.47 0.70 117.35-1.29L117.35-1.29L117.35-1.29Q115.23-3.27 115.23-8.14L115.23-8.14L115.23-24.27L111.89-24.27L111.89-32.89L115.79-32.89L116.41-39.29L126.92-39.29L126.92-32.89L133.11-32.89L132.62-24.27L126.85-24.27L126.85-10.43L126.85-10.43Q126.85-8.97 128.24-8.97L128.24-8.97L128.24-8.97Q128.38-8.97 132.55-9.18L132.55-9.18ZM147.22-32.96L147.22 0L135.75 0L135.75-32.96L147.22-32.96ZM136.65-35.61L136.65-35.61L136.65-35.61Q135.19-36.86 135.19-39.64L135.19-39.64L135.19-39.64Q135.19-42.42 136.65-43.74L136.65-43.74L136.65-43.74Q138.11-45.06 141.45-45.06L141.45-45.06L141.45-45.06Q144.79-45.06 146.25-43.74L146.25-43.74L146.25-43.74Q147.71-42.42 147.71-39.67L147.71-39.67L147.71-39.67Q147.71-36.93 146.25-35.64L146.25-35.64L146.25-35.64Q144.79-34.35 141.45-34.35L141.45-34.35L141.45-34.35Q138.11-34.35 136.65-35.61ZM151.05-16.79L151.05-16.79L151.05-16.79Q151.05-25.94 154.56-30.04L154.56-30.04L154.56-30.04Q158.07-34.15 165.55-34.15L165.55-34.15L165.55-34.15Q173.02-34.15 176.43-30.11L176.43-30.11L176.43-30.11Q179.84-26.08 179.84-16.86L179.84-16.86L179.84-16.86Q179.84-7.65 176.50-3.48L176.50-3.48L176.50-3.48Q173.16 0.70 165.58 0.70L165.58 0.70L165.58 0.70Q158.00 0.70 154.52-3.48L154.52-3.48L154.52-3.48Q151.05-7.65 151.05-16.79ZM167.77-23.37L167.77-23.37L167.77-23.37Q167.32-24.76 165.51-24.76L165.51-24.76L165.51-24.76Q163.70-24.76 163.22-23.37L163.22-23.37L163.22-23.37Q162.73-21.98 162.73-17.52L162.73-17.52L162.73-15.86L162.73-15.86Q162.73-10.92 163.22-9.46L163.22-9.46L163.22-9.46Q163.70-8.00 165.48-8.00L165.48-8.00L165.48-8.00Q167.25-8.00 167.74-9.46L167.74-9.46L167.74-9.46Q168.22-10.92 168.22-15.44L168.22-15.44L168.22-17.46L168.22-17.46Q168.22-21.98 167.77-23.37ZM194.79-30.88L195.07-30.88L195.07-30.88Q198.89-34.15 203.48-34.15L203.48-34.15L203.48-34.15Q208.07-34.15 209.92-32.02L209.92-32.02L209.92-32.02Q211.76-29.90 211.76-25.66L211.76-25.66L211.76 0L199.94 0L199.94-21.70L199.94-21.70Q199.94-23.44 198.41-23.44L198.41-23.44L198.41-23.44Q196.46-23.44 195.14-22.46L195.14-22.46L195.14 0L183.45 0L183.45-33.31L194.09-33.31L194.79-30.88Z" fill="#9522ff" stroke="#9522ff" stroke-width="14" stroke-linejoin="round" stroke-miterlimit="2" opacity="1" style="filter:url(#shadow_0)"/><path transform="translate(6,57.840976216502405)rotate(0)" d="M25.73-9.67L25.04 0L3.06 0L3.06-43.19L14.95-43.19L14.95-9.67L25.73-9.67ZM26.70-16.79L26.70-16.79L26.70-16.79Q26.70-25.94 30.22-30.04L30.22-30.04L30.22-30.04Q33.73-34.15 41.20-34.15L41.20-34.15L41.20-34.15Q48.68-34.15 52.09-30.11L52.09-30.11L52.09-30.11Q55.50-26.08 55.50-16.86L55.50-16.86L55.50-16.86Q55.50-7.65 52.16-3.48L52.16-3.48L52.16-3.48Q48.82 0.70 41.24 0.70L41.24 0.70L41.24 0.70Q33.66 0.70 30.18-3.48L30.18-3.48L30.18-3.48Q26.70-7.65 26.70-16.79ZM43.43-23.37L43.43-23.37L43.43-23.37Q42.98-24.76 41.17-24.76L41.17-24.76L41.17-24.76Q39.36-24.76 38.87-23.37L38.87-23.37L38.87-23.37Q38.39-21.98 38.39-17.52L38.39-17.52L38.39-15.86L38.39-15.86Q38.39-10.92 38.87-9.46L38.87-9.46L38.87-9.46Q39.36-8.00 41.13-8.00L41.13-8.00L41.13-8.00Q42.91-8.00 43.39-9.46L43.39-9.46L43.39-9.46Q43.88-10.92 43.88-15.44L43.88-15.44L43.88-17.46L43.88-17.46Q43.88-21.98 43.43-23.37ZM73.68-23.99L73.68-23.99L73.68-23.99Q71.63-23.99 70.93-22.15L70.93-22.15L70.93-22.15Q70.24-20.31 70.24-16.41L70.24-16.41L70.24-16.41Q70.24-12.52 70.90-10.78L70.90-10.78L70.90-10.78Q71.56-9.04 73.68-9.04L73.68-9.04L73.68-9.04Q75.80-9.04 79.21-9.81L79.21-9.81L80.46-0.90L80.46-0.90Q75.66 0.70 71.91 0.70L71.91 0.70L71.91 0.70Q65.30 0.70 61.93-3.76L61.93-3.76L61.93-3.76Q58.56-8.21 58.56-16.20L58.56-16.20L58.56-16.20Q58.56-24.20 62.03-29.17L62.03-29.17L62.03-29.17Q65.51-34.15 72.12-34.15L72.12-34.15L72.12-34.15Q77.05-34.15 81.02-32.48L81.02-32.48L79.77-22.25L79.77-22.25Q75.73-23.99 73.68-23.99ZM108.21-24.62L108.21-24.62L107.86-10.22L107.86-10.22Q107.86-8.90 108.52-8.45L108.52-8.45L108.52-8.45Q109.18-8.00 110.78-8.00L110.78-8.00L109.74 0.42L109.74 0.42Q105.71 0.70 105.29 0.70L105.29 0.70L105.29 0.70Q100.14 0.70 98.75-2.85L98.75-2.85L98.40-2.85L98.40-2.85Q95.83 0.70 90.48 0.70L90.48 0.70L90.48 0.70Q86.37 0.70 84.18-1.95L84.18-1.95L84.18-1.95Q81.99-4.59 81.99-9.18L81.99-9.18L81.99-9.18Q81.99-14.95 85.57-17.18L85.57-17.18L85.57-17.18Q89.15-19.40 96.87-20.10L96.87-20.10L96.87-21.77L96.87-21.77Q96.87-23.71 94.93-23.71L94.93-23.71L94.93-23.71Q91.59-23.71 84.49-21.70L84.49-21.70L82.76-31.85L82.76-31.85Q91.66-34.15 97.57-34.15L97.57-34.15L97.57-34.15Q103.48-34.15 105.84-31.85L105.84-31.85L105.84-31.85Q108.21-29.56 108.21-24.62ZM94.79-7.44L94.79-7.44L94.79-7.44Q97.36-7.44 97.36-10.15L97.36-10.15L97.36-13.56L97.36-13.56Q94.79-13.21 93.71-12.48L93.71-12.48L93.71-12.48Q92.63-11.75 92.63-10.01L92.63-10.01L92.63-10.01Q92.63-7.44 94.79-7.44ZM132.55-9.18L132.20 0.07L132.20 0.07Q127.05 0.70 123.26 0.70L123.26 0.70L123.26 0.70Q119.47 0.70 117.35-1.29L117.35-1.29L117.35-1.29Q115.23-3.27 115.23-8.14L115.23-8.14L115.23-24.27L111.89-24.27L111.89-32.89L115.79-32.89L116.41-39.29L126.92-39.29L126.92-32.89L133.11-32.89L132.62-24.27L126.85-24.27L126.85-10.43L126.85-10.43Q126.85-8.97 128.24-8.97L128.24-8.97L128.24-8.97Q128.38-8.97 132.55-9.18L132.55-9.18ZM147.22-32.96L147.22 0L135.75 0L135.75-32.96L147.22-32.96ZM136.65-35.61L136.65-35.61L136.65-35.61Q135.19-36.86 135.19-39.64L135.19-39.64L135.19-39.64Q135.19-42.42 136.65-43.74L136.65-43.74L136.65-43.74Q138.11-45.06 141.45-45.06L141.45-45.06L141.45-45.06Q144.79-45.06 146.25-43.74L146.25-43.74L146.25-43.74Q147.71-42.42 147.71-39.67L147.71-39.67L147.71-39.67Q147.71-36.93 146.25-35.64L146.25-35.64L146.25-35.64Q144.79-34.35 141.45-34.35L141.45-34.35L141.45-34.35Q138.11-34.35 136.65-35.61ZM151.05-16.79L151.05-16.79L151.05-16.79Q151.05-25.94 154.56-30.04L154.56-30.04L154.56-30.04Q158.07-34.15 165.55-34.15L165.55-34.15L165.55-34.15Q173.02-34.15 176.43-30.11L176.43-30.11L176.43-30.11Q179.84-26.08 179.84-16.86L179.84-16.86L179.84-16.86Q179.84-7.65 176.50-3.48L176.50-3.48L176.50-3.48Q173.16 0.70 165.58 0.70L165.58 0.70L165.58 0.70Q158.00 0.70 154.52-3.48L154.52-3.48L154.52-3.48Q151.05-7.65 151.05-16.79ZM167.77-23.37L167.77-23.37L167.77-23.37Q167.32-24.76 165.51-24.76L165.51-24.76L165.51-24.76Q163.70-24.76 163.22-23.37L163.22-23.37L163.22-23.37Q162.73-21.98 162.73-17.52L162.73-17.52L162.73-15.86L162.73-15.86Q162.73-10.92 163.22-9.46L163.22-9.46L163.22-9.46Q163.70-8.00 165.48-8.00L165.48-8.00L165.48-8.00Q167.25-8.00 167.74-9.46L167.74-9.46L167.74-9.46Q168.22-10.92 168.22-15.44L168.22-15.44L168.22-17.46L168.22-17.46Q168.22-21.98 167.77-23.37ZM194.79-30.88L195.07-30.88L195.07-30.88Q198.89-34.15 203.48-34.15L203.48-34.15L203.48-34.15Q208.07-34.15 209.92-32.02L209.92-32.02L209.92-32.02Q211.76-29.90 211.76-25.66L211.76-25.66L211.76 0L199.94 0L199.94-21.70L199.94-21.70Q199.94-23.44 198.41-23.44L198.41-23.44L198.41-23.44Q196.46-23.44 195.14-22.46L195.14-22.46L195.14 0L183.45 0L183.45-33.31L194.09-33.31L194.79-30.88Z" fill="none" stroke="#222826" stroke-width="14" stroke-linejoin="round" stroke-miterlimit="2"/><path transform="translate(6,57.840976216502405)rotate(0)" d="M25.73-9.67L25.04 0L3.06 0L3.06-43.19L14.95-43.19L14.95-9.67L25.73-9.67ZM26.70-16.79L26.70-16.79L26.70-16.79Q26.70-25.94 30.22-30.04L30.22-30.04L30.22-30.04Q33.73-34.15 41.20-34.15L41.20-34.15L41.20-34.15Q48.68-34.15 52.09-30.11L52.09-30.11L52.09-30.11Q55.50-26.08 55.50-16.86L55.50-16.86L55.50-16.86Q55.50-7.65 52.16-3.48L52.16-3.48L52.16-3.48Q48.82 0.70 41.24 0.70L41.24 0.70L41.24 0.70Q33.66 0.70 30.18-3.48L30.18-3.48L30.18-3.48Q26.70-7.65 26.70-16.79ZM43.43-23.37L43.43-23.37L43.43-23.37Q42.98-24.76 41.17-24.76L41.17-24.76L41.17-24.76Q39.36-24.76 38.87-23.37L38.87-23.37L38.87-23.37Q38.39-21.98 38.39-17.52L38.39-17.52L38.39-15.86L38.39-15.86Q38.39-10.92 38.87-9.46L38.87-9.46L38.87-9.46Q39.36-8.00 41.13-8.00L41.13-8.00L41.13-8.00Q42.91-8.00 43.39-9.46L43.39-9.46L43.39-9.46Q43.88-10.92 43.88-15.44L43.88-15.44L43.88-17.46L43.88-17.46Q43.88-21.98 43.43-23.37ZM73.68-23.99L73.68-23.99L73.68-23.99Q71.63-23.99 70.93-22.15L70.93-22.15L70.93-22.15Q70.24-20.31 70.24-16.41L70.24-16.41L70.24-16.41Q70.24-12.52 70.90-10.78L70.90-10.78L70.90-10.78Q71.56-9.04 73.68-9.04L73.68-9.04L73.68-9.04Q75.80-9.04 79.21-9.81L79.21-9.81L80.46-0.90L80.46-0.90Q75.66 0.70 71.91 0.70L71.91 0.70L71.91 0.70Q65.30 0.70 61.93-3.76L61.93-3.76L61.93-3.76Q58.56-8.21 58.56-16.20L58.56-16.20L58.56-16.20Q58.56-24.20 62.03-29.17L62.03-29.17L62.03-29.17Q65.51-34.15 72.12-34.15L72.12-34.15L72.12-34.15Q77.05-34.15 81.02-32.48L81.02-32.48L79.77-22.25L79.77-22.25Q75.73-23.99 73.68-23.99ZM108.21-24.62L108.21-24.62L107.86-10.22L107.86-10.22Q107.86-8.90 108.52-8.45L108.52-8.45L108.52-8.45Q109.18-8.00 110.78-8.00L110.78-8.00L109.74 0.42L109.74 0.42Q105.71 0.70 105.29 0.70L105.29 0.70L105.29 0.70Q100.14 0.70 98.75-2.85L98.75-2.85L98.40-2.85L98.40-2.85Q95.83 0.70 90.48 0.70L90.48 0.70L90.48 0.70Q86.37 0.70 84.18-1.95L84.18-1.95L84.18-1.95Q81.99-4.59 81.99-9.18L81.99-9.18L81.99-9.18Q81.99-14.95 85.57-17.18L85.57-17.18L85.57-17.18Q89.15-19.40 96.87-20.10L96.87-20.10L96.87-21.77L96.87-21.77Q96.87-23.71 94.93-23.71L94.93-23.71L94.93-23.71Q91.59-23.71 84.49-21.70L84.49-21.70L82.76-31.85L82.76-31.85Q91.66-34.15 97.57-34.15L97.57-34.15L97.57-34.15Q103.48-34.15 105.84-31.85L105.84-31.85L105.84-31.85Q108.21-29.56 108.21-24.62ZM94.79-7.44L94.79-7.44L94.79-7.44Q97.36-7.44 97.36-10.15L97.36-10.15L97.36-13.56L97.36-13.56Q94.79-13.21 93.71-12.48L93.71-12.48L93.71-12.48Q92.63-11.75 92.63-10.01L92.63-10.01L92.63-10.01Q92.63-7.44 94.79-7.44ZM132.55-9.18L132.20 0.07L132.20 0.07Q127.05 0.70 123.26 0.70L123.26 0.70L123.26 0.70Q119.47 0.70 117.35-1.29L117.35-1.29L117.35-1.29Q115.23-3.27 115.23-8.14L115.23-8.14L115.23-24.27L111.89-24.27L111.89-32.89L115.79-32.89L116.41-39.29L126.92-39.29L126.92-32.89L133.11-32.89L132.62-24.27L126.85-24.27L126.85-10.43L126.85-10.43Q126.85-8.97 128.24-8.97L128.24-8.97L128.24-8.97Q128.38-8.97 132.55-9.18L132.55-9.18ZM147.22-32.96L147.22 0L135.75 0L135.75-32.96L147.22-32.96ZM136.65-35.61L136.65-35.61L136.65-35.61Q135.19-36.86 135.19-39.64L135.19-39.64L135.19-39.64Q135.19-42.42 136.65-43.74L136.65-43.74L136.65-43.74Q138.11-45.06 141.45-45.06L141.45-45.06L141.45-45.06Q144.79-45.06 146.25-43.74L146.25-43.74L146.25-43.74Q147.71-42.42 147.71-39.67L147.71-39.67L147.71-39.67Q147.71-36.93 146.25-35.64L146.25-35.64L146.25-35.64Q144.79-34.35 141.45-34.35L141.45-34.35L141.45-34.35Q138.11-34.35 136.65-35.61ZM151.05-16.79L151.05-16.79L151.05-16.79Q151.05-25.94 154.56-30.04L154.56-30.04L154.56-30.04Q158.07-34.15 165.55-34.15L165.55-34.15L165.55-34.15Q173.02-34.15 176.43-30.11L176.43-30.11L176.43-30.11Q179.84-26.08 179.84-16.86L179.84-16.86L179.84-16.86Q179.84-7.65 176.50-3.48L176.50-3.48L176.50-3.48Q173.16 0.70 165.58 0.70L165.58 0.70L165.58 0.70Q158.00 0.70 154.52-3.48L154.52-3.48L154.52-3.48Q151.05-7.65 151.05-16.79ZM167.77-23.37L167.77-23.37L167.77-23.37Q167.32-24.76 165.51-24.76L165.51-24.76L165.51-24.76Q163.70-24.76 163.22-23.37L163.22-23.37L163.22-23.37Q162.73-21.98 162.73-17.52L162.73-17.52L162.73-15.86L162.73-15.86Q162.73-10.92 163.22-9.46L163.22-9.46L163.22-9.46Q163.70-8.00 165.48-8.00L165.48-8.00L165.48-8.00Q167.25-8.00 167.74-9.46L167.74-9.46L167.74-9.46Q168.22-10.92 168.22-15.44L168.22-15.44L168.22-17.46L168.22-17.46Q168.22-21.98 167.77-23.37ZM194.79-30.88L195.07-30.88L195.07-30.88Q198.89-34.15 203.48-34.15L203.48-34.15L203.48-34.15Q208.07-34.15 209.92-32.02L209.92-32.02L209.92-32.02Q211.76-29.90 211.76-25.66L211.76-25.66L211.76 0L199.94 0L199.94-21.70L199.94-21.70Q199.94-23.44 198.41-23.44L198.41-23.44L198.41-23.44Q196.46-23.44 195.14-22.46L195.14-22.46L195.14 0L183.45 0L183.45-33.31L194.09-33.31L194.79-30.88Z" fill="#cdcdcd"/></g></svg>