<svg xmlns="http://www.w3.org/2000/svg" width="280" height="150" viewBox="0 0 280 150"><rect x="0" y="0" width="280" height="150" fill="#000000"/><g transform="translate(23.504916426242204,36.511228112161554)translate(116.7119903564453,30)rotate(0)translate(-116.7119903564453,-30)" opacity="1"><filter id="shadow_0" x="-30" y="-30" width="233.4239807128906" height="60"><feGaussianBlur stdDeviation="0"/><feOffset dx="5" dy="2"/></filter><path transform="translate(6,39.048)rotate(0)" d="M17.76-6.67L17.28 0L2.11 0L2.11-29.81L10.32-29.81L10.32-6.67L17.76-6.67ZM28.13-29.81L28.13 0L19.97 0L19.97-29.81L28.13-29.81ZM52.08-28.75L50.78-20.93L50.78-20.93Q46.18-22.32 44.04-22.32L44.04-22.32L44.04-22.32Q41.90-22.32 41.11-20.45L41.11-20.45L41.11-20.45Q40.32-18.58 40.32-14.52L40.32-14.52L40.32-14.52Q40.32-10.46 41.06-8.62L41.06-8.62L41.06-8.62Q41.81-6.77 44.11-6.77L44.11-6.77L44.11-6.77Q44.78-6.77 46.70-7.15L46.70-7.15L46.70-10.80L44.54-10.80L44.54-16.46L53.71-16.46L53.71 0L48.05 0L47.28-1.54L47.09-1.54L47.09-1.54Q46.27-0.86 45.79-0.53L45.79-0.53L45.79-0.53Q44.45 0.48 42 0.48L42 0.48L42 0.48Q31.97 0.48 31.97-14.69L31.97-14.69L31.97-14.69Q31.97-22.27 34.61-26.28L34.61-26.28L34.61-26.28Q37.25-30.29 43.49-30.29L43.49-30.29L43.49-30.29Q48.48-30.29 52.08-28.75L52.08-28.75ZM79.78-29.81L79.78 0L71.62 0L71.62-11.28L66-11.28L66 0L57.74 0L57.74-29.81L66-29.81L66-18.10L71.62-18.10L71.62-29.81L79.78-29.81ZM101.62-29.81L101.14-22.56L95.57-22.56L95.57 0L87.36 0L87.36-22.56L81.46-22.56L81.94-29.81L101.62-29.81ZM135.31-29.81L135.31 0L127.44 0L121.25-13.87L120.86-13.87L120.86 0L113.57 0L113.57-29.81L121.68-29.81L127.58-15.50L127.97-15.50L127.97-29.81L135.31-29.81ZM148.18-29.81L148.18 0L140.02 0L140.02-29.81L148.18-29.81ZM172.13-28.75L170.83-20.93L170.83-20.93Q166.22-22.32 164.09-22.32L164.09-22.32L164.09-22.32Q161.95-22.32 161.16-20.45L161.16-20.45L161.16-20.45Q160.37-18.58 160.37-14.52L160.37-14.52L160.37-14.52Q160.37-10.46 161.11-8.62L161.11-8.62L161.11-8.62Q161.86-6.77 164.16-6.77L164.16-6.77L164.16-6.77Q164.83-6.77 166.75-7.15L166.75-7.15L166.75-10.80L164.59-10.80L164.59-16.46L173.76-16.46L173.76 0L168.10 0L167.33-1.54L167.14-1.54L167.14-1.54Q166.32-0.86 165.84-0.53L165.84-0.53L165.84-0.53Q164.50 0.48 162.05 0.48L162.05 0.48L162.05 0.48Q152.02 0.48 152.02-14.69L152.02-14.69L152.02-14.69Q152.02-22.27 154.66-26.28L154.66-26.28L154.66-26.28Q157.30-30.29 163.54-30.29L163.54-30.29L163.54-30.29Q168.53-30.29 172.13-28.75L172.13-28.75ZM199.82-29.81L199.82 0L191.66 0L191.66-11.28L186.05-11.28L186.05 0L177.79 0L177.79-29.81L186.05-29.81L186.05-18.10L191.66-18.10L191.66-29.81L199.82-29.81ZM221.66-29.81L221.18-22.56L215.62-22.56L215.62 0L207.41 0L207.41-22.56L201.50-22.56L201.98-29.81L221.66-29.81Z" fill="#bdbfbf" stroke="#bdbfbf" stroke-width="10" stroke-linejoin="round" stroke-miterlimit="2" opacity="1" style="filter:url(#shadow_0)"/><path transform="translate(6,39.048)rotate(0)" d="M17.76-6.67L17.28 0L2.11 0L2.11-29.81L10.32-29.81L10.32-6.67L17.76-6.67ZM28.13-29.81L28.13 0L19.97 0L19.97-29.81L28.13-29.81ZM52.08-28.75L50.78-20.93L50.78-20.93Q46.18-22.32 44.04-22.32L44.04-22.32L44.04-22.32Q41.90-22.32 41.11-20.45L41.11-20.45L41.11-20.45Q40.32-18.58 40.32-14.52L40.32-14.52L40.32-14.52Q40.32-10.46 41.06-8.62L41.06-8.62L41.06-8.62Q41.81-6.77 44.11-6.77L44.11-6.77L44.11-6.77Q44.78-6.77 46.70-7.15L46.70-7.15L46.70-10.80L44.54-10.80L44.54-16.46L53.71-16.46L53.71 0L48.05 0L47.28-1.54L47.09-1.54L47.09-1.54Q46.27-0.86 45.79-0.53L45.79-0.53L45.79-0.53Q44.45 0.48 42 0.48L42 0.48L42 0.48Q31.97 0.48 31.97-14.69L31.97-14.69L31.97-14.69Q31.97-22.27 34.61-26.28L34.61-26.28L34.61-26.28Q37.25-30.29 43.49-30.29L43.49-30.29L43.49-30.29Q48.48-30.29 52.08-28.75L52.08-28.75ZM79.78-29.81L79.78 0L71.62 0L71.62-11.28L66-11.28L66 0L57.74 0L57.74-29.81L66-29.81L66-18.10L71.62-18.10L71.62-29.81L79.78-29.81ZM101.62-29.81L101.14-22.56L95.57-22.56L95.57 0L87.36 0L87.36-22.56L81.46-22.56L81.94-29.81L101.62-29.81ZM135.31-29.81L135.31 0L127.44 0L121.25-13.87L120.86-13.87L120.86 0L113.57 0L113.57-29.81L121.68-29.81L127.58-15.50L127.97-15.50L127.97-29.81L135.31-29.81ZM148.18-29.81L148.18 0L140.02 0L140.02-29.81L148.18-29.81ZM172.13-28.75L170.83-20.93L170.83-20.93Q166.22-22.32 164.09-22.32L164.09-22.32L164.09-22.32Q161.95-22.32 161.16-20.45L161.16-20.45L161.16-20.45Q160.37-18.58 160.37-14.52L160.37-14.52L160.37-14.52Q160.37-10.46 161.11-8.62L161.11-8.62L161.11-8.62Q161.86-6.77 164.16-6.77L164.16-6.77L164.16-6.77Q164.83-6.77 166.75-7.15L166.75-7.15L166.75-10.80L164.59-10.80L164.59-16.46L173.76-16.46L173.76 0L168.10 0L167.33-1.54L167.14-1.54L167.14-1.54Q166.32-0.86 165.84-0.53L165.84-0.53L165.84-0.53Q164.50 0.48 162.05 0.48L162.05 0.48L162.05 0.48Q152.02 0.48 152.02-14.69L152.02-14.69L152.02-14.69Q152.02-22.27 154.66-26.28L154.66-26.28L154.66-26.28Q157.30-30.29 163.54-30.29L163.54-30.29L163.54-30.29Q168.53-30.29 172.13-28.75L172.13-28.75ZM199.82-29.81L199.82 0L191.66 0L191.66-11.28L186.05-11.28L186.05 0L177.79 0L177.79-29.81L186.05-29.81L186.05-18.10L191.66-18.10L191.66-29.81L199.82-29.81ZM221.66-29.81L221.18-22.56L215.62-22.56L215.62 0L207.41 0L207.41-22.56L201.50-22.56L201.98-29.81L221.66-29.81Z" fill="none" stroke="#ffffff" stroke-width="10" stroke-linejoin="round" stroke-miterlimit="2"/><path transform="translate(6,39.048)rotate(0)" d="M17.76-6.67L17.28 0L2.11 0L2.11-29.81L10.32-29.81L10.32-6.67L17.76-6.67ZM28.13-29.81L28.13 0L19.97 0L19.97-29.81L28.13-29.81ZM52.08-28.75L50.78-20.93L50.78-20.93Q46.18-22.32 44.04-22.32L44.04-22.32L44.04-22.32Q41.90-22.32 41.11-20.45L41.11-20.45L41.11-20.45Q40.32-18.58 40.32-14.52L40.32-14.52L40.32-14.52Q40.32-10.46 41.06-8.62L41.06-8.62L41.06-8.62Q41.81-6.77 44.11-6.77L44.11-6.77L44.11-6.77Q44.78-6.77 46.70-7.15L46.70-7.15L46.70-10.80L44.54-10.80L44.54-16.46L53.71-16.46L53.71 0L48.05 0L47.28-1.54L47.09-1.54L47.09-1.54Q46.27-0.86 45.79-0.53L45.79-0.53L45.79-0.53Q44.45 0.48 42 0.48L42 0.48L42 0.48Q31.97 0.48 31.97-14.69L31.97-14.69L31.97-14.69Q31.97-22.27 34.61-26.28L34.61-26.28L34.61-26.28Q37.25-30.29 43.49-30.29L43.49-30.29L43.49-30.29Q48.48-30.29 52.08-28.75L52.08-28.75ZM79.78-29.81L79.78 0L71.62 0L71.62-11.28L66-11.28L66 0L57.74 0L57.74-29.81L66-29.81L66-18.10L71.62-18.10L71.62-29.81L79.78-29.81ZM101.62-29.81L101.14-22.56L95.57-22.56L95.57 0L87.36 0L87.36-22.56L81.46-22.56L81.94-29.81L101.62-29.81ZM135.31-29.81L135.31 0L127.44 0L121.25-13.87L120.86-13.87L120.86 0L113.57 0L113.57-29.81L121.68-29.81L127.58-15.50L127.97-15.50L127.97-29.81L135.31-29.81ZM148.18-29.81L148.18 0L140.02 0L140.02-29.81L148.18-29.81ZM172.13-28.75L170.83-20.93L170.83-20.93Q166.22-22.32 164.09-22.32L164.09-22.32L164.09-22.32Q161.95-22.32 161.16-20.45L161.16-20.45L161.16-20.45Q160.37-18.58 160.37-14.52L160.37-14.52L160.37-14.52Q160.37-10.46 161.11-8.62L161.11-8.62L161.11-8.62Q161.86-6.77 164.16-6.77L164.16-6.77L164.16-6.77Q164.83-6.77 166.75-7.15L166.75-7.15L166.75-10.80L164.59-10.80L164.59-16.46L173.76-16.46L173.76 0L168.10 0L167.33-1.54L167.14-1.54L167.14-1.54Q166.32-0.86 165.84-0.53L165.84-0.53L165.84-0.53Q164.50 0.48 162.05 0.48L162.05 0.48L162.05 0.48Q152.02 0.48 152.02-14.69L152.02-14.69L152.02-14.69Q152.02-22.27 154.66-26.28L154.66-26.28L154.66-26.28Q157.30-30.29 163.54-30.29L163.54-30.29L163.54-30.29Q168.53-30.29 172.13-28.75L172.13-28.75ZM199.82-29.81L199.82 0L191.66 0L191.66-11.28L186.05-11.28L186.05 0L177.79 0L177.79-29.81L186.05-29.81L186.05-18.10L191.66-18.10L191.66-29.81L199.82-29.81ZM221.66-29.81L221.18-22.56L215.62-22.56L215.62 0L207.41 0L207.41-22.56L201.50-22.56L201.98-29.81L221.66-29.81Z" fill="#000000"/></g><g transform="translate(170.32204217400638,88.94768856447726)translate(43.22000122070312,12.499999999999996)rotate(0)translate(-43.22000122070312,-12.499999999999996)" opacity="1"><filter id="shadow_1" x="-12.5" y="-12.5" width="86.44000244140624" height="24.999999999999993"><feGaussianBlur stdDeviation="0"/><feOffset dx="2" dy="1"/></filter><path transform="translate(6,16.02)rotate(0)" d="M0.32-8.68L0.32-8.68Q0.32-10.46 1.36-11.54L1.36-11.54L1.36-11.54Q2.40-12.62 4.21-12.62L4.21-12.62L4.21-12.62Q6.02-12.62 7.92-12.26L7.92-12.26L7.52-9.06L7.52-9.06Q5.54-9.52 4.80-9.52L4.80-9.52L4.80-9.52Q3.86-9.52 3.86-8.76L3.86-8.76L3.86-8.76Q3.86-8.46 4.31-8.18L4.31-8.18L4.31-8.18Q4.76-7.90 5.40-7.59L5.40-7.59L5.40-7.59Q6.04-7.28 6.68-6.85L6.68-6.85L6.68-6.85Q7.32-6.42 7.77-5.62L7.77-5.62L7.77-5.62Q8.22-4.82 8.22-3.78L8.22-3.78L8.22-3.78Q8.22-1.88 7.20-0.84L7.20-0.84L7.20-0.84Q6.18 0.20 4.31 0.20L4.31 0.20L4.31 0.20Q2.44 0.20 0.66-0.38L0.66-0.38L0.88-3.36L0.88-3.36Q3.02-2.74 3.86-2.74L3.86-2.74L3.86-2.74Q4.70-2.74 4.70-3.48L4.70-3.48L4.70-3.48Q4.70-3.86 4.25-4.18L4.25-4.18L4.25-4.18Q3.80-4.50 3.16-4.82L3.16-4.82L3.16-4.82Q2.52-5.14 1.87-5.56L1.87-5.56L1.87-5.56Q1.22-5.98 0.77-6.78L0.77-6.78L0.77-6.78Q0.32-7.58 0.32-8.68L0.32-8.68ZM20.84-12.42L20.64-9.40L18.32-9.40L18.32 0L14.90 0L14.90-9.40L12.44-9.40L12.64-12.42L20.84-12.42ZM29.12-4.08L29.12-4.08Q29.12-3.46 29.38-3.16L29.38-3.16L29.38-3.16Q29.64-2.86 30.23-2.86L30.23-2.86L30.23-2.86Q30.82-2.86 31.05-3.15L31.05-3.15L31.05-3.15Q31.28-3.44 31.28-4.10L31.28-4.10L31.28-12.42L34.72-12.42L34.72-3.90L34.72-3.90Q34.72-1.76 33.55-0.78L33.55-0.78L33.55-0.78Q32.38 0.20 30.11 0.20L30.11 0.20L30.11 0.20Q27.84 0.20 26.73-0.77L26.73-0.77L26.73-0.77Q25.62-1.74 25.62-3.86L25.62-3.86L25.62-12.42L29.12-12.42L29.12-4.08ZM49.72-6.48L49.72-6.48L49.72-6.48Q49.72 0 44.60 0L44.60 0L40.48 0L40.48-12.42L44.68-12.42L44.68-12.42Q47.42-12.42 48.57-10.89L48.57-10.89L48.57-10.89Q49.72-9.36 49.72-6.48ZM44.54-2.88L44.54-2.88Q45.60-2.88 45.91-3.63L45.91-3.63L45.91-3.63Q46.22-4.38 46.22-6.15L46.22-6.15L46.22-6.15Q46.22-7.92 45.89-8.66L45.89-8.66L45.89-8.66Q45.56-9.40 44.48-9.40L44.48-9.40L43.88-9.40L43.88-2.88L44.54-2.88ZM58.60-12.42L58.60 0L55.20 0L55.20-12.42L58.60-12.42ZM65.31-11.12L65.31-11.12L65.31-11.12Q66.46-12.62 69.08-12.62L69.08-12.62L69.08-12.62Q71.70-12.62 72.83-11.14L72.83-11.14L72.83-11.14Q73.96-9.66 73.96-6.33L73.96-6.33L73.96-6.33Q73.96-3 72.80-1.40L72.80-1.40L72.80-1.40Q71.64 0.20 69.04 0.20L69.04 0.20L69.04 0.20Q66.44 0.20 65.30-1.38L65.30-1.38L65.30-1.38Q64.16-2.96 64.16-6.29L64.16-6.29L64.16-6.29Q64.16-9.62 65.31-11.12ZM70.52-6.32L70.52-6.32Q70.52-8.16 70.23-8.81L70.23-8.81L70.23-8.81Q69.94-9.46 69.05-9.46L69.05-9.46L69.05-9.46Q68.16-9.46 67.90-8.81L67.90-8.81L67.90-8.81Q67.64-8.16 67.64-6.34L67.64-6.34L67.64-5.86L67.64-5.86Q67.64-3.92 67.93-3.31L67.93-3.31L67.93-3.31Q68.22-2.70 69.11-2.70L69.11-2.70L69.11-2.70Q70-2.70 70.26-3.28L70.26-3.28L70.26-3.28Q70.52-3.86 70.52-5.68L70.52-5.68L70.52-6.32Z" fill="#bdbfbf" stroke="#bdbfbf" stroke-width="4" stroke-linejoin="round" stroke-miterlimit="2" opacity="1" style="filter:url(#shadow_1)"/><path transform="translate(6,16.02)rotate(0)" d="M0.32-8.68L0.32-8.68Q0.32-10.46 1.36-11.54L1.36-11.54L1.36-11.54Q2.40-12.62 4.21-12.62L4.21-12.62L4.21-12.62Q6.02-12.62 7.92-12.26L7.92-12.26L7.52-9.06L7.52-9.06Q5.54-9.52 4.80-9.52L4.80-9.52L4.80-9.52Q3.86-9.52 3.86-8.76L3.86-8.76L3.86-8.76Q3.86-8.46 4.31-8.18L4.31-8.18L4.31-8.18Q4.76-7.90 5.40-7.59L5.40-7.59L5.40-7.59Q6.04-7.28 6.68-6.85L6.68-6.85L6.68-6.85Q7.32-6.42 7.77-5.62L7.77-5.62L7.77-5.62Q8.22-4.82 8.22-3.78L8.22-3.78L8.22-3.78Q8.22-1.88 7.20-0.84L7.20-0.84L7.20-0.84Q6.18 0.20 4.31 0.20L4.31 0.20L4.31 0.20Q2.44 0.20 0.66-0.38L0.66-0.38L0.88-3.36L0.88-3.36Q3.02-2.74 3.86-2.74L3.86-2.74L3.86-2.74Q4.70-2.74 4.70-3.48L4.70-3.48L4.70-3.48Q4.70-3.86 4.25-4.18L4.25-4.18L4.25-4.18Q3.80-4.50 3.16-4.82L3.16-4.82L3.16-4.82Q2.52-5.14 1.87-5.56L1.87-5.56L1.87-5.56Q1.22-5.98 0.77-6.78L0.77-6.78L0.77-6.78Q0.32-7.58 0.32-8.68L0.32-8.68ZM20.84-12.42L20.64-9.40L18.32-9.40L18.32 0L14.90 0L14.90-9.40L12.44-9.40L12.64-12.42L20.84-12.42ZM29.12-4.08L29.12-4.08Q29.12-3.46 29.38-3.16L29.38-3.16L29.38-3.16Q29.64-2.86 30.23-2.86L30.23-2.86L30.23-2.86Q30.82-2.86 31.05-3.15L31.05-3.15L31.05-3.15Q31.28-3.44 31.28-4.10L31.28-4.10L31.28-12.42L34.72-12.42L34.72-3.90L34.72-3.90Q34.72-1.76 33.55-0.78L33.55-0.78L33.55-0.78Q32.38 0.20 30.11 0.20L30.11 0.20L30.11 0.20Q27.84 0.20 26.73-0.77L26.73-0.77L26.73-0.77Q25.62-1.74 25.62-3.86L25.62-3.86L25.62-12.42L29.12-12.42L29.12-4.08ZM49.72-6.48L49.72-6.48L49.72-6.48Q49.72 0 44.60 0L44.60 0L40.48 0L40.48-12.42L44.68-12.42L44.68-12.42Q47.42-12.42 48.57-10.89L48.57-10.89L48.57-10.89Q49.72-9.36 49.72-6.48ZM44.54-2.88L44.54-2.88Q45.60-2.88 45.91-3.63L45.91-3.63L45.91-3.63Q46.22-4.38 46.22-6.15L46.22-6.15L46.22-6.15Q46.22-7.92 45.89-8.66L45.89-8.66L45.89-8.66Q45.56-9.40 44.48-9.40L44.48-9.40L43.88-9.40L43.88-2.88L44.54-2.88ZM58.60-12.42L58.60 0L55.20 0L55.20-12.42L58.60-12.42ZM65.31-11.12L65.31-11.12L65.31-11.12Q66.46-12.62 69.08-12.62L69.08-12.62L69.08-12.62Q71.70-12.62 72.83-11.14L72.83-11.14L72.83-11.14Q73.96-9.66 73.96-6.33L73.96-6.33L73.96-6.33Q73.96-3 72.80-1.40L72.80-1.40L72.80-1.40Q71.64 0.20 69.04 0.20L69.04 0.20L69.04 0.20Q66.44 0.20 65.30-1.38L65.30-1.38L65.30-1.38Q64.16-2.96 64.16-6.29L64.16-6.29L64.16-6.29Q64.16-9.62 65.31-11.12ZM70.52-6.32L70.52-6.32Q70.52-8.16 70.23-8.81L70.23-8.81L70.23-8.81Q69.94-9.46 69.05-9.46L69.05-9.46L69.05-9.46Q68.16-9.46 67.90-8.81L67.90-8.81L67.90-8.81Q67.64-8.16 67.64-6.34L67.64-6.34L67.64-5.86L67.64-5.86Q67.64-3.92 67.93-3.31L67.93-3.31L67.93-3.31Q68.22-2.70 69.11-2.70L69.11-2.70L69.11-2.70Q70-2.70 70.26-3.28L70.26-3.28L70.26-3.28Q70.52-3.86 70.52-5.68L70.52-5.68L70.52-6.32Z" fill="none" stroke="#ffffff" stroke-width="4" stroke-linejoin="round" stroke-miterlimit="2"/><path transform="translate(6,16.02)rotate(0)" d="M0.32-8.68L0.32-8.68Q0.32-10.46 1.36-11.54L1.36-11.54L1.36-11.54Q2.40-12.62 4.21-12.62L4.21-12.62L4.21-12.62Q6.02-12.62 7.92-12.26L7.92-12.26L7.52-9.06L7.52-9.06Q5.54-9.52 4.80-9.52L4.80-9.52L4.80-9.52Q3.86-9.52 3.86-8.76L3.86-8.76L3.86-8.76Q3.86-8.46 4.31-8.18L4.31-8.18L4.31-8.18Q4.76-7.90 5.40-7.59L5.40-7.59L5.40-7.59Q6.04-7.28 6.68-6.85L6.68-6.85L6.68-6.85Q7.32-6.42 7.77-5.62L7.77-5.62L7.77-5.62Q8.22-4.82 8.22-3.78L8.22-3.78L8.22-3.78Q8.22-1.88 7.20-0.84L7.20-0.84L7.20-0.84Q6.18 0.20 4.31 0.20L4.31 0.20L4.31 0.20Q2.44 0.20 0.66-0.38L0.66-0.38L0.88-3.36L0.88-3.36Q3.02-2.74 3.86-2.74L3.86-2.74L3.86-2.74Q4.70-2.74 4.70-3.48L4.70-3.48L4.70-3.48Q4.70-3.86 4.25-4.18L4.25-4.18L4.25-4.18Q3.80-4.50 3.16-4.82L3.16-4.82L3.16-4.82Q2.52-5.14 1.87-5.56L1.87-5.56L1.87-5.56Q1.22-5.98 0.77-6.78L0.77-6.78L0.77-6.78Q0.32-7.58 0.32-8.68L0.32-8.68ZM20.84-12.42L20.64-9.40L18.32-9.40L18.32 0L14.90 0L14.90-9.40L12.44-9.40L12.64-12.42L20.84-12.42ZM29.12-4.08L29.12-4.08Q29.12-3.46 29.38-3.16L29.38-3.16L29.38-3.16Q29.64-2.86 30.23-2.86L30.23-2.86L30.23-2.86Q30.82-2.86 31.05-3.15L31.05-3.15L31.05-3.15Q31.28-3.44 31.28-4.10L31.28-4.10L31.28-12.42L34.72-12.42L34.72-3.90L34.72-3.90Q34.72-1.76 33.55-0.78L33.55-0.78L33.55-0.78Q32.38 0.20 30.11 0.20L30.11 0.20L30.11 0.20Q27.84 0.20 26.73-0.77L26.73-0.77L26.73-0.77Q25.62-1.74 25.62-3.86L25.62-3.86L25.62-12.42L29.12-12.42L29.12-4.08ZM49.72-6.48L49.72-6.48L49.72-6.48Q49.72 0 44.60 0L44.60 0L40.48 0L40.48-12.42L44.68-12.42L44.68-12.42Q47.42-12.42 48.57-10.89L48.57-10.89L48.57-10.89Q49.72-9.36 49.72-6.48ZM44.54-2.88L44.54-2.88Q45.60-2.88 45.91-3.63L45.91-3.63L45.91-3.63Q46.22-4.38 46.22-6.15L46.22-6.15L46.22-6.15Q46.22-7.92 45.89-8.66L45.89-8.66L45.89-8.66Q45.56-9.40 44.48-9.40L44.48-9.40L43.88-9.40L43.88-2.88L44.54-2.88ZM58.60-12.42L58.60 0L55.20 0L55.20-12.42L58.60-12.42ZM65.31-11.12L65.31-11.12L65.31-11.12Q66.46-12.62 69.08-12.62L69.08-12.62L69.08-12.62Q71.70-12.62 72.83-11.14L72.83-11.14L72.83-11.14Q73.96-9.66 73.96-6.33L73.96-6.33L73.96-6.33Q73.96-3 72.80-1.40L72.80-1.40L72.80-1.40Q71.64 0.20 69.04 0.20L69.04 0.20L69.04 0.20Q66.44 0.20 65.30-1.38L65.30-1.38L65.30-1.38Q64.16-2.96 64.16-6.29L64.16-6.29L64.16-6.29Q64.16-9.62 65.31-11.12ZM70.52-6.32L70.52-6.32Q70.52-8.16 70.23-8.81L70.23-8.81L70.23-8.81Q69.94-9.46 69.05-9.46L69.05-9.46L69.05-9.46Q68.16-9.46 67.90-8.81L67.90-8.81L67.90-8.81Q67.64-8.16 67.64-6.34L67.64-6.34L67.64-5.86L67.64-5.86Q67.64-3.92 67.93-3.31L67.93-3.31L67.93-3.31Q68.22-2.70 69.11-2.70L69.11-2.70L69.11-2.70Q70-2.70 70.26-3.28L70.26-3.28L70.26-3.28Q70.52-3.86 70.52-5.68L70.52-5.68L70.52-6.32Z" fill="#000000"/></g></svg>