<svg xmlns="http://www.w3.org/2000/svg" width="150" height="150" viewBox="0 0 150 150"><g transform="translate(14.836383190258303,19.032950481798807)translate(60.262345679012356,55.780022446689124)rotate(0)translate(-60.262345679012356,-55.780022446689124) scale(0.9944691724743159,0.9944691724743159)" opacity="0.8"><defs class="defs"><linearGradient id="linearGradient444edfbc16157582fab94e245e502036" class="linearGradient1" gradientTransform="translate(0.5,0.5) rotate(270) translate(-0.5,-0.5)" x1="50%" y1="0%" x2="50%" y2="100%"><stop id="stop1" offset="0%" class="linearGradientColor1" stop-color="#41ff00"/><stop id="stop2" offset="100%" class="linearGradientColor2" stop-color="#00924C"/></linearGradient><linearGradient id="linearGradientb6a216fdf4b4c7c3a182e1ce7593a67e" class="linearGradient2" gradientTransform="translate(0.5,0.5) rotate(180) translate(-0.5,-0.5)" x1="50%" y1="0%" x2="50%" y2="100%"><stop id="stop1" offset="0%" class="linearGradientColor1" stop-color="#db00ff"/><stop id="stop2" offset="100%" class="linearGradientColor2" stop-color="#00924C"/></linearGradient></defs><g>
    <path fill="url(#linearGradient444edfbc16157582fab94e245e502036)" d="M33.732,10.212L2.274,2.462l6.453,43.243C13.957,35.625,23.564,15.295,33.732,10.212z" class="color c1"/>
    <path fill="url(#linearGradient444edfbc16157582fab94e245e502036)" d="M106.602,47.58L118.708,0L84.205,11.558C94.079,17.169,101.904,37.162,106.602,47.58z" class="color c1"/>
    <path fill="url(#linearGradientb6a216fdf4b4c7c3a182e1ce7593a67e)" d="M118.708,0l-12.016,36.232c-4.697-10.418-12.613-19.063-22.488-24.675&#10;&#9;&#9;c-7.82-4.444-16.857-6.995-26.494-6.995c-8.62,0-16.759,2.042-23.978,5.649c-10.168,5.083-18.494,13.293-23.724,23.373L2.274,2.462&#10;&#9;&#9;c0,0-6.312,34.844,2.095,49.53c-0.241,2.064-0.378,4.161-0.378,6.29c0,29.669,24.051,53.72,53.72,53.72&#10;&#9;&#9;c29.668,0,53.719-24.051,53.719-53.72c0-0.269-0.016-0.533-0.02-0.801C127.729,37.33,118.708,0,118.708,0z" class="color c2"/>
    <ellipse fill="#FFFFFF" cx="80.07" cy="56.795" rx="19.59" ry="27.789" class="color c3"/>
    <ellipse fill="#FFFFFF" cx="35.591" cy="57.291" rx="19.341" ry="27.438" class="color c3"/>
    <ellipse fill="url(#linearGradientb6a216fdf4b4c7c3a182e1ce7593a67e)" cx="76.653" cy="56.264" rx="10.554" ry="17.994" class="color c2"/>
    <ellipse fill="url(#linearGradientb6a216fdf4b4c7c3a182e1ce7593a67e)" cx="42.113" cy="57.966" rx="10.42" ry="17.768" class="color c2"/>
  </g></g></svg>