<svg xmlns="http://www.w3.org/2000/svg" width="260" height="260" viewBox="0 0 260 260"><g transform="translate(13.330053038264026,174.41013521598717)translate(116.71199035644531,29.999999999999996)rotate(0)translate(-116.71199035644531,-29.999999999999996)" opacity="1"><filter id="shadow_0" x="-30" y="-30" width="233.42398071289062" height="59.99999999999999"><feGaussianBlur stdDeviation="0"/><feOffset dx="5" dy="2"/></filter><path transform="translate(6,39.048)rotate(0)" d="M17.76-6.67L17.28 0L2.11 0L2.11-29.81L10.32-29.81L10.32-6.67L17.76-6.67ZM28.13-29.81L28.13 0L19.97 0L19.97-29.81L28.13-29.81ZM52.08-28.75L50.78-20.93L50.78-20.93Q46.18-22.32 44.04-22.32L44.04-22.32L44.04-22.32Q41.90-22.32 41.11-20.45L41.11-20.45L41.11-20.45Q40.32-18.58 40.32-14.52L40.32-14.52L40.32-14.52Q40.32-10.46 41.06-8.62L41.06-8.62L41.06-8.62Q41.81-6.77 44.11-6.77L44.11-6.77L44.11-6.77Q44.78-6.77 46.70-7.15L46.70-7.15L46.70-10.80L44.54-10.80L44.54-16.46L53.71-16.46L53.71 0L48.05 0L47.28-1.54L47.09-1.54L47.09-1.54Q46.27-0.86 45.79-0.53L45.79-0.53L45.79-0.53Q44.45 0.48 42 0.48L42 0.48L42 0.48Q31.97 0.48 31.97-14.69L31.97-14.69L31.97-14.69Q31.97-22.27 34.61-26.28L34.61-26.28L34.61-26.28Q37.25-30.29 43.49-30.29L43.49-30.29L43.49-30.29Q48.48-30.29 52.08-28.75L52.08-28.75ZM79.78-29.81L79.78 0L71.62 0L71.62-11.28L66-11.28L66 0L57.74 0L57.74-29.81L66-29.81L66-18.10L71.62-18.10L71.62-29.81L79.78-29.81ZM101.62-29.81L101.14-22.56L95.57-22.56L95.57 0L87.36 0L87.36-22.56L81.46-22.56L81.94-29.81L101.62-29.81ZM135.31-29.81L135.31 0L127.44 0L121.25-13.87L120.86-13.87L120.86 0L113.57 0L113.57-29.81L121.68-29.81L127.58-15.50L127.97-15.50L127.97-29.81L135.31-29.81ZM148.18-29.81L148.18 0L140.02 0L140.02-29.81L148.18-29.81ZM172.13-28.75L170.83-20.93L170.83-20.93Q166.22-22.32 164.09-22.32L164.09-22.32L164.09-22.32Q161.95-22.32 161.16-20.45L161.16-20.45L161.16-20.45Q160.37-18.58 160.37-14.52L160.37-14.52L160.37-14.52Q160.37-10.46 161.11-8.62L161.11-8.62L161.11-8.62Q161.86-6.77 164.16-6.77L164.16-6.77L164.16-6.77Q164.83-6.77 166.75-7.15L166.75-7.15L166.75-10.80L164.59-10.80L164.59-16.46L173.76-16.46L173.76 0L168.10 0L167.33-1.54L167.14-1.54L167.14-1.54Q166.32-0.86 165.84-0.53L165.84-0.53L165.84-0.53Q164.50 0.48 162.05 0.48L162.05 0.48L162.05 0.48Q152.02 0.48 152.02-14.69L152.02-14.69L152.02-14.69Q152.02-22.27 154.66-26.28L154.66-26.28L154.66-26.28Q157.30-30.29 163.54-30.29L163.54-30.29L163.54-30.29Q168.53-30.29 172.13-28.75L172.13-28.75ZM199.82-29.81L199.82 0L191.66 0L191.66-11.28L186.05-11.28L186.05 0L177.79 0L177.79-29.81L186.05-29.81L186.05-18.10L191.66-18.10L191.66-29.81L199.82-29.81ZM221.66-29.81L221.18-22.56L215.62-22.56L215.62 0L207.41 0L207.41-22.56L201.50-22.56L201.98-29.81L221.66-29.81Z" fill="#bdbfbf" stroke="#bdbfbf" stroke-width="10" stroke-linejoin="round" stroke-miterlimit="2" opacity="1" style="filter:url(#shadow_0)"/><path transform="translate(6,39.048)rotate(0)" d="M17.76-6.67L17.28 0L2.11 0L2.11-29.81L10.32-29.81L10.32-6.67L17.76-6.67ZM28.13-29.81L28.13 0L19.97 0L19.97-29.81L28.13-29.81ZM52.08-28.75L50.78-20.93L50.78-20.93Q46.18-22.32 44.04-22.32L44.04-22.32L44.04-22.32Q41.90-22.32 41.11-20.45L41.11-20.45L41.11-20.45Q40.32-18.58 40.32-14.52L40.32-14.52L40.32-14.52Q40.32-10.46 41.06-8.62L41.06-8.62L41.06-8.62Q41.81-6.77 44.11-6.77L44.11-6.77L44.11-6.77Q44.78-6.77 46.70-7.15L46.70-7.15L46.70-10.80L44.54-10.80L44.54-16.46L53.71-16.46L53.71 0L48.05 0L47.28-1.54L47.09-1.54L47.09-1.54Q46.27-0.86 45.79-0.53L45.79-0.53L45.79-0.53Q44.45 0.48 42 0.48L42 0.48L42 0.48Q31.97 0.48 31.97-14.69L31.97-14.69L31.97-14.69Q31.97-22.27 34.61-26.28L34.61-26.28L34.61-26.28Q37.25-30.29 43.49-30.29L43.49-30.29L43.49-30.29Q48.48-30.29 52.08-28.75L52.08-28.75ZM79.78-29.81L79.78 0L71.62 0L71.62-11.28L66-11.28L66 0L57.74 0L57.74-29.81L66-29.81L66-18.10L71.62-18.10L71.62-29.81L79.78-29.81ZM101.62-29.81L101.14-22.56L95.57-22.56L95.57 0L87.36 0L87.36-22.56L81.46-22.56L81.94-29.81L101.62-29.81ZM135.31-29.81L135.31 0L127.44 0L121.25-13.87L120.86-13.87L120.86 0L113.57 0L113.57-29.81L121.68-29.81L127.58-15.50L127.97-15.50L127.97-29.81L135.31-29.81ZM148.18-29.81L148.18 0L140.02 0L140.02-29.81L148.18-29.81ZM172.13-28.75L170.83-20.93L170.83-20.93Q166.22-22.32 164.09-22.32L164.09-22.32L164.09-22.32Q161.95-22.32 161.16-20.45L161.16-20.45L161.16-20.45Q160.37-18.58 160.37-14.52L160.37-14.52L160.37-14.52Q160.37-10.46 161.11-8.62L161.11-8.62L161.11-8.62Q161.86-6.77 164.16-6.77L164.16-6.77L164.16-6.77Q164.83-6.77 166.75-7.15L166.75-7.15L166.75-10.80L164.59-10.80L164.59-16.46L173.76-16.46L173.76 0L168.10 0L167.33-1.54L167.14-1.54L167.14-1.54Q166.32-0.86 165.84-0.53L165.84-0.53L165.84-0.53Q164.50 0.48 162.05 0.48L162.05 0.48L162.05 0.48Q152.02 0.48 152.02-14.69L152.02-14.69L152.02-14.69Q152.02-22.27 154.66-26.28L154.66-26.28L154.66-26.28Q157.30-30.29 163.54-30.29L163.54-30.29L163.54-30.29Q168.53-30.29 172.13-28.75L172.13-28.75ZM199.82-29.81L199.82 0L191.66 0L191.66-11.28L186.05-11.28L186.05 0L177.79 0L177.79-29.81L186.05-29.81L186.05-18.10L191.66-18.10L191.66-29.81L199.82-29.81ZM221.66-29.81L221.18-22.56L215.62-22.56L215.62 0L207.41 0L207.41-22.56L201.50-22.56L201.98-29.81L221.66-29.81Z" fill="none" stroke="#222826" stroke-width="10" stroke-linejoin="round" stroke-miterlimit="2"/><path transform="translate(6,39.048)rotate(0)" d="M17.76-6.67L17.28 0L2.11 0L2.11-29.81L10.32-29.81L10.32-6.67L17.76-6.67ZM28.13-29.81L28.13 0L19.97 0L19.97-29.81L28.13-29.81ZM52.08-28.75L50.78-20.93L50.78-20.93Q46.18-22.32 44.04-22.32L44.04-22.32L44.04-22.32Q41.90-22.32 41.11-20.45L41.11-20.45L41.11-20.45Q40.32-18.58 40.32-14.52L40.32-14.52L40.32-14.52Q40.32-10.46 41.06-8.62L41.06-8.62L41.06-8.62Q41.81-6.77 44.11-6.77L44.11-6.77L44.11-6.77Q44.78-6.77 46.70-7.15L46.70-7.15L46.70-10.80L44.54-10.80L44.54-16.46L53.71-16.46L53.71 0L48.05 0L47.28-1.54L47.09-1.54L47.09-1.54Q46.27-0.86 45.79-0.53L45.79-0.53L45.79-0.53Q44.45 0.48 42 0.48L42 0.48L42 0.48Q31.97 0.48 31.97-14.69L31.97-14.69L31.97-14.69Q31.97-22.27 34.61-26.28L34.61-26.28L34.61-26.28Q37.25-30.29 43.49-30.29L43.49-30.29L43.49-30.29Q48.48-30.29 52.08-28.75L52.08-28.75ZM79.78-29.81L79.78 0L71.62 0L71.62-11.28L66-11.28L66 0L57.74 0L57.74-29.81L66-29.81L66-18.10L71.62-18.10L71.62-29.81L79.78-29.81ZM101.62-29.81L101.14-22.56L95.57-22.56L95.57 0L87.36 0L87.36-22.56L81.46-22.56L81.94-29.81L101.62-29.81ZM135.31-29.81L135.31 0L127.44 0L121.25-13.87L120.86-13.87L120.86 0L113.57 0L113.57-29.81L121.68-29.81L127.58-15.50L127.97-15.50L127.97-29.81L135.31-29.81ZM148.18-29.81L148.18 0L140.02 0L140.02-29.81L148.18-29.81ZM172.13-28.75L170.83-20.93L170.83-20.93Q166.22-22.32 164.09-22.32L164.09-22.32L164.09-22.32Q161.95-22.32 161.16-20.45L161.16-20.45L161.16-20.45Q160.37-18.58 160.37-14.52L160.37-14.52L160.37-14.52Q160.37-10.46 161.11-8.62L161.11-8.62L161.11-8.62Q161.86-6.77 164.16-6.77L164.16-6.77L164.16-6.77Q164.83-6.77 166.75-7.15L166.75-7.15L166.75-10.80L164.59-10.80L164.59-16.46L173.76-16.46L173.76 0L168.10 0L167.33-1.54L167.14-1.54L167.14-1.54Q166.32-0.86 165.84-0.53L165.84-0.53L165.84-0.53Q164.50 0.48 162.05 0.48L162.05 0.48L162.05 0.48Q152.02 0.48 152.02-14.69L152.02-14.69L152.02-14.69Q152.02-22.27 154.66-26.28L154.66-26.28L154.66-26.28Q157.30-30.29 163.54-30.29L163.54-30.29L163.54-30.29Q168.53-30.29 172.13-28.75L172.13-28.75ZM199.82-29.81L199.82 0L191.66 0L191.66-11.28L186.05-11.28L186.05 0L177.79 0L177.79-29.81L186.05-29.81L186.05-18.10L191.66-18.10L191.66-29.81L199.82-29.81ZM221.66-29.81L221.18-22.56L215.62-22.56L215.62 0L207.41 0L207.41-22.56L201.50-22.56L201.98-29.81L221.66-29.81Z" fill="#f9fcf7"/></g><g transform="translate(160.32204217400653,229.19359020382177)translate(43.22000122070312,12.499999999999996)rotate(0)translate(-43.22000122070312,-12.499999999999996)" opacity="1"><filter id="shadow_1" x="-12.5" y="-12.5" width="86.44000244140624" height="24.999999999999993"><feGaussianBlur stdDeviation="0"/><feOffset dx="2" dy="1"/></filter><path transform="translate(6,16.02)rotate(0)" d="M0.32-8.68L0.32-8.68Q0.32-10.46 1.36-11.54L1.36-11.54L1.36-11.54Q2.40-12.62 4.21-12.62L4.21-12.62L4.21-12.62Q6.02-12.62 7.92-12.26L7.92-12.26L7.52-9.06L7.52-9.06Q5.54-9.52 4.80-9.52L4.80-9.52L4.80-9.52Q3.86-9.52 3.86-8.76L3.86-8.76L3.86-8.76Q3.86-8.46 4.31-8.18L4.31-8.18L4.31-8.18Q4.76-7.90 5.40-7.59L5.40-7.59L5.40-7.59Q6.04-7.28 6.68-6.85L6.68-6.85L6.68-6.85Q7.32-6.42 7.77-5.62L7.77-5.62L7.77-5.62Q8.22-4.82 8.22-3.78L8.22-3.78L8.22-3.78Q8.22-1.88 7.20-0.84L7.20-0.84L7.20-0.84Q6.18 0.20 4.31 0.20L4.31 0.20L4.31 0.20Q2.44 0.20 0.66-0.38L0.66-0.38L0.88-3.36L0.88-3.36Q3.02-2.74 3.86-2.74L3.86-2.74L3.86-2.74Q4.70-2.74 4.70-3.48L4.70-3.48L4.70-3.48Q4.70-3.86 4.25-4.18L4.25-4.18L4.25-4.18Q3.80-4.50 3.16-4.82L3.16-4.82L3.16-4.82Q2.52-5.14 1.87-5.56L1.87-5.56L1.87-5.56Q1.22-5.98 0.77-6.78L0.77-6.78L0.77-6.78Q0.32-7.58 0.32-8.68L0.32-8.68ZM20.84-12.42L20.64-9.40L18.32-9.40L18.32 0L14.90 0L14.90-9.40L12.44-9.40L12.64-12.42L20.84-12.42ZM29.12-4.08L29.12-4.08Q29.12-3.46 29.38-3.16L29.38-3.16L29.38-3.16Q29.64-2.86 30.23-2.86L30.23-2.86L30.23-2.86Q30.82-2.86 31.05-3.15L31.05-3.15L31.05-3.15Q31.28-3.44 31.28-4.10L31.28-4.10L31.28-12.42L34.72-12.42L34.72-3.90L34.72-3.90Q34.72-1.76 33.55-0.78L33.55-0.78L33.55-0.78Q32.38 0.20 30.11 0.20L30.11 0.20L30.11 0.20Q27.84 0.20 26.73-0.77L26.73-0.77L26.73-0.77Q25.62-1.74 25.62-3.86L25.62-3.86L25.62-12.42L29.12-12.42L29.12-4.08ZM49.72-6.48L49.72-6.48L49.72-6.48Q49.72 0 44.60 0L44.60 0L40.48 0L40.48-12.42L44.68-12.42L44.68-12.42Q47.42-12.42 48.57-10.89L48.57-10.89L48.57-10.89Q49.72-9.36 49.72-6.48ZM44.54-2.88L44.54-2.88Q45.60-2.88 45.91-3.63L45.91-3.63L45.91-3.63Q46.22-4.38 46.22-6.15L46.22-6.15L46.22-6.15Q46.22-7.92 45.89-8.66L45.89-8.66L45.89-8.66Q45.56-9.40 44.48-9.40L44.48-9.40L43.88-9.40L43.88-2.88L44.54-2.88ZM58.60-12.42L58.60 0L55.20 0L55.20-12.42L58.60-12.42ZM65.31-11.12L65.31-11.12L65.31-11.12Q66.46-12.62 69.08-12.62L69.08-12.62L69.08-12.62Q71.70-12.62 72.83-11.14L72.83-11.14L72.83-11.14Q73.96-9.66 73.96-6.33L73.96-6.33L73.96-6.33Q73.96-3 72.80-1.40L72.80-1.40L72.80-1.40Q71.64 0.20 69.04 0.20L69.04 0.20L69.04 0.20Q66.44 0.20 65.30-1.38L65.30-1.38L65.30-1.38Q64.16-2.96 64.16-6.29L64.16-6.29L64.16-6.29Q64.16-9.62 65.31-11.12ZM70.52-6.32L70.52-6.32Q70.52-8.16 70.23-8.81L70.23-8.81L70.23-8.81Q69.94-9.46 69.05-9.46L69.05-9.46L69.05-9.46Q68.16-9.46 67.90-8.81L67.90-8.81L67.90-8.81Q67.64-8.16 67.64-6.34L67.64-6.34L67.64-5.86L67.64-5.86Q67.64-3.92 67.93-3.31L67.93-3.31L67.93-3.31Q68.22-2.70 69.11-2.70L69.11-2.70L69.11-2.70Q70-2.70 70.26-3.28L70.26-3.28L70.26-3.28Q70.52-3.86 70.52-5.68L70.52-5.68L70.52-6.32Z" fill="#bdbfbf" stroke="#bdbfbf" stroke-width="4" stroke-linejoin="round" stroke-miterlimit="2" opacity="1" style="filter:url(#shadow_1)"/><path transform="translate(6,16.02)rotate(0)" d="M0.32-8.68L0.32-8.68Q0.32-10.46 1.36-11.54L1.36-11.54L1.36-11.54Q2.40-12.62 4.21-12.62L4.21-12.62L4.21-12.62Q6.02-12.62 7.92-12.26L7.92-12.26L7.52-9.06L7.52-9.06Q5.54-9.52 4.80-9.52L4.80-9.52L4.80-9.52Q3.86-9.52 3.86-8.76L3.86-8.76L3.86-8.76Q3.86-8.46 4.31-8.18L4.31-8.18L4.31-8.18Q4.76-7.90 5.40-7.59L5.40-7.59L5.40-7.59Q6.04-7.28 6.68-6.85L6.68-6.85L6.68-6.85Q7.32-6.42 7.77-5.62L7.77-5.62L7.77-5.62Q8.22-4.82 8.22-3.78L8.22-3.78L8.22-3.78Q8.22-1.88 7.20-0.84L7.20-0.84L7.20-0.84Q6.18 0.20 4.31 0.20L4.31 0.20L4.31 0.20Q2.44 0.20 0.66-0.38L0.66-0.38L0.88-3.36L0.88-3.36Q3.02-2.74 3.86-2.74L3.86-2.74L3.86-2.74Q4.70-2.74 4.70-3.48L4.70-3.48L4.70-3.48Q4.70-3.86 4.25-4.18L4.25-4.18L4.25-4.18Q3.80-4.50 3.16-4.82L3.16-4.82L3.16-4.82Q2.52-5.14 1.87-5.56L1.87-5.56L1.87-5.56Q1.22-5.98 0.77-6.78L0.77-6.78L0.77-6.78Q0.32-7.58 0.32-8.68L0.32-8.68ZM20.84-12.42L20.64-9.40L18.32-9.40L18.32 0L14.90 0L14.90-9.40L12.44-9.40L12.64-12.42L20.84-12.42ZM29.12-4.08L29.12-4.08Q29.12-3.46 29.38-3.16L29.38-3.16L29.38-3.16Q29.64-2.86 30.23-2.86L30.23-2.86L30.23-2.86Q30.82-2.86 31.05-3.15L31.05-3.15L31.05-3.15Q31.28-3.44 31.28-4.10L31.28-4.10L31.28-12.42L34.72-12.42L34.72-3.90L34.72-3.90Q34.72-1.76 33.55-0.78L33.55-0.78L33.55-0.78Q32.38 0.20 30.11 0.20L30.11 0.20L30.11 0.20Q27.84 0.20 26.73-0.77L26.73-0.77L26.73-0.77Q25.62-1.74 25.62-3.86L25.62-3.86L25.62-12.42L29.12-12.42L29.12-4.08ZM49.72-6.48L49.72-6.48L49.72-6.48Q49.72 0 44.60 0L44.60 0L40.48 0L40.48-12.42L44.68-12.42L44.68-12.42Q47.42-12.42 48.57-10.89L48.57-10.89L48.57-10.89Q49.72-9.36 49.72-6.48ZM44.54-2.88L44.54-2.88Q45.60-2.88 45.91-3.63L45.91-3.63L45.91-3.63Q46.22-4.38 46.22-6.15L46.22-6.15L46.22-6.15Q46.22-7.92 45.89-8.66L45.89-8.66L45.89-8.66Q45.56-9.40 44.48-9.40L44.48-9.40L43.88-9.40L43.88-2.88L44.54-2.88ZM58.60-12.42L58.60 0L55.20 0L55.20-12.42L58.60-12.42ZM65.31-11.12L65.31-11.12L65.31-11.12Q66.46-12.62 69.08-12.62L69.08-12.62L69.08-12.62Q71.70-12.62 72.83-11.14L72.83-11.14L72.83-11.14Q73.96-9.66 73.96-6.33L73.96-6.33L73.96-6.33Q73.96-3 72.80-1.40L72.80-1.40L72.80-1.40Q71.64 0.20 69.04 0.20L69.04 0.20L69.04 0.20Q66.44 0.20 65.30-1.38L65.30-1.38L65.30-1.38Q64.16-2.96 64.16-6.29L64.16-6.29L64.16-6.29Q64.16-9.62 65.31-11.12ZM70.52-6.32L70.52-6.32Q70.52-8.16 70.23-8.81L70.23-8.81L70.23-8.81Q69.94-9.46 69.05-9.46L69.05-9.46L69.05-9.46Q68.16-9.46 67.90-8.81L67.90-8.81L67.90-8.81Q67.64-8.16 67.64-6.34L67.64-6.34L67.64-5.86L67.64-5.86Q67.64-3.92 67.93-3.31L67.93-3.31L67.93-3.31Q68.22-2.70 69.11-2.70L69.11-2.70L69.11-2.70Q70-2.70 70.26-3.28L70.26-3.28L70.26-3.28Q70.52-3.86 70.52-5.68L70.52-5.68L70.52-6.32Z" fill="none" stroke="#222826" stroke-width="4" stroke-linejoin="round" stroke-miterlimit="2"/><path transform="translate(6,16.02)rotate(0)" d="M0.32-8.68L0.32-8.68Q0.32-10.46 1.36-11.54L1.36-11.54L1.36-11.54Q2.40-12.62 4.21-12.62L4.21-12.62L4.21-12.62Q6.02-12.62 7.92-12.26L7.92-12.26L7.52-9.06L7.52-9.06Q5.54-9.52 4.80-9.52L4.80-9.52L4.80-9.52Q3.86-9.52 3.86-8.76L3.86-8.76L3.86-8.76Q3.86-8.46 4.31-8.18L4.31-8.18L4.31-8.18Q4.76-7.90 5.40-7.59L5.40-7.59L5.40-7.59Q6.04-7.28 6.68-6.85L6.68-6.85L6.68-6.85Q7.32-6.42 7.77-5.62L7.77-5.62L7.77-5.62Q8.22-4.82 8.22-3.78L8.22-3.78L8.22-3.78Q8.22-1.88 7.20-0.84L7.20-0.84L7.20-0.84Q6.18 0.20 4.31 0.20L4.31 0.20L4.31 0.20Q2.44 0.20 0.66-0.38L0.66-0.38L0.88-3.36L0.88-3.36Q3.02-2.74 3.86-2.74L3.86-2.74L3.86-2.74Q4.70-2.74 4.70-3.48L4.70-3.48L4.70-3.48Q4.70-3.86 4.25-4.18L4.25-4.18L4.25-4.18Q3.80-4.50 3.16-4.82L3.16-4.82L3.16-4.82Q2.52-5.14 1.87-5.56L1.87-5.56L1.87-5.56Q1.22-5.98 0.77-6.78L0.77-6.78L0.77-6.78Q0.32-7.58 0.32-8.68L0.32-8.68ZM20.84-12.42L20.64-9.40L18.32-9.40L18.32 0L14.90 0L14.90-9.40L12.44-9.40L12.64-12.42L20.84-12.42ZM29.12-4.08L29.12-4.08Q29.12-3.46 29.38-3.16L29.38-3.16L29.38-3.16Q29.64-2.86 30.23-2.86L30.23-2.86L30.23-2.86Q30.82-2.86 31.05-3.15L31.05-3.15L31.05-3.15Q31.28-3.44 31.28-4.10L31.28-4.10L31.28-12.42L34.72-12.42L34.72-3.90L34.72-3.90Q34.72-1.76 33.55-0.78L33.55-0.78L33.55-0.78Q32.38 0.20 30.11 0.20L30.11 0.20L30.11 0.20Q27.84 0.20 26.73-0.77L26.73-0.77L26.73-0.77Q25.62-1.74 25.62-3.86L25.62-3.86L25.62-12.42L29.12-12.42L29.12-4.08ZM49.72-6.48L49.72-6.48L49.72-6.48Q49.72 0 44.60 0L44.60 0L40.48 0L40.48-12.42L44.68-12.42L44.68-12.42Q47.42-12.42 48.57-10.89L48.57-10.89L48.57-10.89Q49.72-9.36 49.72-6.48ZM44.54-2.88L44.54-2.88Q45.60-2.88 45.91-3.63L45.91-3.63L45.91-3.63Q46.22-4.38 46.22-6.15L46.22-6.15L46.22-6.15Q46.22-7.92 45.89-8.66L45.89-8.66L45.89-8.66Q45.56-9.40 44.48-9.40L44.48-9.40L43.88-9.40L43.88-2.88L44.54-2.88ZM58.60-12.42L58.60 0L55.20 0L55.20-12.42L58.60-12.42ZM65.31-11.12L65.31-11.12L65.31-11.12Q66.46-12.62 69.08-12.62L69.08-12.62L69.08-12.62Q71.70-12.62 72.83-11.14L72.83-11.14L72.83-11.14Q73.96-9.66 73.96-6.33L73.96-6.33L73.96-6.33Q73.96-3 72.80-1.40L72.80-1.40L72.80-1.40Q71.64 0.20 69.04 0.20L69.04 0.20L69.04 0.20Q66.44 0.20 65.30-1.38L65.30-1.38L65.30-1.38Q64.16-2.96 64.16-6.29L64.16-6.29L64.16-6.29Q64.16-9.62 65.31-11.12ZM70.52-6.32L70.52-6.32Q70.52-8.16 70.23-8.81L70.23-8.81L70.23-8.81Q69.94-9.46 69.05-9.46L69.05-9.46L69.05-9.46Q68.16-9.46 67.90-8.81L67.90-8.81L67.90-8.81Q67.64-8.16 67.64-6.34L67.64-6.34L67.64-5.86L67.64-5.86Q67.64-3.92 67.93-3.31L67.93-3.31L67.93-3.31Q68.22-2.70 69.11-2.70L69.11-2.70L69.11-2.70Q70-2.70 70.26-3.28L70.26-3.28L70.26-3.28Q70.52-3.86 70.52-5.68L70.52-5.68L70.52-6.32Z" fill="#f9fcf7"/></g><g transform="translate(91.14785860009437,6.273387640268794)translate(60.262345679012356,55.780022446689124)rotate(0)translate(-60.262345679012356,-55.780022446689124) scale(0.9944691724743159,0.9944691724743159)" opacity="0.8"><defs class="defs"><linearGradient id="linearGradientccbd590c3e796745b9d29b197e6c888a" class="linearGradient1" gradientTransform="translate(0.5,0.5) rotate(270) translate(-0.5,-0.5)" x1="50%" y1="0%" x2="50%" y2="100%"><stop id="stop1" offset="0%" class="linearGradientColor1" stop-color="#41ff00"/><stop id="stop2" offset="100%" class="linearGradientColor2" stop-color="#00924C"/></linearGradient></defs><g>
    <path fill="url(#linearGradientccbd590c3e796745b9d29b197e6c888a)" d="M33.732,10.212L2.274,2.462l6.453,43.243C13.957,35.625,23.564,15.295,33.732,10.212z" class="color c1"/>
    <path fill="url(#linearGradientccbd590c3e796745b9d29b197e6c888a)" d="M106.602,47.58L118.708,0L84.205,11.558C94.079,17.169,101.904,37.162,106.602,47.58z" class="color c1"/>
    <path fill="#0c0c0b" d="M118.708,0l-12.016,36.232c-4.697-10.418-12.613-19.063-22.488-24.675&#10;&#9;&#9;c-7.82-4.444-16.857-6.995-26.494-6.995c-8.62,0-16.759,2.042-23.978,5.649c-10.168,5.083-18.494,13.293-23.724,23.373L2.274,2.462&#10;&#9;&#9;c0,0-6.312,34.844,2.095,49.53c-0.241,2.064-0.378,4.161-0.378,6.29c0,29.669,24.051,53.72,53.72,53.72&#10;&#9;&#9;c29.668,0,53.719-24.051,53.719-53.72c0-0.269-0.016-0.533-0.02-0.801C127.729,37.33,118.708,0,118.708,0z" class="color c2"/>
    <ellipse fill="#FFFFFF" cx="80.07" cy="56.795" rx="19.59" ry="27.789" class="color c3"/>
    <ellipse fill="#FFFFFF" cx="35.591" cy="57.291" rx="19.341" ry="27.438" class="color c3"/>
    <ellipse fill="#0c0c0b" cx="76.653" cy="56.264" rx="10.554" ry="17.994" class="color c2"/>
    <ellipse fill="#0c0c0b" cx="42.113" cy="57.966" rx="10.42" ry="17.768" class="color c2"/>
  </g></g><g transform="translate(34.78082246420166,69.65922572281568)translate(88.47608024691363,48.17031035665294)rotate(0)translate(-88.47608024691363,-48.17031035665294) scale(0.9830675582990402,0.9830675582990402)" opacity="0.8"><defs class="defs"><linearGradient id="linearGradiente969fceb573bea3a4921a6d7c9f39441" class="linearGradient2" gradientTransform="translate(0.5,0.5) rotate(270) translate(-0.5,-0.5)" x1="50%" y1="0%" x2="50%" y2="100%"><stop id="stop1" offset="0%" class="linearGradientColor1" stop-color="#c185ff"/><stop id="stop2" offset="100%" class="linearGradientColor2" stop-color="#3aff00"/></linearGradient></defs><g>
    <path fill="#0C0C0B" d="M179.992,31.842c-0.764-11.69-7.136,1.122-7.136,1.122s-29.305,40.35-75.755,24.354&#10;&#9;&#9;c1.22,1.769,0.345,2.894-1.03,2.644c-3.192-0.58-2.83-1.823-7.313-4.75c-2.508-1.639-7.594-4.629-11.688-5.563&#10;&#9;&#9;c-11.409-2.601-23.563-8.912-27.199-1.562c-0.51,1.03-0.953,1.942-1.363,2.749c-2.526,4.957-2.683,5.648-10.167,3.583&#10;&#9;&#9;c-8.702-2.401-13.423,2.132-10.417,7.5C30.777,67.01,12.758,50.42,9.463,51.412c9.292,17.464,25.318,34.487,47.589,42.102&#10;&#9;&#9;C128.239,117.854,180.755,43.531,179.992,31.842z" class="color c1"/>
    <path fill="url(#linearGradiente969fceb573bea3a4921a6d7c9f39441)" d="M97.101,57.317c-0.811-0.278-1.623-0.567-2.443-0.882C81.332,51.34,66.646,41.589,50.876,24.978&#10;&#9;&#9;C1.763-26.76-10.63,12.027,8.693,49.933c0.252,0.493,0.508,0.986,0.771,1.479c5.759,9.062,23.343,17.14,20.491,12.049&#10;&#9;&#9;c-3.007-5.368,0.309-9.025,9.011-6.624c7.483,2.065,8.773,1.197,11.3-3.76c0.41-0.807,0.854-1.719,1.363-2.749&#10;&#9;&#9;c3.636-7.351,14.479-1.22,25.889,1.381c4.094,0.934,7.169,2.524,9.677,4.163c4.482,2.927,7.128,6.007,10.363,5.764&#10;&#9;&#9;C101.958,61.304,101.141,59.269,97.101,57.317z" class="color c2"/>
  </g></g></svg>