<svg xmlns="http://www.w3.org/2000/svg" width="150" height="150" viewBox="0 0 150 150"><rect x="0" y="0" width="150" height="150" fill="#000000"/><g transform="translate(18.60928961748634,19.465980589988977)translate(56.19125683060041,55.602733922632744)rotate(0)translate(-56.19125683060041,-55.602733922632744) scale(1.3006031115313492,1.3006031115313492)" opacity="1"><defs class="defs"/><path transform="translate(-5.295000000000002,-7.692)" d="M48.465,7.692c-28.781,0 -43.17,14.251 -43.17,42.752c0,28.501 14.389,42.751 43.17,42.751c28.825,0 43.238,-14.25 43.238,-42.751c0,-28.501 -14.413,-42.752 -43.238,-42.752zM73.686,76.461c-5.288,5.497 -13.694,8.246 -25.221,8.246c-11.436,0 -19.81,-2.748 -25.12,-8.246c-5.31,-5.496 -7.965,-14.169 -7.965,-26.017c0,-11.849 2.655,-20.522 7.965,-26.018c5.31,-5.497 13.683,-8.246 25.12,-8.246c11.527,0 19.933,2.749 25.221,8.246c5.287,5.496 7.931,14.169 7.931,26.018c0,11.848 -2.644,20.521 -7.931,26.017zM62.535,28.811h-28.073c-2.879,0 -5.213,2.334 -5.213,5.213c0,2.879 2.334,5.213 5.213,5.213h28.072c2.879,0 5.213,-2.334 5.213,-5.213c0,-2.879 -2.334,-5.213 -5.212,-5.213zM62.535,45.231h-28.073c-2.879,0 -5.213,2.334 -5.213,5.213c0,2.879 2.334,5.213 5.213,5.213h28.072c2.879,0 5.213,-2.334 5.213,-5.213c0,-2.879 -2.334,-5.213 -5.212,-5.213zM62.535,61.651h-28.073c-2.879,0 -5.213,2.334 -5.213,5.213c0,2.879 2.334,5.213 5.213,5.213h28.072c2.879,0 5.213,-2.334 5.213,-5.213c0,-2.879 -2.334,-5.213 -5.212,-5.213z" fill="#ffffff" class="fill c1"/></g></svg>