<svg xmlns="http://www.w3.org/2000/svg" width="420" height="70" viewBox="0 0 420 70"><g transform="translate(12.372157546554833,1.3485652117734959)translate(197.86752319335938,34.343301835460885)rotate(0)translate(-197.86752319335938,-34.343301835460885)" opacity="1"><filter id="shadow_0" x="-34.5" y="-34.5" width="395.73504638671875" height="68.68660367092177"><feGaussianBlur stdDeviation="8.571428571428571"/><feOffset dx="1" dy="5"/></filter><path transform="translate(6,45.52959075130545)rotate(0)" d="M34.29-34.12L35.44 0L26.82 0L26.82-17.80L26.32-17.80L23.08 0L14.23 0L11.15-17.80L10.61-17.80L10.61 0L2.09 0L3.24-34.12L15.61-34.12L18.68-15.66L19.12-15.66L22.09-34.12L34.29-34.12ZM49.56-11.21L49.56-11.21Q49.56-9.51 50.28-8.68L50.28-8.68L50.28-8.68Q50.99-7.86 52.61-7.86L52.61-7.86L52.61-7.86Q54.23-7.86 54.87-8.65L54.87-8.65L54.87-8.65Q55.50-9.45 55.50-11.26L55.50-11.26L55.50-34.12L64.95-34.12L64.95-10.72L64.95-10.72Q64.95-4.84 61.74-2.14L61.74-2.14L61.74-2.14Q58.52 0.55 52.28 0.55L52.28 0.55L52.28 0.55Q46.05 0.55 43.00-2.12L43.00-2.12L43.00-2.12Q39.95-4.78 39.95-10.61L39.95-10.61L39.95-34.12L49.56-34.12L49.56-11.21ZM68.25-23.85L68.25-23.85Q68.25-28.74 71.10-31.71L71.10-31.71L71.10-31.71Q73.96-34.67 78.93-34.67L78.93-34.67L78.93-34.67Q83.91-34.67 89.13-33.68L89.13-33.68L88.03-24.89L88.03-24.89Q82.59-26.16 80.56-26.16L80.56-26.16L80.56-26.16Q77.97-26.16 77.97-24.07L77.97-24.07L77.97-24.07Q77.97-23.24 79.21-22.47L79.21-22.47L79.21-22.47Q80.45-21.70 82.20-20.85L82.20-20.85L82.20-20.85Q83.96-20.00 85.72-18.82L85.72-18.82L85.72-18.82Q87.48-17.64 88.72-15.44L88.72-15.44L88.72-15.44Q89.95-13.24 89.95-10.39L89.95-10.39L89.95-10.39Q89.95-5.17 87.15-2.31L87.15-2.31L87.15-2.31Q84.35 0.55 79.21 0.55L79.21 0.55L79.21 0.55Q74.07 0.55 69.18-1.04L69.18-1.04L69.79-9.23L69.79-9.23Q75.67-7.53 77.97-7.53L77.97-7.53L77.97-7.53Q80.28-7.53 80.28-9.56L80.28-9.56L80.28-9.56Q80.28-10.61 79.04-11.48L79.04-11.48L79.04-11.48Q77.81-12.36 76.05-13.24L76.05-13.24L76.05-13.24Q74.29-14.12 72.51-15.28L72.51-15.28L72.51-15.28Q70.72-16.43 69.48-18.63L69.48-18.63L69.48-18.63Q68.25-20.83 68.25-23.85L68.25-23.85ZM103.14-34.12L103.14 0L93.80 0L93.80-34.12L103.14-34.12ZM116.99-16.73L116.99-16.73L116.99-16.73Q116.99-11.87 117.95-9.81L117.95-9.81L117.95-9.81Q118.91-7.75 121.11-7.75L121.11-7.75L121.11-7.75Q123.31-7.75 127.32-8.79L127.32-8.79L128.75-1.04L128.75-1.04Q124.41 0.55 120.01 0.55L120.01 0.55L120.01 0.55Q113.42 0.55 110.42-3.82L110.42-3.82L110.42-3.82Q107.43-8.19 107.43-16.84L107.43-16.84L107.43-16.84Q107.43-25.50 110.56-30.08L110.56-30.08L110.56-30.08Q113.69-34.67 120.78-34.67L120.78-34.67L120.78-34.67Q124.95-34.67 128.75-32.91L128.75-32.91L127.26-24.40L127.26-24.40Q122.98-25.83 121.27-25.83L121.27-25.83L121.27-25.83Q118.86-25.83 117.92-23.71L117.92-23.71L117.92-23.71Q116.99-21.60 116.99-16.73ZM161.61-34.12L161.06-25.72L151.99-25.72L151.99-20.61L159.30-20.61L159.30-13.35L151.99-13.35L151.99 0L142.59 0L142.59-34.12L161.61-34.12ZM165.81-30.55L165.81-30.55L165.81-30.55Q168.97-34.67 176.17-34.67L176.17-34.67L176.17-34.67Q183.37-34.67 186.47-30.61L186.47-30.61L186.47-30.61Q189.58-26.54 189.58-17.39L189.58-17.39L189.58-17.39Q189.58-8.24 186.39-3.85L186.39-3.85L186.39-3.85Q183.20 0.55 176.06 0.55L176.06 0.55L176.06 0.55Q168.91 0.55 165.78-3.79L165.78-3.79L165.78-3.79Q162.65-8.13 162.65-17.28L162.65-17.28L162.65-17.28Q162.65-26.43 165.81-30.55ZM180.12-17.36L180.12-17.36Q180.12-22.42 179.33-24.21L179.33-24.21L179.33-24.21Q178.53-25.99 176.08-25.99L176.08-25.99L176.08-25.99Q173.64-25.99 172.93-24.21L172.93-24.21L172.93-24.21Q172.21-22.42 172.21-17.42L172.21-17.42L172.21-16.10L172.21-16.10Q172.21-10.77 173.01-9.09L173.01-9.09L173.01-9.09Q173.80-7.42 176.25-7.42L176.25-7.42L176.25-7.42Q178.70-7.42 179.41-9.01L179.41-9.01L179.41-9.01Q180.12-10.61 180.12-15.61L180.12-15.61L180.12-17.36ZM216.67-23.30L216.67-23.30L216.67-23.30Q216.67-20.22 215.73-18.19L215.73-18.19L215.73-18.19Q214.80-16.16 212.82-14.51L212.82-14.51L217.38 0L207.21 0L203.81-12.31L202.54-12.31L202.54 0L193.31 0L193.31-34.12L206.06-34.12L206.06-34.12Q211.55-34.12 214.11-31.54L214.11-31.54L214.11-31.54Q216.67-28.96 216.67-23.30ZM203.97-18.08L203.97-18.08Q205.40-18.08 206.00-18.90L206.00-18.90L206.00-18.90Q206.61-19.73 206.61-21.90L206.61-21.90L206.61-21.90Q206.61-24.07 206.00-24.92L206.00-24.92L206.00-24.92Q205.40-25.77 204.03-25.77L204.03-25.77L202.54-25.77L202.54-18.08L203.97-18.08ZM240.46-16.73L240.46-16.73L240.46-16.73Q240.46-11.87 241.42-9.81L241.42-9.81L241.42-9.81Q242.38-7.75 244.58-7.75L244.58-7.75L244.58-7.75Q246.78-7.75 250.79-8.79L250.79-8.79L252.22-1.04L252.22-1.04Q247.88 0.55 243.48 0.55L243.48 0.55L243.48 0.55Q236.89 0.55 233.89-3.82L233.89-3.82L233.89-3.82Q230.90-8.19 230.90-16.84L230.90-16.84L230.90-16.84Q230.90-25.50 234.03-30.08L234.03-30.08L234.03-30.08Q237.16-34.67 244.25-34.67L244.25-34.67L244.25-34.67Q248.43-34.67 252.22-32.91L252.22-32.91L250.73-24.40L250.73-24.40Q246.45-25.83 244.74-25.83L244.74-25.83L244.74-25.83Q242.33-25.83 241.39-23.71L241.39-23.71L241.39-23.71Q240.46-21.60 240.46-16.73ZM256.59-30.55L256.59-30.55L256.59-30.55Q259.75-34.67 266.94-34.67L266.94-34.67L266.94-34.67Q274.14-34.67 277.25-30.61L277.25-30.61L277.25-30.61Q280.35-26.54 280.35-17.39L280.35-17.39L280.35-17.39Q280.35-8.24 277.16-3.85L277.16-3.85L277.16-3.85Q273.98 0.55 266.83 0.55L266.83 0.55L266.83 0.55Q259.69 0.55 256.56-3.79L256.56-3.79L256.56-3.79Q253.43-8.13 253.43-17.28L253.43-17.28L253.43-17.28Q253.43-26.43 256.59-30.55ZM270.90-17.36L270.90-17.36Q270.90-22.42 270.10-24.21L270.10-24.21L270.10-24.21Q269.31-25.99 266.86-25.99L266.86-25.99L266.86-25.99Q264.42-25.99 263.70-24.21L263.70-24.21L263.70-24.21Q262.99-22.42 262.99-17.42L262.99-17.42L262.99-16.10L262.99-16.10Q262.99-10.77 263.78-9.09L263.78-9.09L263.78-9.09Q264.58-7.42 267.03-7.42L267.03-7.42L267.03-7.42Q269.47-7.42 270.19-9.01L270.19-9.01L270.19-9.01Q270.90-10.61 270.90-15.61L270.90-15.61L270.90-17.36ZM309.47-17.80L309.47-17.80L309.47-17.80Q309.47 0 295.41 0L295.41 0L284.09 0L284.09-34.12L295.63-34.12L295.63-34.12Q303.16-34.12 306.31-29.92L306.31-29.92L306.31-29.92Q309.47-25.72 309.47-17.80ZM295.24-7.91L295.24-7.91Q298.15-7.91 299.01-9.97L299.01-9.97L299.01-9.97Q299.86-12.03 299.86-16.90L299.86-16.90L299.86-16.90Q299.86-21.76 298.95-23.79L298.95-23.79L298.95-23.79Q298.04-25.83 295.08-25.83L295.08-25.83L293.43-25.83L293.43-7.91L295.24-7.91ZM332.00-7.69L331.45 0L312.99 0L312.99-34.12L332.00-34.12L331.45-25.72L322.39-25.72L322.39-20.61L330.25-20.61L330.25-13.35L322.39-13.35L322.39-7.69L332.00-7.69ZM358.54-23.30L358.54-23.30L358.54-23.30Q358.54-20.22 357.61-18.19L357.61-18.19L357.61-18.19Q356.68-16.16 354.70-14.51L354.70-14.51L359.26 0L349.09 0L345.69-12.31L344.42-12.31L344.42 0L335.19 0L335.19-34.12L347.94-34.12L347.94-34.12Q353.43-34.12 355.99-31.54L355.99-31.54L355.99-31.54Q358.54-28.96 358.54-23.30ZM345.85-18.08L345.85-18.08Q347.28-18.08 347.88-18.90L347.88-18.90L347.88-18.90Q348.49-19.73 348.49-21.90L348.49-21.90L348.49-21.90Q348.49-24.07 347.88-24.92L347.88-24.92L347.88-24.92Q347.28-25.77 345.91-25.77L345.91-25.77L344.42-25.77L344.42-18.08L345.85-18.08ZM360.80-23.85L360.80-23.85Q360.80-28.74 363.65-31.71L363.65-31.71L363.65-31.71Q366.51-34.67 371.48-34.67L371.48-34.67L371.48-34.67Q376.46-34.67 381.68-33.68L381.68-33.68L380.58-24.89L380.58-24.89Q375.14-26.16 373.11-26.16L373.11-26.16L373.11-26.16Q370.52-26.16 370.52-24.07L370.52-24.07L370.52-24.07Q370.52-23.24 371.76-22.47L371.76-22.47L371.76-22.47Q373.00-21.70 374.75-20.85L374.75-20.85L374.75-20.85Q376.51-20.00 378.27-18.82L378.27-18.82L378.27-18.82Q380.03-17.64 381.27-15.44L381.27-15.44L381.27-15.44Q382.50-13.24 382.50-10.39L382.50-10.39L382.50-10.39Q382.50-5.17 379.70-2.31L379.70-2.31L379.70-2.31Q376.90 0.55 371.76 0.55L371.76 0.55L371.76 0.55Q366.62 0.55 361.73-1.04L361.73-1.04L362.34-9.23L362.34-9.23Q368.22-7.53 370.52-7.53L370.52-7.53L370.52-7.53Q372.83-7.53 372.83-9.56L372.83-9.56L372.83-9.56Q372.83-10.61 371.59-11.48L371.59-11.48L371.59-11.48Q370.36-12.36 368.60-13.24L368.60-13.24L368.60-13.24Q366.84-14.12 365.06-15.28L365.06-15.28L365.06-15.28Q363.27-16.43 362.03-18.63L362.03-18.63L362.03-18.63Q360.80-20.83 360.80-23.85L360.80-23.85Z" fill="#9522ff" stroke="#9522ff" stroke-width="11" stroke-linejoin="round" stroke-miterlimit="2" opacity="0.84" style="filter:url(#shadow_0)"/><path transform="translate(6,45.52959075130545)rotate(0)" d="M34.29-34.12L35.44 0L26.82 0L26.82-17.80L26.32-17.80L23.08 0L14.23 0L11.15-17.80L10.61-17.80L10.61 0L2.09 0L3.24-34.12L15.61-34.12L18.68-15.66L19.12-15.66L22.09-34.12L34.29-34.12ZM49.56-11.21L49.56-11.21Q49.56-9.51 50.28-8.68L50.28-8.68L50.28-8.68Q50.99-7.86 52.61-7.86L52.61-7.86L52.61-7.86Q54.23-7.86 54.87-8.65L54.87-8.65L54.87-8.65Q55.50-9.45 55.50-11.26L55.50-11.26L55.50-34.12L64.95-34.12L64.95-10.72L64.95-10.72Q64.95-4.84 61.74-2.14L61.74-2.14L61.74-2.14Q58.52 0.55 52.28 0.55L52.28 0.55L52.28 0.55Q46.05 0.55 43.00-2.12L43.00-2.12L43.00-2.12Q39.95-4.78 39.95-10.61L39.95-10.61L39.95-34.12L49.56-34.12L49.56-11.21ZM68.25-23.85L68.25-23.85Q68.25-28.74 71.10-31.71L71.10-31.71L71.10-31.71Q73.96-34.67 78.93-34.67L78.93-34.67L78.93-34.67Q83.91-34.67 89.13-33.68L89.13-33.68L88.03-24.89L88.03-24.89Q82.59-26.16 80.56-26.16L80.56-26.16L80.56-26.16Q77.97-26.16 77.97-24.07L77.97-24.07L77.97-24.07Q77.97-23.24 79.21-22.47L79.21-22.47L79.21-22.47Q80.45-21.70 82.20-20.85L82.20-20.85L82.20-20.85Q83.96-20.00 85.72-18.82L85.72-18.82L85.72-18.82Q87.48-17.64 88.72-15.44L88.72-15.44L88.72-15.44Q89.95-13.24 89.95-10.39L89.95-10.39L89.95-10.39Q89.95-5.17 87.15-2.31L87.15-2.31L87.15-2.31Q84.35 0.55 79.21 0.55L79.21 0.55L79.21 0.55Q74.07 0.55 69.18-1.04L69.18-1.04L69.79-9.23L69.79-9.23Q75.67-7.53 77.97-7.53L77.97-7.53L77.97-7.53Q80.28-7.53 80.28-9.56L80.28-9.56L80.28-9.56Q80.28-10.61 79.04-11.48L79.04-11.48L79.04-11.48Q77.81-12.36 76.05-13.24L76.05-13.24L76.05-13.24Q74.29-14.12 72.51-15.28L72.51-15.28L72.51-15.28Q70.72-16.43 69.48-18.63L69.48-18.63L69.48-18.63Q68.25-20.83 68.25-23.85L68.25-23.85ZM103.14-34.12L103.14 0L93.80 0L93.80-34.12L103.14-34.12ZM116.99-16.73L116.99-16.73L116.99-16.73Q116.99-11.87 117.95-9.81L117.95-9.81L117.95-9.81Q118.91-7.75 121.11-7.75L121.11-7.75L121.11-7.75Q123.31-7.75 127.32-8.79L127.32-8.79L128.75-1.04L128.75-1.04Q124.41 0.55 120.01 0.55L120.01 0.55L120.01 0.55Q113.42 0.55 110.42-3.82L110.42-3.82L110.42-3.82Q107.43-8.19 107.43-16.84L107.43-16.84L107.43-16.84Q107.43-25.50 110.56-30.08L110.56-30.08L110.56-30.08Q113.69-34.67 120.78-34.67L120.78-34.67L120.78-34.67Q124.95-34.67 128.75-32.91L128.75-32.91L127.26-24.40L127.26-24.40Q122.98-25.83 121.27-25.83L121.27-25.83L121.27-25.83Q118.86-25.83 117.92-23.71L117.92-23.71L117.92-23.71Q116.99-21.60 116.99-16.73ZM161.61-34.12L161.06-25.72L151.99-25.72L151.99-20.61L159.30-20.61L159.30-13.35L151.99-13.35L151.99 0L142.59 0L142.59-34.12L161.61-34.12ZM165.81-30.55L165.81-30.55L165.81-30.55Q168.97-34.67 176.17-34.67L176.17-34.67L176.17-34.67Q183.37-34.67 186.47-30.61L186.47-30.61L186.47-30.61Q189.58-26.54 189.58-17.39L189.58-17.39L189.58-17.39Q189.58-8.24 186.39-3.85L186.39-3.85L186.39-3.85Q183.20 0.55 176.06 0.55L176.06 0.55L176.06 0.55Q168.91 0.55 165.78-3.79L165.78-3.79L165.78-3.79Q162.65-8.13 162.65-17.28L162.65-17.28L162.65-17.28Q162.65-26.43 165.81-30.55ZM180.12-17.36L180.12-17.36Q180.12-22.42 179.33-24.21L179.33-24.21L179.33-24.21Q178.53-25.99 176.08-25.99L176.08-25.99L176.08-25.99Q173.64-25.99 172.93-24.21L172.93-24.21L172.93-24.21Q172.21-22.42 172.21-17.42L172.21-17.42L172.21-16.10L172.21-16.10Q172.21-10.77 173.01-9.09L173.01-9.09L173.01-9.09Q173.80-7.42 176.25-7.42L176.25-7.42L176.25-7.42Q178.70-7.42 179.41-9.01L179.41-9.01L179.41-9.01Q180.12-10.61 180.12-15.61L180.12-15.61L180.12-17.36ZM216.67-23.30L216.67-23.30L216.67-23.30Q216.67-20.22 215.73-18.19L215.73-18.19L215.73-18.19Q214.80-16.16 212.82-14.51L212.82-14.51L217.38 0L207.21 0L203.81-12.31L202.54-12.31L202.54 0L193.31 0L193.31-34.12L206.06-34.12L206.06-34.12Q211.55-34.12 214.11-31.54L214.11-31.54L214.11-31.54Q216.67-28.96 216.67-23.30ZM203.97-18.08L203.97-18.08Q205.40-18.08 206.00-18.90L206.00-18.90L206.00-18.90Q206.61-19.73 206.61-21.90L206.61-21.90L206.61-21.90Q206.61-24.07 206.00-24.92L206.00-24.92L206.00-24.92Q205.40-25.77 204.03-25.77L204.03-25.77L202.54-25.77L202.54-18.08L203.97-18.08ZM240.46-16.73L240.46-16.73L240.46-16.73Q240.46-11.87 241.42-9.81L241.42-9.81L241.42-9.81Q242.38-7.75 244.58-7.75L244.58-7.75L244.58-7.75Q246.78-7.75 250.79-8.79L250.79-8.79L252.22-1.04L252.22-1.04Q247.88 0.55 243.48 0.55L243.48 0.55L243.48 0.55Q236.89 0.55 233.89-3.82L233.89-3.82L233.89-3.82Q230.90-8.19 230.90-16.84L230.90-16.84L230.90-16.84Q230.90-25.50 234.03-30.08L234.03-30.08L234.03-30.08Q237.16-34.67 244.25-34.67L244.25-34.67L244.25-34.67Q248.43-34.67 252.22-32.91L252.22-32.91L250.73-24.40L250.73-24.40Q246.45-25.83 244.74-25.83L244.74-25.83L244.74-25.83Q242.33-25.83 241.39-23.71L241.39-23.71L241.39-23.71Q240.46-21.60 240.46-16.73ZM256.59-30.55L256.59-30.55L256.59-30.55Q259.75-34.67 266.94-34.67L266.94-34.67L266.94-34.67Q274.14-34.67 277.25-30.61L277.25-30.61L277.25-30.61Q280.35-26.54 280.35-17.39L280.35-17.39L280.35-17.39Q280.35-8.24 277.16-3.85L277.16-3.85L277.16-3.85Q273.98 0.55 266.83 0.55L266.83 0.55L266.83 0.55Q259.69 0.55 256.56-3.79L256.56-3.79L256.56-3.79Q253.43-8.13 253.43-17.28L253.43-17.28L253.43-17.28Q253.43-26.43 256.59-30.55ZM270.90-17.36L270.90-17.36Q270.90-22.42 270.10-24.21L270.10-24.21L270.10-24.21Q269.31-25.99 266.86-25.99L266.86-25.99L266.86-25.99Q264.42-25.99 263.70-24.21L263.70-24.21L263.70-24.21Q262.99-22.42 262.99-17.42L262.99-17.42L262.99-16.10L262.99-16.10Q262.99-10.77 263.78-9.09L263.78-9.09L263.78-9.09Q264.58-7.42 267.03-7.42L267.03-7.42L267.03-7.42Q269.47-7.42 270.19-9.01L270.19-9.01L270.19-9.01Q270.90-10.61 270.90-15.61L270.90-15.61L270.90-17.36ZM309.47-17.80L309.47-17.80L309.47-17.80Q309.47 0 295.41 0L295.41 0L284.09 0L284.09-34.12L295.63-34.12L295.63-34.12Q303.16-34.12 306.31-29.92L306.31-29.92L306.31-29.92Q309.47-25.72 309.47-17.80ZM295.24-7.91L295.24-7.91Q298.15-7.91 299.01-9.97L299.01-9.97L299.01-9.97Q299.86-12.03 299.86-16.90L299.86-16.90L299.86-16.90Q299.86-21.76 298.95-23.79L298.95-23.79L298.95-23.79Q298.04-25.83 295.08-25.83L295.08-25.83L293.43-25.83L293.43-7.91L295.24-7.91ZM332.00-7.69L331.45 0L312.99 0L312.99-34.12L332.00-34.12L331.45-25.72L322.39-25.72L322.39-20.61L330.25-20.61L330.25-13.35L322.39-13.35L322.39-7.69L332.00-7.69ZM358.54-23.30L358.54-23.30L358.54-23.30Q358.54-20.22 357.61-18.19L357.61-18.19L357.61-18.19Q356.68-16.16 354.70-14.51L354.70-14.51L359.26 0L349.09 0L345.69-12.31L344.42-12.31L344.42 0L335.19 0L335.19-34.12L347.94-34.12L347.94-34.12Q353.43-34.12 355.99-31.54L355.99-31.54L355.99-31.54Q358.54-28.96 358.54-23.30ZM345.85-18.08L345.85-18.08Q347.28-18.08 347.88-18.90L347.88-18.90L347.88-18.90Q348.49-19.73 348.49-21.90L348.49-21.90L348.49-21.90Q348.49-24.07 347.88-24.92L347.88-24.92L347.88-24.92Q347.28-25.77 345.91-25.77L345.91-25.77L344.42-25.77L344.42-18.08L345.85-18.08ZM360.80-23.85L360.80-23.85Q360.80-28.74 363.65-31.71L363.65-31.71L363.65-31.71Q366.51-34.67 371.48-34.67L371.48-34.67L371.48-34.67Q376.46-34.67 381.68-33.68L381.68-33.68L380.58-24.89L380.58-24.89Q375.14-26.16 373.11-26.16L373.11-26.16L373.11-26.16Q370.52-26.16 370.52-24.07L370.52-24.07L370.52-24.07Q370.52-23.24 371.76-22.47L371.76-22.47L371.76-22.47Q373.00-21.70 374.75-20.85L374.75-20.85L374.75-20.85Q376.51-20.00 378.27-18.82L378.27-18.82L378.27-18.82Q380.03-17.64 381.27-15.44L381.27-15.44L381.27-15.44Q382.50-13.24 382.50-10.39L382.50-10.39L382.50-10.39Q382.50-5.17 379.70-2.31L379.70-2.31L379.70-2.31Q376.90 0.55 371.76 0.55L371.76 0.55L371.76 0.55Q366.62 0.55 361.73-1.04L361.73-1.04L362.34-9.23L362.34-9.23Q368.22-7.53 370.52-7.53L370.52-7.53L370.52-7.53Q372.83-7.53 372.83-9.56L372.83-9.56L372.83-9.56Q372.83-10.61 371.59-11.48L371.59-11.48L371.59-11.48Q370.36-12.36 368.60-13.24L368.60-13.24L368.60-13.24Q366.84-14.12 365.06-15.28L365.06-15.28L365.06-15.28Q363.27-16.43 362.03-18.63L362.03-18.63L362.03-18.63Q360.80-20.83 360.80-23.85L360.80-23.85Z" fill="none" stroke="#222826" stroke-width="11" stroke-linejoin="round" stroke-miterlimit="2"/><path transform="translate(6,45.52959075130545)rotate(0)" d="M34.29-34.12L35.44 0L26.82 0L26.82-17.80L26.32-17.80L23.08 0L14.23 0L11.15-17.80L10.61-17.80L10.61 0L2.09 0L3.24-34.12L15.61-34.12L18.68-15.66L19.12-15.66L22.09-34.12L34.29-34.12ZM49.56-11.21L49.56-11.21Q49.56-9.51 50.28-8.68L50.28-8.68L50.28-8.68Q50.99-7.86 52.61-7.86L52.61-7.86L52.61-7.86Q54.23-7.86 54.87-8.65L54.87-8.65L54.87-8.65Q55.50-9.45 55.50-11.26L55.50-11.26L55.50-34.12L64.95-34.12L64.95-10.72L64.95-10.72Q64.95-4.84 61.74-2.14L61.74-2.14L61.74-2.14Q58.52 0.55 52.28 0.55L52.28 0.55L52.28 0.55Q46.05 0.55 43.00-2.12L43.00-2.12L43.00-2.12Q39.95-4.78 39.95-10.61L39.95-10.61L39.95-34.12L49.56-34.12L49.56-11.21ZM68.25-23.85L68.25-23.85Q68.25-28.74 71.10-31.71L71.10-31.71L71.10-31.71Q73.96-34.67 78.93-34.67L78.93-34.67L78.93-34.67Q83.91-34.67 89.13-33.68L89.13-33.68L88.03-24.89L88.03-24.89Q82.59-26.16 80.56-26.16L80.56-26.16L80.56-26.16Q77.97-26.16 77.97-24.07L77.97-24.07L77.97-24.07Q77.97-23.24 79.21-22.47L79.21-22.47L79.21-22.47Q80.45-21.70 82.20-20.85L82.20-20.85L82.20-20.85Q83.96-20.00 85.72-18.82L85.72-18.82L85.72-18.82Q87.48-17.64 88.72-15.44L88.72-15.44L88.72-15.44Q89.95-13.24 89.95-10.39L89.95-10.39L89.95-10.39Q89.95-5.17 87.15-2.31L87.15-2.31L87.15-2.31Q84.35 0.55 79.21 0.55L79.21 0.55L79.21 0.55Q74.07 0.55 69.18-1.04L69.18-1.04L69.79-9.23L69.79-9.23Q75.67-7.53 77.97-7.53L77.97-7.53L77.97-7.53Q80.28-7.53 80.28-9.56L80.28-9.56L80.28-9.56Q80.28-10.61 79.04-11.48L79.04-11.48L79.04-11.48Q77.81-12.36 76.05-13.24L76.05-13.24L76.05-13.24Q74.29-14.12 72.51-15.28L72.51-15.28L72.51-15.28Q70.72-16.43 69.48-18.63L69.48-18.63L69.48-18.63Q68.25-20.83 68.25-23.85L68.25-23.85ZM103.14-34.12L103.14 0L93.80 0L93.80-34.12L103.14-34.12ZM116.99-16.73L116.99-16.73L116.99-16.73Q116.99-11.87 117.95-9.81L117.95-9.81L117.95-9.81Q118.91-7.75 121.11-7.75L121.11-7.75L121.11-7.75Q123.31-7.75 127.32-8.79L127.32-8.79L128.75-1.04L128.75-1.04Q124.41 0.55 120.01 0.55L120.01 0.55L120.01 0.55Q113.42 0.55 110.42-3.82L110.42-3.82L110.42-3.82Q107.43-8.19 107.43-16.84L107.43-16.84L107.43-16.84Q107.43-25.50 110.56-30.08L110.56-30.08L110.56-30.08Q113.69-34.67 120.78-34.67L120.78-34.67L120.78-34.67Q124.95-34.67 128.75-32.91L128.75-32.91L127.26-24.40L127.26-24.40Q122.98-25.83 121.27-25.83L121.27-25.83L121.27-25.83Q118.86-25.83 117.92-23.71L117.92-23.71L117.92-23.71Q116.99-21.60 116.99-16.73ZM161.61-34.12L161.06-25.72L151.99-25.72L151.99-20.61L159.30-20.61L159.30-13.35L151.99-13.35L151.99 0L142.59 0L142.59-34.12L161.61-34.12ZM165.81-30.55L165.81-30.55L165.81-30.55Q168.97-34.67 176.17-34.67L176.17-34.67L176.17-34.67Q183.37-34.67 186.47-30.61L186.47-30.61L186.47-30.61Q189.58-26.54 189.58-17.39L189.58-17.39L189.58-17.39Q189.58-8.24 186.39-3.85L186.39-3.85L186.39-3.85Q183.20 0.55 176.06 0.55L176.06 0.55L176.06 0.55Q168.91 0.55 165.78-3.79L165.78-3.79L165.78-3.79Q162.65-8.13 162.65-17.28L162.65-17.28L162.65-17.28Q162.65-26.43 165.81-30.55ZM180.12-17.36L180.12-17.36Q180.12-22.42 179.33-24.21L179.33-24.21L179.33-24.21Q178.53-25.99 176.08-25.99L176.08-25.99L176.08-25.99Q173.64-25.99 172.93-24.21L172.93-24.21L172.93-24.21Q172.21-22.42 172.21-17.42L172.21-17.42L172.21-16.10L172.21-16.10Q172.21-10.77 173.01-9.09L173.01-9.09L173.01-9.09Q173.80-7.42 176.25-7.42L176.25-7.42L176.25-7.42Q178.70-7.42 179.41-9.01L179.41-9.01L179.41-9.01Q180.12-10.61 180.12-15.61L180.12-15.61L180.12-17.36ZM216.67-23.30L216.67-23.30L216.67-23.30Q216.67-20.22 215.73-18.19L215.73-18.19L215.73-18.19Q214.80-16.16 212.82-14.51L212.82-14.51L217.38 0L207.21 0L203.81-12.31L202.54-12.31L202.54 0L193.31 0L193.31-34.12L206.06-34.12L206.06-34.12Q211.55-34.12 214.11-31.54L214.11-31.54L214.11-31.54Q216.67-28.96 216.67-23.30ZM203.97-18.08L203.97-18.08Q205.40-18.08 206.00-18.90L206.00-18.90L206.00-18.90Q206.61-19.73 206.61-21.90L206.61-21.90L206.61-21.90Q206.61-24.07 206.00-24.92L206.00-24.92L206.00-24.92Q205.40-25.77 204.03-25.77L204.03-25.77L202.54-25.77L202.54-18.08L203.97-18.08ZM240.46-16.73L240.46-16.73L240.46-16.73Q240.46-11.87 241.42-9.81L241.42-9.81L241.42-9.81Q242.38-7.75 244.58-7.75L244.58-7.75L244.58-7.75Q246.78-7.75 250.79-8.79L250.79-8.79L252.22-1.04L252.22-1.04Q247.88 0.55 243.48 0.55L243.48 0.55L243.48 0.55Q236.89 0.55 233.89-3.82L233.89-3.82L233.89-3.82Q230.90-8.19 230.90-16.84L230.90-16.84L230.90-16.84Q230.90-25.50 234.03-30.08L234.03-30.08L234.03-30.08Q237.16-34.67 244.25-34.67L244.25-34.67L244.25-34.67Q248.43-34.67 252.22-32.91L252.22-32.91L250.73-24.40L250.73-24.40Q246.45-25.83 244.74-25.83L244.74-25.83L244.74-25.83Q242.33-25.83 241.39-23.71L241.39-23.71L241.39-23.71Q240.46-21.60 240.46-16.73ZM256.59-30.55L256.59-30.55L256.59-30.55Q259.75-34.67 266.94-34.67L266.94-34.67L266.94-34.67Q274.14-34.67 277.25-30.61L277.25-30.61L277.25-30.61Q280.35-26.54 280.35-17.39L280.35-17.39L280.35-17.39Q280.35-8.24 277.16-3.85L277.16-3.85L277.16-3.85Q273.98 0.55 266.83 0.55L266.83 0.55L266.83 0.55Q259.69 0.55 256.56-3.79L256.56-3.79L256.56-3.79Q253.43-8.13 253.43-17.28L253.43-17.28L253.43-17.28Q253.43-26.43 256.59-30.55ZM270.90-17.36L270.90-17.36Q270.90-22.42 270.10-24.21L270.10-24.21L270.10-24.21Q269.31-25.99 266.86-25.99L266.86-25.99L266.86-25.99Q264.42-25.99 263.70-24.21L263.70-24.21L263.70-24.21Q262.99-22.42 262.99-17.42L262.99-17.42L262.99-16.10L262.99-16.10Q262.99-10.77 263.78-9.09L263.78-9.09L263.78-9.09Q264.58-7.42 267.03-7.42L267.03-7.42L267.03-7.42Q269.47-7.42 270.19-9.01L270.19-9.01L270.19-9.01Q270.90-10.61 270.90-15.61L270.90-15.61L270.90-17.36ZM309.47-17.80L309.47-17.80L309.47-17.80Q309.47 0 295.41 0L295.41 0L284.09 0L284.09-34.12L295.63-34.12L295.63-34.12Q303.16-34.12 306.31-29.92L306.31-29.92L306.31-29.92Q309.47-25.72 309.47-17.80ZM295.24-7.91L295.24-7.91Q298.15-7.91 299.01-9.97L299.01-9.97L299.01-9.97Q299.86-12.03 299.86-16.90L299.86-16.90L299.86-16.90Q299.86-21.76 298.95-23.79L298.95-23.79L298.95-23.79Q298.04-25.83 295.08-25.83L295.08-25.83L293.43-25.83L293.43-7.91L295.24-7.91ZM332.00-7.69L331.45 0L312.99 0L312.99-34.12L332.00-34.12L331.45-25.72L322.39-25.72L322.39-20.61L330.25-20.61L330.25-13.35L322.39-13.35L322.39-7.69L332.00-7.69ZM358.54-23.30L358.54-23.30L358.54-23.30Q358.54-20.22 357.61-18.19L357.61-18.19L357.61-18.19Q356.68-16.16 354.70-14.51L354.70-14.51L359.26 0L349.09 0L345.69-12.31L344.42-12.31L344.42 0L335.19 0L335.19-34.12L347.94-34.12L347.94-34.12Q353.43-34.12 355.99-31.54L355.99-31.54L355.99-31.54Q358.54-28.96 358.54-23.30ZM345.85-18.08L345.85-18.08Q347.28-18.08 347.88-18.90L347.88-18.90L347.88-18.90Q348.49-19.73 348.49-21.90L348.49-21.90L348.49-21.90Q348.49-24.07 347.88-24.92L347.88-24.92L347.88-24.92Q347.28-25.77 345.91-25.77L345.91-25.77L344.42-25.77L344.42-18.08L345.85-18.08ZM360.80-23.85L360.80-23.85Q360.80-28.74 363.65-31.71L363.65-31.71L363.65-31.71Q366.51-34.67 371.48-34.67L371.48-34.67L371.48-34.67Q376.46-34.67 381.68-33.68L381.68-33.68L380.58-24.89L380.58-24.89Q375.14-26.16 373.11-26.16L373.11-26.16L373.11-26.16Q370.52-26.16 370.52-24.07L370.52-24.07L370.52-24.07Q370.52-23.24 371.76-22.47L371.76-22.47L371.76-22.47Q373.00-21.70 374.75-20.85L374.75-20.85L374.75-20.85Q376.51-20.00 378.27-18.82L378.27-18.82L378.27-18.82Q380.03-17.64 381.27-15.44L381.27-15.44L381.27-15.44Q382.50-13.24 382.50-10.39L382.50-10.39L382.50-10.39Q382.50-5.17 379.70-2.31L379.70-2.31L379.70-2.31Q376.90 0.55 371.76 0.55L371.76 0.55L371.76 0.55Q366.62 0.55 361.73-1.04L361.73-1.04L362.34-9.23L362.34-9.23Q368.22-7.53 370.52-7.53L370.52-7.53L370.52-7.53Q372.83-7.53 372.83-9.56L372.83-9.56L372.83-9.56Q372.83-10.61 371.59-11.48L371.59-11.48L371.59-11.48Q370.36-12.36 368.60-13.24L368.60-13.24L368.60-13.24Q366.84-14.12 365.06-15.28L365.06-15.28L365.06-15.28Q363.27-16.43 362.03-18.63L362.03-18.63L362.03-18.63Q360.80-20.83 360.80-23.85L360.80-23.85Z" fill="#f9fcf7"/></g></svg>