<svg xmlns="http://www.w3.org/2000/svg" width="300" height="100" viewBox="0 0 300 100"><g transform="translate(26.454020354581637,6.98155184148029)translate(123.43996313704027,43.464291687253485)rotate(0)translate(-123.43996313704027,-43.464291687253485)" opacity="1"><filter id="shadow_0" x="-44" y="-44" width="246.87992627408053" height="86.92858337450697"><feGaussianBlur stdDeviation="16.666666666666664"/><feOffset dx="1" dy="10"/></filter><path transform="translate(3,57.840976216502405)rotate(0)" d="M32.62-29.49L32.62-29.49L32.62-29.49Q32.62-25.59 31.43-23.02L31.43-23.02L31.43-23.02Q30.25-20.45 27.75-18.36L27.75-18.36L33.52 0L20.65 0L16.34-15.58L14.74-15.58L14.74 0L3.06 0L3.06-43.19L19.19-43.19L19.19-43.19Q26.15-43.19 29.38-39.92L29.38-39.92L29.38-39.92Q32.62-36.65 32.62-29.49ZM16.55-22.88L16.55-22.88Q18.36-22.88 19.12-23.92L19.12-23.92L19.12-23.92Q19.89-24.97 19.89-27.71L19.89-27.71L19.89-27.71Q19.89-30.46 19.12-31.54L19.12-31.54L19.12-31.54Q18.36-32.62 16.62-32.62L16.62-32.62L14.74-32.62L14.74-22.88L16.55-22.88ZM61.48-9.74L60.78 0L37.41 0L37.41-43.19L61.48-43.19L60.78-32.55L49.31-32.55L49.31-26.08L59.25-26.08L59.25-16.90L49.31-16.90L49.31-9.74L61.48-9.74ZM93.40-41.66L91.52-30.32L91.52-30.32Q84.84-32.34 81.75-32.34L81.75-32.34L81.75-32.34Q78.65-32.34 77.51-29.63L77.51-29.63L77.51-29.63Q76.36-26.91 76.36-21.04L76.36-21.04L76.36-21.04Q76.36-15.16 77.44-12.48L77.44-12.48L77.44-12.48Q78.51-9.81 81.85-9.81L81.85-9.81L81.85-9.81Q82.83-9.81 85.61-10.36L85.61-10.36L85.61-15.65L82.48-15.65L82.48-23.85L95.76-23.85L95.76 0L87.55 0L86.44-2.23L86.16-2.23L86.16-2.23Q84.98-1.25 84.29-0.76L84.29-0.76L84.29-0.76Q82.34 0.70 78.79 0.70L78.79 0.70L78.79 0.70Q64.26 0.70 64.26-21.28L64.26-21.28L64.26-21.28Q64.26-32.27 68.08-38.07L68.08-38.07L68.08-38.07Q71.91-43.88 80.95-43.88L80.95-43.88L80.95-43.88Q88.18-43.88 93.40-41.66L93.40-41.66ZM114.12-43.19L114.12 0L102.30 0L102.30-43.19L114.12-43.19ZM118.99-30.18L118.99-30.18Q118.99-36.37 122.60-40.13L122.60-40.13L122.60-40.13Q126.22-43.88 132.51-43.88L132.51-43.88L132.51-43.88Q138.81-43.88 145.41-42.63L145.41-42.63L144.02-31.50L144.02-31.50Q137.14-33.10 134.57-33.10L134.57-33.10L134.57-33.10Q131.30-33.10 131.30-30.46L131.30-30.46L131.30-30.46Q131.30-29.42 132.86-28.44L132.86-28.44L132.86-28.44Q134.43-27.47 136.65-26.39L136.65-26.39L136.65-26.39Q138.88-25.31 141.10-23.82L141.10-23.82L141.10-23.82Q143.33-22.32 144.89-19.54L144.89-19.54L144.89-19.54Q146.46-16.76 146.46-13.14L146.46-13.14L146.46-13.14Q146.46-6.54 142.91-2.92L142.91-2.92L142.91-2.92Q139.36 0.70 132.86 0.70L132.86 0.70L132.86 0.70Q126.36 0.70 120.17-1.32L120.17-1.32L120.94-11.68L120.94-11.68Q128.38-9.53 131.30-9.53L131.30-9.53L131.30-9.53Q134.22-9.53 134.22-12.10L134.22-12.10L134.22-12.10Q134.22-13.42 132.65-14.53L132.65-14.53L132.65-14.53Q131.09-15.65 128.86-16.76L128.86-16.76L128.86-16.76Q126.64-17.87 124.38-19.33L124.38-19.33L124.38-19.33Q122.12-20.79 120.55-23.58L120.55-23.58L120.55-23.58Q118.99-26.36 118.99-30.18L118.99-30.18ZM176.43-43.19L175.73-32.69L167.67-32.69L167.67 0L155.78 0L155.78-32.69L147.22-32.69L147.92-43.19L176.43-43.19ZM203.20-9.74L202.51 0L179.14 0L179.14-43.19L203.20-43.19L202.51-32.55L191.03-32.55L191.03-26.08L200.98-26.08L200.98-16.90L191.03-16.90L191.03-9.74L203.20-9.74ZM236.79-29.49L236.79-29.49L236.79-29.49Q236.79-25.59 235.61-23.02L235.61-23.02L235.61-23.02Q234.43-20.45 231.93-18.36L231.93-18.36L237.70 0L224.83 0L220.52-15.58L218.92-15.58L218.92 0L207.24 0L207.24-43.19L223.37-43.19L223.37-43.19Q230.33-43.19 233.56-39.92L233.56-39.92L233.56-39.92Q236.79-36.65 236.79-29.49ZM220.73-22.88L220.73-22.88Q222.54-22.88 223.30-23.92L223.30-23.92L223.30-23.92Q224.07-24.97 224.07-27.71L224.07-27.71L224.07-27.71Q224.07-30.46 223.30-31.54L223.30-31.54L223.30-31.54Q222.54-32.62 220.80-32.62L220.80-32.62L218.92-32.62L218.92-22.88L220.73-22.88Z" fill="#9522ff" stroke="#9522ff" stroke-width="14" stroke-linejoin="round" stroke-miterlimit="2" opacity="1" style="filter:url(#shadow_0)"/><path transform="translate(3,57.840976216502405)rotate(0)" d="M32.62-29.49L32.62-29.49L32.62-29.49Q32.62-25.59 31.43-23.02L31.43-23.02L31.43-23.02Q30.25-20.45 27.75-18.36L27.75-18.36L33.52 0L20.65 0L16.34-15.58L14.74-15.58L14.74 0L3.06 0L3.06-43.19L19.19-43.19L19.19-43.19Q26.15-43.19 29.38-39.92L29.38-39.92L29.38-39.92Q32.62-36.65 32.62-29.49ZM16.55-22.88L16.55-22.88Q18.36-22.88 19.12-23.92L19.12-23.92L19.12-23.92Q19.89-24.97 19.89-27.71L19.89-27.71L19.89-27.71Q19.89-30.46 19.12-31.54L19.12-31.54L19.12-31.54Q18.36-32.62 16.62-32.62L16.62-32.62L14.74-32.62L14.74-22.88L16.55-22.88ZM61.48-9.74L60.78 0L37.41 0L37.41-43.19L61.48-43.19L60.78-32.55L49.31-32.55L49.31-26.08L59.25-26.08L59.25-16.90L49.31-16.90L49.31-9.74L61.48-9.74ZM93.40-41.66L91.52-30.32L91.52-30.32Q84.84-32.34 81.75-32.34L81.75-32.34L81.75-32.34Q78.65-32.34 77.51-29.63L77.51-29.63L77.51-29.63Q76.36-26.91 76.36-21.04L76.36-21.04L76.36-21.04Q76.36-15.16 77.44-12.48L77.44-12.48L77.44-12.48Q78.51-9.81 81.85-9.81L81.85-9.81L81.85-9.81Q82.83-9.81 85.61-10.36L85.61-10.36L85.61-15.65L82.48-15.65L82.48-23.85L95.76-23.85L95.76 0L87.55 0L86.44-2.23L86.16-2.23L86.16-2.23Q84.98-1.25 84.29-0.76L84.29-0.76L84.29-0.76Q82.34 0.70 78.79 0.70L78.79 0.70L78.79 0.70Q64.26 0.70 64.26-21.28L64.26-21.28L64.26-21.28Q64.26-32.27 68.08-38.07L68.08-38.07L68.08-38.07Q71.91-43.88 80.95-43.88L80.95-43.88L80.95-43.88Q88.18-43.88 93.40-41.66L93.40-41.66ZM114.12-43.19L114.12 0L102.30 0L102.30-43.19L114.12-43.19ZM118.99-30.18L118.99-30.18Q118.99-36.37 122.60-40.13L122.60-40.13L122.60-40.13Q126.22-43.88 132.51-43.88L132.51-43.88L132.51-43.88Q138.81-43.88 145.41-42.63L145.41-42.63L144.02-31.50L144.02-31.50Q137.14-33.10 134.57-33.10L134.57-33.10L134.57-33.10Q131.30-33.10 131.30-30.46L131.30-30.46L131.30-30.46Q131.30-29.42 132.86-28.44L132.86-28.44L132.86-28.44Q134.43-27.47 136.65-26.39L136.65-26.39L136.65-26.39Q138.88-25.31 141.10-23.82L141.10-23.82L141.10-23.82Q143.33-22.32 144.89-19.54L144.89-19.54L144.89-19.54Q146.46-16.76 146.46-13.14L146.46-13.14L146.46-13.14Q146.46-6.54 142.91-2.92L142.91-2.92L142.91-2.92Q139.36 0.70 132.86 0.70L132.86 0.70L132.86 0.70Q126.36 0.70 120.17-1.32L120.17-1.32L120.94-11.68L120.94-11.68Q128.38-9.53 131.30-9.53L131.30-9.53L131.30-9.53Q134.22-9.53 134.22-12.10L134.22-12.10L134.22-12.10Q134.22-13.42 132.65-14.53L132.65-14.53L132.65-14.53Q131.09-15.65 128.86-16.76L128.86-16.76L128.86-16.76Q126.64-17.87 124.38-19.33L124.38-19.33L124.38-19.33Q122.12-20.79 120.55-23.58L120.55-23.58L120.55-23.58Q118.99-26.36 118.99-30.18L118.99-30.18ZM176.43-43.19L175.73-32.69L167.67-32.69L167.67 0L155.78 0L155.78-32.69L147.22-32.69L147.92-43.19L176.43-43.19ZM203.20-9.74L202.51 0L179.14 0L179.14-43.19L203.20-43.19L202.51-32.55L191.03-32.55L191.03-26.08L200.98-26.08L200.98-16.90L191.03-16.90L191.03-9.74L203.20-9.74ZM236.79-29.49L236.79-29.49L236.79-29.49Q236.79-25.59 235.61-23.02L235.61-23.02L235.61-23.02Q234.43-20.45 231.93-18.36L231.93-18.36L237.70 0L224.83 0L220.52-15.58L218.92-15.58L218.92 0L207.24 0L207.24-43.19L223.37-43.19L223.37-43.19Q230.33-43.19 233.56-39.92L233.56-39.92L233.56-39.92Q236.79-36.65 236.79-29.49ZM220.73-22.88L220.73-22.88Q222.54-22.88 223.30-23.92L223.30-23.92L223.30-23.92Q224.07-24.97 224.07-27.71L224.07-27.71L224.07-27.71Q224.07-30.46 223.30-31.54L223.30-31.54L223.30-31.54Q222.54-32.62 220.80-32.62L220.80-32.62L218.92-32.62L218.92-22.88L220.73-22.88Z" fill="none" stroke="#222826" stroke-width="14" stroke-linejoin="round" stroke-miterlimit="2"/><path transform="translate(3,57.840976216502405)rotate(0)" d="M32.62-29.49L32.62-29.49L32.62-29.49Q32.62-25.59 31.43-23.02L31.43-23.02L31.43-23.02Q30.25-20.45 27.75-18.36L27.75-18.36L33.52 0L20.65 0L16.34-15.58L14.74-15.58L14.74 0L3.06 0L3.06-43.19L19.19-43.19L19.19-43.19Q26.15-43.19 29.38-39.92L29.38-39.92L29.38-39.92Q32.62-36.65 32.62-29.49ZM16.55-22.88L16.55-22.88Q18.36-22.88 19.12-23.92L19.12-23.92L19.12-23.92Q19.89-24.97 19.89-27.71L19.89-27.71L19.89-27.71Q19.89-30.46 19.12-31.54L19.12-31.54L19.12-31.54Q18.36-32.62 16.62-32.62L16.62-32.62L14.74-32.62L14.74-22.88L16.55-22.88ZM61.48-9.74L60.78 0L37.41 0L37.41-43.19L61.48-43.19L60.78-32.55L49.31-32.55L49.31-26.08L59.25-26.08L59.25-16.90L49.31-16.90L49.31-9.74L61.48-9.74ZM93.40-41.66L91.52-30.32L91.52-30.32Q84.84-32.34 81.75-32.34L81.75-32.34L81.75-32.34Q78.65-32.34 77.51-29.63L77.51-29.63L77.51-29.63Q76.36-26.91 76.36-21.04L76.36-21.04L76.36-21.04Q76.36-15.16 77.44-12.48L77.44-12.48L77.44-12.48Q78.51-9.81 81.85-9.81L81.85-9.81L81.85-9.81Q82.83-9.81 85.61-10.36L85.61-10.36L85.61-15.65L82.48-15.65L82.48-23.85L95.76-23.85L95.76 0L87.55 0L86.44-2.23L86.16-2.23L86.16-2.23Q84.98-1.25 84.29-0.76L84.29-0.76L84.29-0.76Q82.34 0.70 78.79 0.70L78.79 0.70L78.79 0.70Q64.26 0.70 64.26-21.28L64.26-21.28L64.26-21.28Q64.26-32.27 68.08-38.07L68.08-38.07L68.08-38.07Q71.91-43.88 80.95-43.88L80.95-43.88L80.95-43.88Q88.18-43.88 93.40-41.66L93.40-41.66ZM114.12-43.19L114.12 0L102.30 0L102.30-43.19L114.12-43.19ZM118.99-30.18L118.99-30.18Q118.99-36.37 122.60-40.13L122.60-40.13L122.60-40.13Q126.22-43.88 132.51-43.88L132.51-43.88L132.51-43.88Q138.81-43.88 145.41-42.63L145.41-42.63L144.02-31.50L144.02-31.50Q137.14-33.10 134.57-33.10L134.57-33.10L134.57-33.10Q131.30-33.10 131.30-30.46L131.30-30.46L131.30-30.46Q131.30-29.42 132.86-28.44L132.86-28.44L132.86-28.44Q134.43-27.47 136.65-26.39L136.65-26.39L136.65-26.39Q138.88-25.31 141.10-23.82L141.10-23.82L141.10-23.82Q143.33-22.32 144.89-19.54L144.89-19.54L144.89-19.54Q146.46-16.76 146.46-13.14L146.46-13.14L146.46-13.14Q146.46-6.54 142.91-2.92L142.91-2.92L142.91-2.92Q139.36 0.70 132.86 0.70L132.86 0.70L132.86 0.70Q126.36 0.70 120.17-1.32L120.17-1.32L120.94-11.68L120.94-11.68Q128.38-9.53 131.30-9.53L131.30-9.53L131.30-9.53Q134.22-9.53 134.22-12.10L134.22-12.10L134.22-12.10Q134.22-13.42 132.65-14.53L132.65-14.53L132.65-14.53Q131.09-15.65 128.86-16.76L128.86-16.76L128.86-16.76Q126.64-17.87 124.38-19.33L124.38-19.33L124.38-19.33Q122.12-20.79 120.55-23.58L120.55-23.58L120.55-23.58Q118.99-26.36 118.99-30.18L118.99-30.18ZM176.43-43.19L175.73-32.69L167.67-32.69L167.67 0L155.78 0L155.78-32.69L147.22-32.69L147.92-43.19L176.43-43.19ZM203.20-9.74L202.51 0L179.14 0L179.14-43.19L203.20-43.19L202.51-32.55L191.03-32.55L191.03-26.08L200.98-26.08L200.98-16.90L191.03-16.90L191.03-9.74L203.20-9.74ZM236.79-29.49L236.79-29.49L236.79-29.49Q236.79-25.59 235.61-23.02L235.61-23.02L235.61-23.02Q234.43-20.45 231.93-18.36L231.93-18.36L237.70 0L224.83 0L220.52-15.58L218.92-15.58L218.92 0L207.24 0L207.24-43.19L223.37-43.19L223.37-43.19Q230.33-43.19 233.56-39.92L233.56-39.92L233.56-39.92Q236.79-36.65 236.79-29.49ZM220.73-22.88L220.73-22.88Q222.54-22.88 223.30-23.92L223.30-23.92L223.30-23.92Q224.07-24.97 224.07-27.71L224.07-27.71L224.07-27.71Q224.07-30.46 223.30-31.54L223.30-31.54L223.30-31.54Q222.54-32.62 220.80-32.62L220.80-32.62L218.92-32.62L218.92-22.88L220.73-22.88Z" fill="#cdcdcd"/></g></svg>