<svg xmlns="http://www.w3.org/2000/svg" width="300" height="100" viewBox="0 0 300 100"><g transform="translate(20.249999999999996,14.528030535685271)translate(129.67402157528446,35.69105234015094)rotate(0)translate(-129.67402157528446,-35.69105234015094)" opacity="1"><filter id="shadow_0" x="-35.5" y="-35.5" width="259.3480431505689" height="71.38210468030188"><feGaussianBlur stdDeviation="2.857142857142857"/><feOffset dx="3" dy="1"/></filter><path transform="translate(7,47.60994755586499)rotate(0)" d="M0.91-24.78L0.91-24.78Q0.91-29.87 3.88-32.95L3.88-32.95L3.88-32.95Q6.85-36.03 12.02-36.03L12.02-36.03L12.02-36.03Q17.19-36.03 22.61-35.01L22.61-35.01L21.47-25.87L21.47-25.87Q15.82-27.18 13.71-27.18L13.71-27.18L13.71-27.18Q11.02-27.18 11.02-25.01L11.02-25.01L11.02-25.01Q11.02-24.16 12.31-23.36L12.31-23.36L12.31-23.36Q13.59-22.56 15.42-21.67L15.42-21.67L15.42-21.67Q17.25-20.79 19.07-19.56L19.07-19.56L19.07-19.56Q20.90-18.33 22.19-16.05L22.19-16.05L22.19-16.05Q23.47-13.76 23.47-10.79L23.47-10.79L23.47-10.79Q23.47-5.37 20.56-2.40L20.56-2.40L20.56-2.40Q17.65 0.57 12.31 0.57L12.31 0.57L12.31 0.57Q6.97 0.57 1.88-1.09L1.88-1.09L2.51-9.59L2.51-9.59Q8.62-7.82 11.02-7.82L11.02-7.82L11.02-7.82Q13.42-7.82 13.42-9.94L13.42-9.94L13.42-9.94Q13.42-11.02 12.13-11.94L12.13-11.94L12.13-11.94Q10.85-12.85 9.02-13.76L9.02-13.76L9.02-13.76Q7.20-14.68 5.34-15.88L5.34-15.88L5.34-15.88Q3.48-17.07 2.20-19.36L2.20-19.36L2.20-19.36Q0.91-21.64 0.91-24.78L0.91-24.78ZM48.08-35.46L47.51-26.84L40.89-26.84L40.89 0L31.12 0L31.12-26.84L24.10-26.84L24.67-35.46L48.08-35.46ZM69.27-35.46L75.78 0L66.24 0L65.16-5.60L58.42-5.60L57.33 0L48.25 0L54.76-35.46L69.27-35.46ZM59.68-12.28L64.07-12.28L62.07-24.96L61.67-24.96L59.68-12.28ZM103.02-24.21L103.02-24.21L103.02-24.21Q103.02-21.01 102.05-18.90L102.05-18.90L102.05-18.90Q101.08-16.79 99.02-15.08L99.02-15.08L103.76 0L93.20 0L89.66-12.79L88.34-12.79L88.34 0L78.75 0L78.75-35.46L92.00-35.46L92.00-35.46Q97.71-35.46 100.36-32.78L100.36-32.78L100.36-32.78Q103.02-30.09 103.02-24.21ZM89.83-18.79L89.83-18.79Q91.31-18.79 91.94-19.64L91.94-19.64L91.94-19.64Q92.57-20.50 92.57-22.76L92.57-22.76L92.57-22.76Q92.57-25.01 91.94-25.90L91.94-25.90L91.94-25.90Q91.31-26.78 89.88-26.78L89.88-26.78L88.34-26.78L88.34-18.79L89.83-18.79ZM128.15-35.46L127.57-26.84L120.95-26.84L120.95 0L111.18 0L111.18-26.84L104.16-26.84L104.73-35.46L128.15-35.46ZM168.58-35.46L168.58 0L158.87 0L158.87-13.42L152.19-13.42L152.19 0L142.36 0L142.36-35.46L152.19-35.46L152.19-21.53L158.87-21.53L158.87-35.46L168.58-35.46ZM193.13-7.99L192.56 0L173.37 0L173.37-35.46L193.13-35.46L192.56-26.73L183.14-26.73L183.14-21.41L191.30-21.41L191.30-13.88L183.14-13.88L183.14-7.99L193.13-7.99ZM220.71-24.21L220.71-24.21L220.71-24.21Q220.71-21.01 219.74-18.90L219.74-18.90L219.74-18.90Q218.77-16.79 216.72-15.08L216.72-15.08L221.46 0L210.89 0L207.35-12.79L206.04-12.79L206.04 0L196.44 0L196.44-35.46L209.69-35.46L209.69-35.46Q215.40-35.46 218.06-32.78L218.06-32.78L218.06-32.78Q220.71-30.09 220.71-24.21ZM207.52-18.79L207.52-18.79Q209.01-18.79 209.63-19.64L209.63-19.64L209.63-19.64Q210.26-20.50 210.26-22.76L210.26-22.76L210.26-22.76Q210.26-25.01 209.63-25.90L209.63-25.90L209.63-25.90Q209.01-26.78 207.58-26.78L207.58-26.78L206.04-26.78L206.04-18.79L207.52-18.79ZM244.41-7.99L243.84 0L224.65 0L224.65-35.46L244.41-35.46L243.84-26.73L234.42-26.73L234.42-21.41L242.58-21.41L242.58-13.88L234.42-13.88L234.42-7.99L244.41-7.99Z" fill="#00ff15" stroke="#00ff15" stroke-width="12" stroke-linejoin="round" stroke-miterlimit="2" opacity="1" style="filter:url(#shadow_0)"/><path transform="translate(7,47.60994755586499)rotate(0)" d="M0.91-24.78L0.91-24.78Q0.91-29.87 3.88-32.95L3.88-32.95L3.88-32.95Q6.85-36.03 12.02-36.03L12.02-36.03L12.02-36.03Q17.19-36.03 22.61-35.01L22.61-35.01L21.47-25.87L21.47-25.87Q15.82-27.18 13.71-27.18L13.71-27.18L13.71-27.18Q11.02-27.18 11.02-25.01L11.02-25.01L11.02-25.01Q11.02-24.16 12.31-23.36L12.31-23.36L12.31-23.36Q13.59-22.56 15.42-21.67L15.42-21.67L15.42-21.67Q17.25-20.79 19.07-19.56L19.07-19.56L19.07-19.56Q20.90-18.33 22.19-16.05L22.19-16.05L22.19-16.05Q23.47-13.76 23.47-10.79L23.47-10.79L23.47-10.79Q23.47-5.37 20.56-2.40L20.56-2.40L20.56-2.40Q17.65 0.57 12.31 0.57L12.31 0.57L12.31 0.57Q6.97 0.57 1.88-1.09L1.88-1.09L2.51-9.59L2.51-9.59Q8.62-7.82 11.02-7.82L11.02-7.82L11.02-7.82Q13.42-7.82 13.42-9.94L13.42-9.94L13.42-9.94Q13.42-11.02 12.13-11.94L12.13-11.94L12.13-11.94Q10.85-12.85 9.02-13.76L9.02-13.76L9.02-13.76Q7.20-14.68 5.34-15.88L5.34-15.88L5.34-15.88Q3.48-17.07 2.20-19.36L2.20-19.36L2.20-19.36Q0.91-21.64 0.91-24.78L0.91-24.78ZM48.08-35.46L47.51-26.84L40.89-26.84L40.89 0L31.12 0L31.12-26.84L24.10-26.84L24.67-35.46L48.08-35.46ZM69.27-35.46L75.78 0L66.24 0L65.16-5.60L58.42-5.60L57.33 0L48.25 0L54.76-35.46L69.27-35.46ZM59.68-12.28L64.07-12.28L62.07-24.96L61.67-24.96L59.68-12.28ZM103.02-24.21L103.02-24.21L103.02-24.21Q103.02-21.01 102.05-18.90L102.05-18.90L102.05-18.90Q101.08-16.79 99.02-15.08L99.02-15.08L103.76 0L93.20 0L89.66-12.79L88.34-12.79L88.34 0L78.75 0L78.75-35.46L92.00-35.46L92.00-35.46Q97.71-35.46 100.36-32.78L100.36-32.78L100.36-32.78Q103.02-30.09 103.02-24.21ZM89.83-18.79L89.83-18.79Q91.31-18.79 91.94-19.64L91.94-19.64L91.94-19.64Q92.57-20.50 92.57-22.76L92.57-22.76L92.57-22.76Q92.57-25.01 91.94-25.90L91.94-25.90L91.94-25.90Q91.31-26.78 89.88-26.78L89.88-26.78L88.34-26.78L88.34-18.79L89.83-18.79ZM128.15-35.46L127.57-26.84L120.95-26.84L120.95 0L111.18 0L111.18-26.84L104.16-26.84L104.73-35.46L128.15-35.46ZM168.58-35.46L168.58 0L158.87 0L158.87-13.42L152.19-13.42L152.19 0L142.36 0L142.36-35.46L152.19-35.46L152.19-21.53L158.87-21.53L158.87-35.46L168.58-35.46ZM193.13-7.99L192.56 0L173.37 0L173.37-35.46L193.13-35.46L192.56-26.73L183.14-26.73L183.14-21.41L191.30-21.41L191.30-13.88L183.14-13.88L183.14-7.99L193.13-7.99ZM220.71-24.21L220.71-24.21L220.71-24.21Q220.71-21.01 219.74-18.90L219.74-18.90L219.74-18.90Q218.77-16.79 216.72-15.08L216.72-15.08L221.46 0L210.89 0L207.35-12.79L206.04-12.79L206.04 0L196.44 0L196.44-35.46L209.69-35.46L209.69-35.46Q215.40-35.46 218.06-32.78L218.06-32.78L218.06-32.78Q220.71-30.09 220.71-24.21ZM207.52-18.79L207.52-18.79Q209.01-18.79 209.63-19.64L209.63-19.64L209.63-19.64Q210.26-20.50 210.26-22.76L210.26-22.76L210.26-22.76Q210.26-25.01 209.63-25.90L209.63-25.90L209.63-25.90Q209.01-26.78 207.58-26.78L207.58-26.78L206.04-26.78L206.04-18.79L207.52-18.79ZM244.41-7.99L243.84 0L224.65 0L224.65-35.46L244.41-35.46L243.84-26.73L234.42-26.73L234.42-21.41L242.58-21.41L242.58-13.88L234.42-13.88L234.42-7.99L244.41-7.99Z" fill="none" stroke="#222826" stroke-width="12" stroke-linejoin="round" stroke-miterlimit="2"/><path transform="translate(7,47.60994755586499)rotate(0)" d="M0.91-24.78L0.91-24.78Q0.91-29.87 3.88-32.95L3.88-32.95L3.88-32.95Q6.85-36.03 12.02-36.03L12.02-36.03L12.02-36.03Q17.19-36.03 22.61-35.01L22.61-35.01L21.47-25.87L21.47-25.87Q15.82-27.18 13.71-27.18L13.71-27.18L13.71-27.18Q11.02-27.18 11.02-25.01L11.02-25.01L11.02-25.01Q11.02-24.16 12.31-23.36L12.31-23.36L12.31-23.36Q13.59-22.56 15.42-21.67L15.42-21.67L15.42-21.67Q17.25-20.79 19.07-19.56L19.07-19.56L19.07-19.56Q20.90-18.33 22.19-16.05L22.19-16.05L22.19-16.05Q23.47-13.76 23.47-10.79L23.47-10.79L23.47-10.79Q23.47-5.37 20.56-2.40L20.56-2.40L20.56-2.40Q17.65 0.57 12.31 0.57L12.31 0.57L12.31 0.57Q6.97 0.57 1.88-1.09L1.88-1.09L2.51-9.59L2.51-9.59Q8.62-7.82 11.02-7.82L11.02-7.82L11.02-7.82Q13.42-7.82 13.42-9.94L13.42-9.94L13.42-9.94Q13.42-11.02 12.13-11.94L12.13-11.94L12.13-11.94Q10.85-12.85 9.02-13.76L9.02-13.76L9.02-13.76Q7.20-14.68 5.34-15.88L5.34-15.88L5.34-15.88Q3.48-17.07 2.20-19.36L2.20-19.36L2.20-19.36Q0.91-21.64 0.91-24.78L0.91-24.78ZM48.08-35.46L47.51-26.84L40.89-26.84L40.89 0L31.12 0L31.12-26.84L24.10-26.84L24.67-35.46L48.08-35.46ZM69.27-35.46L75.78 0L66.24 0L65.16-5.60L58.42-5.60L57.33 0L48.25 0L54.76-35.46L69.27-35.46ZM59.68-12.28L64.07-12.28L62.07-24.96L61.67-24.96L59.68-12.28ZM103.02-24.21L103.02-24.21L103.02-24.21Q103.02-21.01 102.05-18.90L102.05-18.90L102.05-18.90Q101.08-16.79 99.02-15.08L99.02-15.08L103.76 0L93.20 0L89.66-12.79L88.34-12.79L88.34 0L78.75 0L78.75-35.46L92.00-35.46L92.00-35.46Q97.71-35.46 100.36-32.78L100.36-32.78L100.36-32.78Q103.02-30.09 103.02-24.21ZM89.83-18.79L89.83-18.79Q91.31-18.79 91.94-19.64L91.94-19.64L91.94-19.64Q92.57-20.50 92.57-22.76L92.57-22.76L92.57-22.76Q92.57-25.01 91.94-25.90L91.94-25.90L91.94-25.90Q91.31-26.78 89.88-26.78L89.88-26.78L88.34-26.78L88.34-18.79L89.83-18.79ZM128.15-35.46L127.57-26.84L120.95-26.84L120.95 0L111.18 0L111.18-26.84L104.16-26.84L104.73-35.46L128.15-35.46ZM168.58-35.46L168.58 0L158.87 0L158.87-13.42L152.19-13.42L152.19 0L142.36 0L142.36-35.46L152.19-35.46L152.19-21.53L158.87-21.53L158.87-35.46L168.58-35.46ZM193.13-7.99L192.56 0L173.37 0L173.37-35.46L193.13-35.46L192.56-26.73L183.14-26.73L183.14-21.41L191.30-21.41L191.30-13.88L183.14-13.88L183.14-7.99L193.13-7.99ZM220.71-24.21L220.71-24.21L220.71-24.21Q220.71-21.01 219.74-18.90L219.74-18.90L219.74-18.90Q218.77-16.79 216.72-15.08L216.72-15.08L221.46 0L210.89 0L207.35-12.79L206.04-12.79L206.04 0L196.44 0L196.44-35.46L209.69-35.46L209.69-35.46Q215.40-35.46 218.06-32.78L218.06-32.78L218.06-32.78Q220.71-30.09 220.71-24.21ZM207.52-18.79L207.52-18.79Q209.01-18.79 209.63-19.64L209.63-19.64L209.63-19.64Q210.26-20.50 210.26-22.76L210.26-22.76L210.26-22.76Q210.26-25.01 209.63-25.90L209.63-25.90L209.63-25.90Q209.01-26.78 207.58-26.78L207.58-26.78L206.04-26.78L206.04-18.79L207.52-18.79ZM244.41-7.99L243.84 0L224.65 0L224.65-35.46L244.41-35.46L243.84-26.73L234.42-26.73L234.42-21.41L242.58-21.41L242.58-13.88L234.42-13.88L234.42-7.99L244.41-7.99Z" fill="#f9fcf7"/></g></svg>