<svg xmlns="http://www.w3.org/2000/svg" width="650" height="200" viewBox="0 0 650 200"><g transform="translate(22.50000000000003,33.64017138863585)translate(302.04902157528466,83.13498191367572)rotate(0)translate(-302.04902157528466,-83.13498191367572)" opacity="1"><filter id="shadow_0" x="-83" y="-83" width="604.0980431505693" height="166.26996382735143"><feGaussianBlur stdDeviation="6.666666666666666"/><feOffset dx="7" dy="3"/></filter><path transform="translate(16,111.64100150200247)rotate(0)" d="M2.13-57.73L2.13-57.73Q2.13-69.57 9.05-76.75L9.05-76.75L9.05-76.75Q15.96-83.93 28.00-83.93L28.00-83.93L28.00-83.93Q40.04-83.93 52.67-81.54L52.67-81.54L50.01-60.26L50.01-60.26Q36.85-63.32 31.92-63.32L31.92-63.32L31.92-63.32Q25.67-63.32 25.67-58.26L25.67-58.26L25.67-58.26Q25.67-56.27 28.66-54.40L28.66-54.40L28.66-54.40Q31.66-52.54 35.91-50.48L35.91-50.48L35.91-50.48Q40.17-48.42 44.43-45.56L44.43-45.56L44.43-45.56Q48.68-42.70 51.68-37.38L51.68-37.38L51.68-37.38Q54.67-32.06 54.67-25.14L54.67-25.14L54.67-25.14Q54.67-12.50 47.89-5.59L47.89-5.59L47.89-5.59Q41.10 1.33 28.66 1.33L28.66 1.33L28.66 1.33Q16.23 1.33 4.39-2.53L4.39-2.53L5.85-22.35L5.85-22.35Q20.09-18.22 25.67-18.22L25.67-18.22L25.67-18.22Q31.26-18.22 31.26-23.14L31.26-23.14L31.26-23.14Q31.26-25.67 28.27-27.80L28.27-27.80L28.27-27.80Q25.27-29.93 21.02-32.06L21.02-32.06L21.02-32.06Q16.76-34.19 12.44-36.98L12.44-36.98L12.44-36.98Q8.11-39.77 5.12-45.09L5.12-45.09L5.12-45.09Q2.13-50.41 2.13-57.73L2.13-57.73ZM112.00-82.60L110.67-62.52L95.24-62.52L95.24 0L72.49 0L72.49-62.52L56.13-62.52L57.46-82.60L112.00-82.60ZM161.35-82.60L176.51 0L154.30 0L151.77-13.04L136.08-13.04L133.55 0L112.40 0L127.56-82.60L161.35-82.60ZM139.00-28.60L149.24-28.60L144.59-58.13L143.66-58.13L139.00-28.60ZM239.96-56.40L239.96-56.40L239.96-56.40Q239.96-48.95 237.70-44.03L237.70-44.03L237.70-44.03Q235.44-39.11 230.65-35.12L230.65-35.12L241.69 0L217.08 0L208.84-29.80L205.78-29.80L205.78 0L183.43 0L183.43-82.60L214.29-82.60L214.29-82.60Q227.59-82.60 233.78-76.35L233.78-76.35L233.78-76.35Q239.96-70.10 239.96-56.40ZM209.23-43.76L209.23-43.76Q212.69-43.76 214.16-45.76L214.16-45.76L214.16-45.76Q215.62-47.75 215.62-53.01L215.62-53.01L215.62-53.01Q215.62-58.26 214.16-60.32L214.16-60.32L214.16-60.32Q212.69-62.38 209.37-62.38L209.37-62.38L205.78-62.38L205.78-43.76L209.23-43.76ZM298.49-82.60L297.16-62.52L281.73-62.52L281.73 0L258.98 0L258.98-62.52L242.62-62.52L243.95-82.60L298.49-82.60ZM392.66-82.60L392.66 0L370.05 0L370.05-31.26L354.49-31.26L354.49 0L331.61 0L331.61-82.60L354.49-82.60L354.49-50.15L370.05-50.15L370.05-82.60L392.66-82.60ZM449.86-18.62L448.53 0L403.84 0L403.84-82.60L449.86-82.60L448.53-62.25L426.58-62.25L426.58-49.88L445.60-49.88L445.60-32.32L426.58-32.32L426.58-18.62L449.86-18.62ZM514.11-56.40L514.11-56.40L514.11-56.40Q514.11-48.95 511.85-44.03L511.85-44.03L511.85-44.03Q509.58-39.11 504.80-35.12L504.80-35.12L515.84 0L491.23 0L482.98-29.80L479.92-29.80L479.92 0L457.57 0L457.57-82.60L488.43-82.60L488.43-82.60Q501.74-82.60 507.92-76.35L507.92-76.35L507.92-76.35Q514.11-70.10 514.11-56.40ZM483.38-43.76L483.38-43.76Q486.84-43.76 488.30-45.76L488.30-45.76L488.30-45.76Q489.76-47.75 489.76-53.01L489.76-53.01L489.76-53.01Q489.76-58.26 488.30-60.32L488.30-60.32L488.30-60.32Q486.84-62.38 483.51-62.38L483.51-62.38L479.92-62.38L479.92-43.76L483.38-43.76ZM569.31-18.62L567.98 0L523.28 0L523.28-82.60L569.31-82.60L567.98-62.25L546.03-62.25L546.03-49.88L565.05-49.88L565.05-32.32L546.03-32.32L546.03-18.62L569.31-18.62Z" fill="#00ff15" stroke="#00ff15" stroke-width="27" stroke-linejoin="round" stroke-miterlimit="2" opacity="1" style="filter:url(#shadow_0)"/><path transform="translate(16,111.64100150200247)rotate(0)" d="M2.13-57.73L2.13-57.73Q2.13-69.57 9.05-76.75L9.05-76.75L9.05-76.75Q15.96-83.93 28.00-83.93L28.00-83.93L28.00-83.93Q40.04-83.93 52.67-81.54L52.67-81.54L50.01-60.26L50.01-60.26Q36.85-63.32 31.92-63.32L31.92-63.32L31.92-63.32Q25.67-63.32 25.67-58.26L25.67-58.26L25.67-58.26Q25.67-56.27 28.66-54.40L28.66-54.40L28.66-54.40Q31.66-52.54 35.91-50.48L35.91-50.48L35.91-50.48Q40.17-48.42 44.43-45.56L44.43-45.56L44.43-45.56Q48.68-42.70 51.68-37.38L51.68-37.38L51.68-37.38Q54.67-32.06 54.67-25.14L54.67-25.14L54.67-25.14Q54.67-12.50 47.89-5.59L47.89-5.59L47.89-5.59Q41.10 1.33 28.66 1.33L28.66 1.33L28.66 1.33Q16.23 1.33 4.39-2.53L4.39-2.53L5.85-22.35L5.85-22.35Q20.09-18.22 25.67-18.22L25.67-18.22L25.67-18.22Q31.26-18.22 31.26-23.14L31.26-23.14L31.26-23.14Q31.26-25.67 28.27-27.80L28.27-27.80L28.27-27.80Q25.27-29.93 21.02-32.06L21.02-32.06L21.02-32.06Q16.76-34.19 12.44-36.98L12.44-36.98L12.44-36.98Q8.11-39.77 5.12-45.09L5.12-45.09L5.12-45.09Q2.13-50.41 2.13-57.73L2.13-57.73ZM112.00-82.60L110.67-62.52L95.24-62.52L95.24 0L72.49 0L72.49-62.52L56.13-62.52L57.46-82.60L112.00-82.60ZM161.35-82.60L176.51 0L154.30 0L151.77-13.04L136.08-13.04L133.55 0L112.40 0L127.56-82.60L161.35-82.60ZM139.00-28.60L149.24-28.60L144.59-58.13L143.66-58.13L139.00-28.60ZM239.96-56.40L239.96-56.40L239.96-56.40Q239.96-48.95 237.70-44.03L237.70-44.03L237.70-44.03Q235.44-39.11 230.65-35.12L230.65-35.12L241.69 0L217.08 0L208.84-29.80L205.78-29.80L205.78 0L183.43 0L183.43-82.60L214.29-82.60L214.29-82.60Q227.59-82.60 233.78-76.35L233.78-76.35L233.78-76.35Q239.96-70.10 239.96-56.40ZM209.23-43.76L209.23-43.76Q212.69-43.76 214.16-45.76L214.16-45.76L214.16-45.76Q215.62-47.75 215.62-53.01L215.62-53.01L215.62-53.01Q215.62-58.26 214.16-60.32L214.16-60.32L214.16-60.32Q212.69-62.38 209.37-62.38L209.37-62.38L205.78-62.38L205.78-43.76L209.23-43.76ZM298.49-82.60L297.16-62.52L281.73-62.52L281.73 0L258.98 0L258.98-62.52L242.62-62.52L243.95-82.60L298.49-82.60ZM392.66-82.60L392.66 0L370.05 0L370.05-31.26L354.49-31.26L354.49 0L331.61 0L331.61-82.60L354.49-82.60L354.49-50.15L370.05-50.15L370.05-82.60L392.66-82.60ZM449.86-18.62L448.53 0L403.84 0L403.84-82.60L449.86-82.60L448.53-62.25L426.58-62.25L426.58-49.88L445.60-49.88L445.60-32.32L426.58-32.32L426.58-18.62L449.86-18.62ZM514.11-56.40L514.11-56.40L514.11-56.40Q514.11-48.95 511.85-44.03L511.85-44.03L511.85-44.03Q509.58-39.11 504.80-35.12L504.80-35.12L515.84 0L491.23 0L482.98-29.80L479.92-29.80L479.92 0L457.57 0L457.57-82.60L488.43-82.60L488.43-82.60Q501.74-82.60 507.92-76.35L507.92-76.35L507.92-76.35Q514.11-70.10 514.11-56.40ZM483.38-43.76L483.38-43.76Q486.84-43.76 488.30-45.76L488.30-45.76L488.30-45.76Q489.76-47.75 489.76-53.01L489.76-53.01L489.76-53.01Q489.76-58.26 488.30-60.32L488.30-60.32L488.30-60.32Q486.84-62.38 483.51-62.38L483.51-62.38L479.92-62.38L479.92-43.76L483.38-43.76ZM569.31-18.62L567.98 0L523.28 0L523.28-82.60L569.31-82.60L567.98-62.25L546.03-62.25L546.03-49.88L565.05-49.88L565.05-32.32L546.03-32.32L546.03-18.62L569.31-18.62Z" fill="none" stroke="#222826" stroke-width="27" stroke-linejoin="round" stroke-miterlimit="2"/><path transform="translate(16,111.64100150200247)rotate(0)" d="M2.13-57.73L2.13-57.73Q2.13-69.57 9.05-76.75L9.05-76.75L9.05-76.75Q15.96-83.93 28.00-83.93L28.00-83.93L28.00-83.93Q40.04-83.93 52.67-81.54L52.67-81.54L50.01-60.26L50.01-60.26Q36.85-63.32 31.92-63.32L31.92-63.32L31.92-63.32Q25.67-63.32 25.67-58.26L25.67-58.26L25.67-58.26Q25.67-56.27 28.66-54.40L28.66-54.40L28.66-54.40Q31.66-52.54 35.91-50.48L35.91-50.48L35.91-50.48Q40.17-48.42 44.43-45.56L44.43-45.56L44.43-45.56Q48.68-42.70 51.68-37.38L51.68-37.38L51.68-37.38Q54.67-32.06 54.67-25.14L54.67-25.14L54.67-25.14Q54.67-12.50 47.89-5.59L47.89-5.59L47.89-5.59Q41.10 1.33 28.66 1.33L28.66 1.33L28.66 1.33Q16.23 1.33 4.39-2.53L4.39-2.53L5.85-22.35L5.85-22.35Q20.09-18.22 25.67-18.22L25.67-18.22L25.67-18.22Q31.26-18.22 31.26-23.14L31.26-23.14L31.26-23.14Q31.26-25.67 28.27-27.80L28.27-27.80L28.27-27.80Q25.27-29.93 21.02-32.06L21.02-32.06L21.02-32.06Q16.76-34.19 12.44-36.98L12.44-36.98L12.44-36.98Q8.11-39.77 5.12-45.09L5.12-45.09L5.12-45.09Q2.13-50.41 2.13-57.73L2.13-57.73ZM112.00-82.60L110.67-62.52L95.24-62.52L95.24 0L72.49 0L72.49-62.52L56.13-62.52L57.46-82.60L112.00-82.60ZM161.35-82.60L176.51 0L154.30 0L151.77-13.04L136.08-13.04L133.55 0L112.40 0L127.56-82.60L161.35-82.60ZM139.00-28.60L149.24-28.60L144.59-58.13L143.66-58.13L139.00-28.60ZM239.96-56.40L239.96-56.40L239.96-56.40Q239.96-48.95 237.70-44.03L237.70-44.03L237.70-44.03Q235.44-39.11 230.65-35.12L230.65-35.12L241.69 0L217.08 0L208.84-29.80L205.78-29.80L205.78 0L183.43 0L183.43-82.60L214.29-82.60L214.29-82.60Q227.59-82.60 233.78-76.35L233.78-76.35L233.78-76.35Q239.96-70.10 239.96-56.40ZM209.23-43.76L209.23-43.76Q212.69-43.76 214.16-45.76L214.16-45.76L214.16-45.76Q215.62-47.75 215.62-53.01L215.62-53.01L215.62-53.01Q215.62-58.26 214.16-60.32L214.16-60.32L214.16-60.32Q212.69-62.38 209.37-62.38L209.37-62.38L205.78-62.38L205.78-43.76L209.23-43.76ZM298.49-82.60L297.16-62.52L281.73-62.52L281.73 0L258.98 0L258.98-62.52L242.62-62.52L243.95-82.60L298.49-82.60ZM392.66-82.60L392.66 0L370.05 0L370.05-31.26L354.49-31.26L354.49 0L331.61 0L331.61-82.60L354.49-82.60L354.49-50.15L370.05-50.15L370.05-82.60L392.66-82.60ZM449.86-18.62L448.53 0L403.84 0L403.84-82.60L449.86-82.60L448.53-62.25L426.58-62.25L426.58-49.88L445.60-49.88L445.60-32.32L426.58-32.32L426.58-18.62L449.86-18.62ZM514.11-56.40L514.11-56.40L514.11-56.40Q514.11-48.95 511.85-44.03L511.85-44.03L511.85-44.03Q509.58-39.11 504.80-35.12L504.80-35.12L515.84 0L491.23 0L482.98-29.80L479.92-29.80L479.92 0L457.57 0L457.57-82.60L488.43-82.60L488.43-82.60Q501.74-82.60 507.92-76.35L507.92-76.35L507.92-76.35Q514.11-70.10 514.11-56.40ZM483.38-43.76L483.38-43.76Q486.84-43.76 488.30-45.76L488.30-45.76L488.30-45.76Q489.76-47.75 489.76-53.01L489.76-53.01L489.76-53.01Q489.76-58.26 488.30-60.32L488.30-60.32L488.30-60.32Q486.84-62.38 483.51-62.38L483.51-62.38L479.92-62.38L479.92-43.76L483.38-43.76ZM569.31-18.62L567.98 0L523.28 0L523.28-82.60L569.31-82.60L567.98-62.25L546.03-62.25L546.03-49.88L565.05-49.88L565.05-32.32L546.03-32.32L546.03-18.62L569.31-18.62Z" fill="#cdcdcd"/></g></svg>