<svg xmlns="http://www.w3.org/2000/svg" width="300" height="100" viewBox="0 0 300 100"><rect x="0" y="0" width="300" height="100" fill="#ffffff"/><g transform="translate(14.384950742675146,12.673480305697273)translate(135.87201222476088,37.342371170991704)rotate(0)translate(-135.87201222476088,-37.342371170991704)" opacity="1"><filter id="shadow_0" x="-37.5" y="-37.5" width="271.74402444952176" height="74.68474234198341"><feGaussianBlur stdDeviation="0"/><feOffset dx="6" dy="3"/></filter><path transform="translate(7,48.933644730666984)rotate(0)" d="M0.96-25.93L0.96-25.93Q0.96-31.25 4.06-34.47L4.06-34.47L4.06-34.47Q7.17-37.70 12.58-37.70L12.58-37.70L12.58-37.70Q17.98-37.70 23.66-36.63L23.66-36.63L22.47-27.07L22.47-27.07Q16.55-28.44 14.34-28.44L14.34-28.44L14.34-28.44Q11.53-28.44 11.53-26.17L11.53-26.17L11.53-26.17Q11.53-25.27 12.88-24.44L12.88-24.44L12.88-24.44Q14.22-23.60 16.13-22.67L16.13-22.67L16.13-22.67Q18.04-21.75 19.96-20.46L19.96-20.46L19.96-20.46Q21.87-19.18 23.21-16.79L23.21-16.79L23.21-16.79Q24.56-14.40 24.56-11.29L24.56-11.29L24.56-11.29Q24.56-5.62 21.51-2.51L21.51-2.51L21.51-2.51Q18.46 0.60 12.88 0.60L12.88 0.60L12.88 0.60Q7.29 0.60 1.97-1.14L1.97-1.14L2.63-10.04L2.63-10.04Q9.02-8.19 11.53-8.19L11.53-8.19L11.53-8.19Q14.04-8.19 14.04-10.40L14.04-10.40L14.04-10.40Q14.04-11.53 12.70-12.49L12.70-12.49L12.70-12.49Q11.35-13.44 9.44-14.40L9.44-14.40L9.44-14.40Q7.53-15.36 5.59-16.61L5.59-16.61L5.59-16.61Q3.64-17.86 2.30-20.25L2.30-20.25L2.30-20.25Q0.96-22.64 0.96-25.93L0.96-25.93ZM50.31-37.10L49.71-28.08L42.78-28.08L42.78 0L32.56 0L32.56-28.08L25.21-28.08L25.81-37.10L50.31-37.10ZM72.47-37.10L79.29 0L69.31 0L68.17-5.86L61.12-5.86L59.99 0L50.49 0L57.30-37.10L72.47-37.10ZM62.44-12.85L67.04-12.85L64.95-26.11L64.53-26.11L62.44-12.85ZM107.79-25.33L107.79-25.33L107.79-25.33Q107.79-21.99 106.77-19.78L106.77-19.78L106.77-19.78Q105.75-17.57 103.60-15.77L103.60-15.77L108.56 0L97.51 0L93.80-13.38L92.43-13.38L92.43 0L82.39 0L82.39-37.10L96.25-37.10L96.25-37.10Q102.23-37.10 105.01-34.30L105.01-34.30L105.01-34.30Q107.79-31.49 107.79-25.33ZM93.98-19.66L93.98-19.66Q95.54-19.66 96.19-20.55L96.19-20.55L96.19-20.55Q96.85-21.45 96.85-23.81L96.85-23.81L96.85-23.81Q96.85-26.17 96.19-27.10L96.19-27.10L96.19-27.10Q95.54-28.02 94.04-28.02L94.04-28.02L92.43-28.02L92.43-19.66L93.98-19.66ZM134.07-37.10L133.48-28.08L126.55-28.08L126.55 0L116.33 0L116.33-28.08L108.98-28.08L109.58-37.10L134.07-37.10ZM176.38-37.10L176.38 0L166.22 0L166.22-14.04L159.23-14.04L159.23 0L148.95 0L148.95-37.10L159.23-37.10L159.23-22.52L166.22-22.52L166.22-37.10L176.38-37.10ZM202.07-8.36L201.47 0L181.39 0L181.39-37.10L202.07-37.10L201.47-27.96L191.61-27.96L191.61-22.41L200.16-22.41L200.16-14.52L191.61-14.52L191.61-8.36L202.07-8.36ZM230.93-25.33L230.93-25.33L230.93-25.33Q230.93-21.99 229.91-19.78L229.91-19.78L229.91-19.78Q228.89-17.57 226.74-15.77L226.74-15.77L231.70 0L220.65 0L216.94-13.38L215.57-13.38L215.57 0L205.53 0L205.53-37.10L219.39-37.10L219.39-37.10Q225.37-37.10 228.15-34.30L228.15-34.30L228.15-34.30Q230.93-31.49 230.93-25.33ZM217.12-19.66L217.12-19.66Q218.68-19.66 219.33-20.55L219.33-20.55L219.33-20.55Q219.99-21.45 219.99-23.81L219.99-23.81L219.99-23.81Q219.99-26.17 219.33-27.10L219.33-27.10L219.33-27.10Q218.68-28.02 217.18-28.02L217.18-28.02L215.57-28.02L215.57-19.66L217.12-19.66ZM255.72-8.36L255.12 0L235.05 0L235.05-37.10L255.72-37.10L255.12-27.96L245.26-27.96L245.26-22.41L253.81-22.41L253.81-14.52L245.26-14.52L245.26-8.36L255.72-8.36Z" fill="#57ed00" stroke="#57ed00" stroke-width="12" stroke-linejoin="round" stroke-miterlimit="2" opacity="1" style="filter:url(#shadow_0)"/><path transform="translate(7,48.933644730666984)rotate(0)" d="M0.96-25.93L0.96-25.93Q0.96-31.25 4.06-34.47L4.06-34.47L4.06-34.47Q7.17-37.70 12.58-37.70L12.58-37.70L12.58-37.70Q17.98-37.70 23.66-36.63L23.66-36.63L22.47-27.07L22.47-27.07Q16.55-28.44 14.34-28.44L14.34-28.44L14.34-28.44Q11.53-28.44 11.53-26.17L11.53-26.17L11.53-26.17Q11.53-25.27 12.88-24.44L12.88-24.44L12.88-24.44Q14.22-23.60 16.13-22.67L16.13-22.67L16.13-22.67Q18.04-21.75 19.96-20.46L19.96-20.46L19.96-20.46Q21.87-19.18 23.21-16.79L23.21-16.79L23.21-16.79Q24.56-14.40 24.56-11.29L24.56-11.29L24.56-11.29Q24.56-5.62 21.51-2.51L21.51-2.51L21.51-2.51Q18.46 0.60 12.88 0.60L12.88 0.60L12.88 0.60Q7.29 0.60 1.97-1.14L1.97-1.14L2.63-10.04L2.63-10.04Q9.02-8.19 11.53-8.19L11.53-8.19L11.53-8.19Q14.04-8.19 14.04-10.40L14.04-10.40L14.04-10.40Q14.04-11.53 12.70-12.49L12.70-12.49L12.70-12.49Q11.35-13.44 9.44-14.40L9.44-14.40L9.44-14.40Q7.53-15.36 5.59-16.61L5.59-16.61L5.59-16.61Q3.64-17.86 2.30-20.25L2.30-20.25L2.30-20.25Q0.96-22.64 0.96-25.93L0.96-25.93ZM50.31-37.10L49.71-28.08L42.78-28.08L42.78 0L32.56 0L32.56-28.08L25.21-28.08L25.81-37.10L50.31-37.10ZM72.47-37.10L79.29 0L69.31 0L68.17-5.86L61.12-5.86L59.99 0L50.49 0L57.30-37.10L72.47-37.10ZM62.44-12.85L67.04-12.85L64.95-26.11L64.53-26.11L62.44-12.85ZM107.79-25.33L107.79-25.33L107.79-25.33Q107.79-21.99 106.77-19.78L106.77-19.78L106.77-19.78Q105.75-17.57 103.60-15.77L103.60-15.77L108.56 0L97.51 0L93.80-13.38L92.43-13.38L92.43 0L82.39 0L82.39-37.10L96.25-37.10L96.25-37.10Q102.23-37.10 105.01-34.30L105.01-34.30L105.01-34.30Q107.79-31.49 107.79-25.33ZM93.98-19.66L93.98-19.66Q95.54-19.66 96.19-20.55L96.19-20.55L96.19-20.55Q96.85-21.45 96.85-23.81L96.85-23.81L96.85-23.81Q96.85-26.17 96.19-27.10L96.19-27.10L96.19-27.10Q95.54-28.02 94.04-28.02L94.04-28.02L92.43-28.02L92.43-19.66L93.98-19.66ZM134.07-37.10L133.48-28.08L126.55-28.08L126.55 0L116.33 0L116.33-28.08L108.98-28.08L109.58-37.10L134.07-37.10ZM176.38-37.10L176.38 0L166.22 0L166.22-14.04L159.23-14.04L159.23 0L148.95 0L148.95-37.10L159.23-37.10L159.23-22.52L166.22-22.52L166.22-37.10L176.38-37.10ZM202.07-8.36L201.47 0L181.39 0L181.39-37.10L202.07-37.10L201.47-27.96L191.61-27.96L191.61-22.41L200.16-22.41L200.16-14.52L191.61-14.52L191.61-8.36L202.07-8.36ZM230.93-25.33L230.93-25.33L230.93-25.33Q230.93-21.99 229.91-19.78L229.91-19.78L229.91-19.78Q228.89-17.57 226.74-15.77L226.74-15.77L231.70 0L220.65 0L216.94-13.38L215.57-13.38L215.57 0L205.53 0L205.53-37.10L219.39-37.10L219.39-37.10Q225.37-37.10 228.15-34.30L228.15-34.30L228.15-34.30Q230.93-31.49 230.93-25.33ZM217.12-19.66L217.12-19.66Q218.68-19.66 219.33-20.55L219.33-20.55L219.33-20.55Q219.99-21.45 219.99-23.81L219.99-23.81L219.99-23.81Q219.99-26.17 219.33-27.10L219.33-27.10L219.33-27.10Q218.68-28.02 217.18-28.02L217.18-28.02L215.57-28.02L215.57-19.66L217.12-19.66ZM255.72-8.36L255.12 0L235.05 0L235.05-37.10L255.72-37.10L255.12-27.96L245.26-27.96L245.26-22.41L253.81-22.41L253.81-14.52L245.26-14.52L245.26-8.36L255.72-8.36Z" fill="none" stroke="#000000" stroke-width="12" stroke-linejoin="round" stroke-miterlimit="2"/><path transform="translate(7,48.933644730666984)rotate(0)" d="M0.96-25.93L0.96-25.93Q0.96-31.25 4.06-34.47L4.06-34.47L4.06-34.47Q7.17-37.70 12.58-37.70L12.58-37.70L12.58-37.70Q17.98-37.70 23.66-36.63L23.66-36.63L22.47-27.07L22.47-27.07Q16.55-28.44 14.34-28.44L14.34-28.44L14.34-28.44Q11.53-28.44 11.53-26.17L11.53-26.17L11.53-26.17Q11.53-25.27 12.88-24.44L12.88-24.44L12.88-24.44Q14.22-23.60 16.13-22.67L16.13-22.67L16.13-22.67Q18.04-21.75 19.96-20.46L19.96-20.46L19.96-20.46Q21.87-19.18 23.21-16.79L23.21-16.79L23.21-16.79Q24.56-14.40 24.56-11.29L24.56-11.29L24.56-11.29Q24.56-5.62 21.51-2.51L21.51-2.51L21.51-2.51Q18.46 0.60 12.88 0.60L12.88 0.60L12.88 0.60Q7.29 0.60 1.97-1.14L1.97-1.14L2.63-10.04L2.63-10.04Q9.02-8.19 11.53-8.19L11.53-8.19L11.53-8.19Q14.04-8.19 14.04-10.40L14.04-10.40L14.04-10.40Q14.04-11.53 12.70-12.49L12.70-12.49L12.70-12.49Q11.35-13.44 9.44-14.40L9.44-14.40L9.44-14.40Q7.53-15.36 5.59-16.61L5.59-16.61L5.59-16.61Q3.64-17.86 2.30-20.25L2.30-20.25L2.30-20.25Q0.96-22.64 0.96-25.93L0.96-25.93ZM50.31-37.10L49.71-28.08L42.78-28.08L42.78 0L32.56 0L32.56-28.08L25.21-28.08L25.81-37.10L50.31-37.10ZM72.47-37.10L79.29 0L69.31 0L68.17-5.86L61.12-5.86L59.99 0L50.49 0L57.30-37.10L72.47-37.10ZM62.44-12.85L67.04-12.85L64.95-26.11L64.53-26.11L62.44-12.85ZM107.79-25.33L107.79-25.33L107.79-25.33Q107.79-21.99 106.77-19.78L106.77-19.78L106.77-19.78Q105.75-17.57 103.60-15.77L103.60-15.77L108.56 0L97.51 0L93.80-13.38L92.43-13.38L92.43 0L82.39 0L82.39-37.10L96.25-37.10L96.25-37.10Q102.23-37.10 105.01-34.30L105.01-34.30L105.01-34.30Q107.79-31.49 107.79-25.33ZM93.98-19.66L93.98-19.66Q95.54-19.66 96.19-20.55L96.19-20.55L96.19-20.55Q96.85-21.45 96.85-23.81L96.85-23.81L96.85-23.81Q96.85-26.17 96.19-27.10L96.19-27.10L96.19-27.10Q95.54-28.02 94.04-28.02L94.04-28.02L92.43-28.02L92.43-19.66L93.98-19.66ZM134.07-37.10L133.48-28.08L126.55-28.08L126.55 0L116.33 0L116.33-28.08L108.98-28.08L109.58-37.10L134.07-37.10ZM176.38-37.10L176.38 0L166.22 0L166.22-14.04L159.23-14.04L159.23 0L148.95 0L148.95-37.10L159.23-37.10L159.23-22.52L166.22-22.52L166.22-37.10L176.38-37.10ZM202.07-8.36L201.47 0L181.39 0L181.39-37.10L202.07-37.10L201.47-27.96L191.61-27.96L191.61-22.41L200.16-22.41L200.16-14.52L191.61-14.52L191.61-8.36L202.07-8.36ZM230.93-25.33L230.93-25.33L230.93-25.33Q230.93-21.99 229.91-19.78L229.91-19.78L229.91-19.78Q228.89-17.57 226.74-15.77L226.74-15.77L231.70 0L220.65 0L216.94-13.38L215.57-13.38L215.57 0L205.53 0L205.53-37.10L219.39-37.10L219.39-37.10Q225.37-37.10 228.15-34.30L228.15-34.30L228.15-34.30Q230.93-31.49 230.93-25.33ZM217.12-19.66L217.12-19.66Q218.68-19.66 219.33-20.55L219.33-20.55L219.33-20.55Q219.99-21.45 219.99-23.81L219.99-23.81L219.99-23.81Q219.99-26.17 219.33-27.10L219.33-27.10L219.33-27.10Q218.68-28.02 217.18-28.02L217.18-28.02L215.57-28.02L215.57-19.66L217.12-19.66ZM255.72-8.36L255.12 0L235.05 0L235.05-37.10L255.72-37.10L255.12-27.96L245.26-27.96L245.26-22.41L253.81-22.41L253.81-14.52L245.26-14.52L245.26-8.36L255.72-8.36Z" fill="#ffffff"/></g></svg>